<svg width="390" height="844" viewBox="0 0 390 844" fill="none" xmlns="http://www.w3.org/2000/svg">
<g clip-path="url(#clip0_9010_8541)">
<rect width="390" height="844" fill="#81D4F6"/>
<path d="M29 235H364V628C364 650.091 346.091 668 324 668H69C46.9086 668 29 650.091 29 628V235Z" fill="white"/>
<path d="M12.9521 219.673C8.93732 217.883 6.92995 216.989 6.28463 215.76C5.67294 214.595 5.67294 213.204 6.28463 212.04C6.92995 210.811 8.93732 209.917 12.9521 208.127L31.7179 199.764C34.6172 198.471 36.0669 197.825 37.2395 198.012C38.3564 198.19 39.3458 198.832 39.9629 199.78C40.6107 200.775 40.6107 202.362 40.6107 205.536V222.264C40.6107 225.438 40.6107 227.025 39.9629 228.02C39.3458 228.968 38.3564 229.61 37.2395 229.788C36.0669 229.975 34.6172 229.329 31.7179 228.036L12.9521 219.673Z" fill="#FFF0BE"/>
<path d="M8.1841 217.813C7.64446 217.555 7.37463 217.426 7.21155 217.328C4.62538 215.774 4.62538 212.025 7.21155 210.471C7.37463 210.373 7.64446 210.244 8.1841 209.986C8.6093 209.783 8.82191 209.681 8.98149 209.621C11.4637 208.684 14.1533 210.38 14.3791 213.023C14.3937 213.193 14.3937 213.428 14.3937 213.9C14.3937 214.371 14.3937 214.607 14.3791 214.777C14.1533 217.42 11.4637 219.115 8.98149 218.179C8.82191 218.118 8.6093 218.017 8.1841 217.813Z" fill="black"/>
<g clip-path="url(#clip1_9010_8541)">
<rect width="304.323" height="33.5576" transform="translate(37.6978 197.121)" fill="#FFD23B"/>
</g>
<g clip-path="url(#clip2_9010_8541)">
<rect width="17.1353" height="33.5576" transform="translate(342.021 197.121)" fill="#C4C4C4"/>
</g>
<g clip-path="url(#clip3_9010_8541)">
<path d="M359.156 197.121H373.221C374.873 197.121 375.699 197.121 376.395 197.186C383.577 197.857 389.264 203.544 389.935 210.726C390 211.422 390 212.248 390 213.9C390 215.552 390 216.378 389.935 217.074C389.264 224.255 383.577 229.943 376.395 230.614C375.699 230.679 374.873 230.679 373.221 230.679H359.156V197.121Z" fill="#FFA2CE"/>
</g>
<path d="M69.2054 271.064C63.2706 271.064 58.4595 266.253 58.4595 260.318L58.4595 187.746C58.4595 181.811 63.2706 177 69.2054 177C75.1403 177 79.9514 181.811 79.9514 187.746V260.318C79.9514 266.253 75.1403 271.064 69.2054 271.064Z" fill="#525252"/>
<path d="M120.052 271.197C114.118 271.197 109.306 266.385 109.306 260.451L109.306 187.878C109.306 181.943 114.118 177.132 120.052 177.132C125.987 177.132 130.798 181.943 130.798 187.878V260.451C130.798 266.385 125.987 271.197 120.052 271.197Z" fill="#525252"/>
<path d="M170.899 271.197C164.964 271.197 160.153 266.385 160.153 260.451V187.878C160.153 181.943 164.964 177.132 170.899 177.132C176.834 177.132 181.645 181.943 181.645 187.878V260.451C181.645 266.385 176.834 271.197 170.899 271.197Z" fill="#525252"/>
<path d="M221.746 271.197C215.811 271.197 211 266.385 211 260.451V187.878C211 181.943 215.811 177.132 221.746 177.132C227.681 177.132 232.492 181.943 232.492 187.878V260.451C232.492 266.385 227.681 271.197 221.746 271.197Z" fill="#525252"/>
<path d="M272.593 271.197C266.658 271.197 261.847 266.385 261.847 260.451V187.878C261.847 181.943 266.658 177.132 272.593 177.132C278.527 177.132 283.339 181.943 283.339 187.878V260.451C283.339 266.385 278.527 271.197 272.593 271.197Z" fill="#525252"/>
<path d="M323.439 271.197C317.504 271.197 312.693 266.385 312.693 260.451V187.878C312.693 181.943 317.504 177.132 323.439 177.132C329.374 177.132 334.185 181.943 334.185 187.878V260.451C334.185 266.385 329.374 271.197 323.439 271.197Z" fill="#525252"/>
<path d="M345.589 166.487C325.726 166.488 300.36 159.916 275.045 144.296C277.43 141.487 279.858 138.443 282.265 135.217C295.84 117.023 303.669 99.9296 299.754 97.0362C295.838 94.1434 281.659 106.547 268.084 124.741C265.547 128.142 263.211 131.505 261.114 134.743C244.601 122.227 228.555 105.599 214.552 84.1574C219.894 81.3387 225.745 77.8686 231.74 73.8932C252.147 60.359 266.499 46.1129 263.796 42.0733C261.092 38.0338 242.356 45.7311 221.948 59.2655C216.19 63.0837 210.915 66.9589 206.369 70.6453C198.005 55.7221 190.602 38.7838 184.568 19.648C192.124 18.7318 201.414 16.8447 211.299 14.0704C234.901 7.44687 252.962 -1.71095 251.641 -6.38337C250.318 -11.0556 230.114 -9.47416 206.513 -2.85069C196.58 -0.0632943 187.631 3.17668 180.693 6.33841C177.345 -6.16249 174.561 -19.5263 172.438 -33.7963C179.878 -33.5076 189.001 -33.8402 198.802 -34.8856C223.183 -37.4861 242.527 -43.5072 242.01 -48.3343C241.492 -53.1612 221.309 -54.9657 196.929 -52.3652C186.981 -51.3041 177.872 -49.6727 170.608 -47.7861C169.371 -58.7648 168.766 -68.9268 168.729 -78.3302C170.88 -78.4638 173.092 -78.6478 175.346 -78.8882C195.393 -81.0265 211.224 -86.6733 210.707 -91.5003C210.19 -96.3273 193.519 -98.5071 173.472 -96.3688C172.082 -96.2205 170.713 -96.0536 169.367 -95.873C176.374 -183.566 239.484 -193.251 279.76 -189.484L276.846 -245.077L279.187 -245.6L303.282 -190.717C414.216 -211.787 445.57 -129.223 447.38 -85.307C447.571 -83.6514 447.751 -82.0053 447.923 -80.3687C427.369 -79.3363 411.357 -75.0725 411.497 -70.4839C411.64 -65.8232 428.396 -62.5268 449.434 -62.8838C450.748 -43.3923 450.692 -25.3515 449.51 -8.68166C446.316 -9.0359 443.017 -9.35435 439.641 -9.62346C410.257 -11.9653 386.119 -9.9405 385.727 -5.10132C385.336 -0.262126 408.838 5.55966 438.222 7.90157C441.502 8.163 444.717 8.36729 447.841 8.52205C445.548 27.0054 441.817 43.6294 437.047 58.5247C430.41 55.3001 422.739 51.9688 414.467 48.7917C386.97 38.2306 363.254 33.3405 361.495 37.8694C359.736 42.3985 380.602 54.632 408.099 65.1933C416.531 68.4318 424.608 71.136 431.805 73.2C424.512 91.6248 415.595 107.016 406.014 119.685C404.403 118.565 402.74 117.445 401.03 116.334C381.973 103.95 364.361 97.2064 361.692 101.271C359.024 105.336 372.309 118.671 391.366 131.055C392.475 131.775 393.579 132.477 394.676 133.158C377.527 151.457 359.519 162.031 345.589 166.487Z" fill="#005B56"/>
<path d="M5.30844 150.05C-9.68275 137.019 -24.5147 115.417 -33.3734 87.0209C-29.7303 86.4652 -25.9012 85.7611 -21.9673 84.9053C0.213309 80.0799 17.3371 72.3161 16.2802 67.5637C15.2225 62.8112 -3.61627 62.8705 -25.7974 67.6959C-29.9434 68.5979 -33.9127 69.6027 -37.6197 70.6711C-41.8703 50.3918 -43.072 27.3158 -39.5732 1.94637C-33.6924 3.32371 -26.9998 4.54353 -19.8677 5.47594C4.41348 8.65031 24.5912 7.31425 25.2013 2.49198C25.8108 -2.33046 6.6207 -8.81319 -17.6609 -11.9876C-24.5111 -12.8832 -31.0347 -13.4194 -36.8844 -13.62C-33.4063 -30.3699 -27.8808 -48.0101 -19.8802 -66.4106C-13.5768 -62.145 -5.32758 -57.4745 3.95318 -53.0828C26.111 -42.5976 45.7502 -37.6597 47.818 -42.0532C49.8854 -46.4469 33.5995 -58.5086 11.4419 -68.9937C2.11716 -73.4062 -6.76272 -76.8324 -14.0734 -78.9981C-8.39892 -90.6292 -1.73199 -102.541 6.0277 -114.704C11.4531 -109.605 18.5564 -103.871 26.6394 -98.2293C46.7458 -84.1969 65.2957 -76.0498 68.072 -80.0323C70.8477 -84.015 56.7992 -98.6182 36.6932 -112.65C28.4894 -118.376 20.5443 -123.121 13.8244 -126.463C20.0936 -135.56 26.3043 -143.626 32.4455 -150.747C34.1563 -149.437 35.9461 -148.125 37.8051 -146.827C54.3374 -135.289 69.9903 -129.164 72.7667 -133.147C75.543 -137.129 64.3918 -149.711 47.8595 -161.249C46.713 -162.049 45.5697 -162.822 44.4356 -163.568C107.255 -225.154 161.239 -191.059 189.164 -161.793L223.438 -205.662L225.548 -204.52L207.726 -147.292C305.272 -90.4148 274.768 -7.53243 247.323 26.7988C246.381 28.1735 245.437 29.5344 244.493 30.8823C228.303 18.1767 213.422 10.8898 210.517 14.4447C207.567 18.0563 218.051 31.537 234.162 45.0696C222.366 60.6421 210.488 74.2208 198.66 86.0264C196.482 83.6636 194.201 81.259 191.829 78.8407C171.189 57.7957 151.644 43.4881 148.174 46.8832C144.703 50.2784 158.621 70.0911 179.261 91.1362C181.565 93.4855 183.857 95.7489 186.113 97.915C172.257 110.36 158.534 120.459 145.162 128.571C142.269 121.783 138.665 114.237 134.507 106.412C120.683 80.4016 105.992 61.1516 101.694 63.4156C97.3951 65.6801 105.117 88.6019 118.94 114.612C123.179 122.588 127.501 129.928 131.578 136.207C113.986 145.328 97.1593 151.094 81.6166 154.369C81.1358 152.468 80.6154 150.531 80.0537 148.57C73.7958 126.722 64.9285 110.078 60.2473 111.395C55.5663 112.712 56.8444 131.492 63.1024 153.341C63.4666 154.612 63.8402 155.866 64.2207 157.099C39.273 159.659 18.7445 155.825 5.30844 150.05Z" fill="#008B84"/>
<ellipse cx="120.563" cy="867.94" rx="37.4761" ry="88.7023" fill="#A9E4F2"/>
<ellipse cx="158.225" cy="898.831" rx="24.4248" ry="57.811" fill="#A9E4F2"/>
<ellipse cx="236.121" cy="869.405" rx="44.3797" ry="106.706" fill="#A9E4F2"/>
<ellipse cx="280.501" cy="897.294" rx="44.3797" ry="106.706" fill="#A9E4F2"/>
<ellipse cx="320.342" cy="886.381" rx="44.3797" ry="106.706" fill="#A9E4F2"/>
<ellipse cx="191.994" cy="885.775" rx="34.0413" ry="81.8481" fill="#A9E4F2"/>
<ellipse cx="61.8337" cy="36.1852" rx="61.8337" ry="36.1852" transform="matrix(0.173841 0.984774 -0.699835 0.714304 2.4502 563.215)" fill="#A9E4F2"/>
<ellipse cx="61.8337" cy="36.1852" rx="61.8337" ry="36.1852" transform="matrix(0.173841 0.984774 -0.699835 0.714304 6.58057 630.863)" fill="#A9E4F2"/>
<ellipse cx="43.5647" cy="25.4941" rx="43.5647" ry="25.4941" transform="matrix(0.173841 0.984774 -0.699835 0.714304 13.1152 767.92)" fill="#A9E4F2"/>
<ellipse cx="61.8337" cy="36.1852" rx="61.8337" ry="36.1852" transform="matrix(0.173841 0.984774 -0.699835 0.714304 18.8208 682.884)" fill="#A9E4F2"/>
<ellipse cx="47.4293" cy="27.7557" rx="47.4293" ry="27.7557" transform="matrix(0.173841 0.984774 -0.699835 0.714304 -15.5181 526.84)" fill="#A9E4F2"/>
<ellipse cx="126.997" cy="61.0905" rx="126.997" ry="61.0905" transform="matrix(0.0657259 -0.997838 0.934521 0.355908 360.644 792.666)" fill="#A9E4F2"/>
<path d="M100.431 891.662C100.431 872.155 94.466 856.365 87.0971 856.365C87.0043 856.365 86.923 856.395 86.8302 856.395C87.1899 850.774 87.3872 844.998 87.3872 839.1C87.3872 782.791 70.143 737.141 48.8719 737.141C31.883 737.141 17.4702 766.264 12.3526 806.691C9.88088 804.356 7.21187 803.004 4.42679 803.004C-8.33814 803.004 -18.6777 829.7 -18.6777 862.601C-18.6777 876.886 -16.7282 889.972 -13.4789 900.263H100.013C100.28 897.499 100.431 894.611 100.431 891.631V891.662Z" fill="#0CA46D"/>
<path d="M100.431 891.662C100.431 872.155 94.466 856.365 87.0971 856.365C87.0043 856.365 86.923 856.395 86.8302 856.395C87.1899 850.774 87.3872 844.998 87.3872 839.1C87.3872 782.791 70.143 737.141 48.8719 737.141C31.883 737.141 17.4702 766.264 12.3526 806.691C9.88088 804.356 7.21187 803.004 4.42679 803.004C-8.33814 803.004 -18.6777 829.7 -18.6777 862.601C-18.6777 876.886 -16.7282 889.972 -13.4789 900.263H100.013C100.28 897.499 100.431 894.611 100.431 891.631V891.662Z" fill="#A9E4F2"/>
<path d="M450.878 895.025C450.878 876.327 444.913 861.192 437.545 861.192C437.452 861.192 437.371 861.222 437.278 861.222C437.637 855.833 437.835 850.297 437.835 844.644C437.835 790.67 420.59 746.914 399.319 746.914C382.33 746.914 367.918 774.828 362.8 813.579C360.328 811.341 357.659 810.045 354.874 810.045C342.109 810.045 331.77 835.633 331.77 867.17C331.77 880.862 333.719 893.406 336.969 903.27H450.46C450.727 900.62 450.878 897.852 450.878 894.996V895.025Z" fill="#0CA46D"/>
<path d="M450.878 895.025C450.878 876.327 444.913 861.192 437.545 861.192C437.452 861.192 437.371 861.222 437.278 861.222C437.637 855.833 437.835 850.297 437.835 844.644C437.835 790.67 420.59 746.914 399.319 746.914C382.33 746.914 367.918 774.828 362.8 813.579C360.328 811.341 357.659 810.045 354.874 810.045C342.109 810.045 331.77 835.633 331.77 867.17C331.77 880.862 333.719 893.406 336.969 903.27H450.46C450.727 900.62 450.878 897.852 450.878 894.996V895.025Z" fill="#A9E4F2"/>
<ellipse cx="118.728" cy="-60.9829" rx="128.62" ry="137.469" transform="rotate(177 118.728 -60.9829)" fill="#00AA86"/>
<ellipse cx="-11.5961" cy="-90.1316" rx="128.62" ry="137.469" transform="rotate(177 -11.5961 -90.1316)" fill="#00AA86"/>
<ellipse cx="-126.168" cy="-70.0484" rx="128.62" ry="137.469" transform="rotate(177 -126.168 -70.0484)" fill="#00AA86"/>
<ellipse cx="245.338" cy="-88.7362" rx="98.6574" ry="105.445" transform="rotate(177 245.338 -88.7362)" fill="#00AA86"/>
<ellipse cx="381.056" cy="-34.5" rx="132.358" ry="159.5" transform="rotate(-180 381.056 -34.5)" fill="#00AA86"/>
<ellipse cx="248.039" cy="-90.0472" rx="86.2631" ry="103.953" transform="rotate(-180 248.039 -90.0472)" fill="#00AA86"/>
<path d="M-21.6157 -265.318C-14.0461 -263.193 -4.9159 -258.228 5.94117 -250.466C16.6931 -242.779 28.4932 -232.827 41.4 -221.351C66.9272 -198.653 96.822 -169.913 129.184 -143.872C161.666 -117.736 197.595 -93.4864 236.237 -79.4221C273.848 -65.7327 319.912 -53.5018 366.675 -41.2237C413.664 -28.8862 461.448 -16.4789 503.312 -2.33531C545.417 11.8899 580.206 27.4567 601.908 45.554C612.651 54.513 619.613 63.6267 622.981 72.9227C626.268 81.992 626.448 92.0737 622.167 103.835C613.707 127.078 592.858 142.297 561.095 150.626C529.255 158.975 488.151 159.859 442.786 155.533C352.199 146.895 247.848 117.828 174.2 91.022C102.502 64.926 35.8812 7.67693 -7.8141 -56.8182C-51.8156 -121.765 -70.7303 -191.145 -52.2724 -241.858C-47.5925 -254.716 -42.4681 -261.063 -37.9606 -263.973C-33.8906 -266.601 -28.8709 -267.354 -21.6157 -265.318Z" stroke="#93642D" stroke-width="21"/>
<path d="M245.173 691.37C251.477 758.873 215.565 778.322 159.215 778.322C102.866 778.322 57.3701 741.092 57.3701 691.37C57.3701 641.649 93.4217 604.58 149.772 604.58C206.121 604.58 245.173 641.649 245.173 691.37Z" fill="#CAD8DF"/>
<path d="M122.292 836.517C119.402 832.199 114.149 830.646 108.812 830.249C97.4491 829.402 85.8211 833.891 80.7819 844.469C78.0054 850.298 75.2049 857.848 73.1845 867.26C70.5885 879.354 70.5679 887.347 71.3185 892.471C72.1536 898.17 77.3426 901.009 83.1026 901.697C84.4825 901.862 85.8804 901.92 87.2841 901.871L99.6483 901.442C115.94 900.876 129.419 891.694 129.843 875.5C129.915 872.725 129.924 869.656 129.85 866.267C129.511 850.721 125.694 841.599 122.292 836.517Z" fill="#CAD8DF"/>
<path d="M178.615 838.395C181.229 833.908 186.375 832.042 191.677 831.324C202.966 829.796 214.857 833.579 220.557 843.846C223.693 849.495 226.96 856.859 229.568 866.125C232.918 878.032 233.444 886.008 233.018 891.166C232.545 896.912 227.543 900.059 221.836 901.092C220.47 901.34 219.079 901.482 217.675 901.517L205.306 901.832C189.009 902.246 174.975 893.885 173.533 877.728C173.287 874.969 173.086 871.916 172.947 868.539C172.306 853.005 175.54 843.672 178.615 838.395Z" fill="#CAD8DF"/>
<path d="M60.4674 788.778C66.5273 751.2 102.361 727.755 140.424 727.755H156.555C198.762 727.755 237.567 756.669 239.943 798.809C240.124 802.01 240.214 805.088 240.193 807.981C240.164 811.992 239.936 816.29 239.564 820.727C236.326 859.27 202.805 887.447 164.141 888.528C160.475 888.63 156.929 888.69 153.594 888.694C147.175 888.701 139.903 888.496 132.458 888.17C98.41 886.683 67.6917 864.665 61.2566 831.198C59.7087 823.148 58.6978 815.147 58.6978 807.981C58.6978 802.12 59.3741 795.558 60.4674 788.778Z" fill="#CAD8DF"/>
<path d="M99.1651 797.882C103.17 785.009 111.863 774.183 125.049 771.369C131.472 769.998 139.84 768.851 150.608 768.4C156.035 768.173 161.127 768.264 165.858 768.58C192.528 770.362 210.589 793.643 212.484 820.305C212.717 823.586 212.845 826.716 212.822 829.537C212.809 831.126 212.684 832.807 212.467 834.554C208.846 863.693 178.479 879.78 149.115 879.78C120.33 879.78 94.196 859.241 93.2402 830.471C93.2174 829.784 93.2056 829.106 93.2056 828.44C93.2056 819.405 96.1151 807.686 99.1651 797.882Z" fill="#ECF3F5"/>
<path d="M209.992 608.581C202.4 611.824 195.702 623.691 197.759 635.032C199.816 646.374 229.184 695.475 243.028 712.359C256.872 729.242 277.911 714.194 294.315 705.761C310.718 697.329 297.396 673.659 276.213 646.477C255.03 619.295 219.481 604.528 209.992 608.581Z" fill="#CAD8DF"/>
<path d="M91.0053 598.209C98.5968 601.451 105.295 613.318 103.238 624.66C101.181 636.001 71.8133 685.103 57.9691 701.986C44.1248 718.869 23.0854 703.821 6.68213 695.389C-9.72121 686.956 3.60117 663.286 24.7839 636.104C45.9667 608.922 81.5159 594.156 91.0053 598.209Z" fill="#CAD8DF"/>
<ellipse cx="13.9668" cy="9.9394" rx="13.9668" ry="9.9394" transform="matrix(0.885124 0.465355 -0.482521 0.875884 112.088 681.078)" fill="#EEAEAE"/>
<path d="M143.419 720.557C146.673 717.884 168.742 716.688 179.369 716.424L191.861 732.007C192.325 737.538 187.996 748.275 166.969 746.979C140.685 745.359 139.352 723.897 143.419 720.557Z" fill="#D78484"/>
<path d="M183.932 741.457C182.384 746.264 170.912 746.393 159.54 744.138C149.467 741.042 144.248 736.192 145.796 731.385C147.345 726.578 158.423 724.05 168.497 727.146C178.57 730.243 185.481 736.65 183.932 741.457Z" fill="#EEAEAE"/>
<path d="M150.57 726.432C157.702 725.76 160.917 730.11 162.463 731.966" stroke="#D78484" stroke-width="8" stroke-linecap="round"/>
<path d="M95.9332 758.118C97.2078 753.452 95.2653 748.854 92.3608 744.984C86.236 736.822 76.2334 732.276 66.4993 735.955C60.2069 738.333 52.3357 742.117 43.3745 748.139C32.0873 755.723 26.0442 761.86 22.8134 766.171C19.6684 770.367 20.7061 775.618 23.6089 779.926C24.3478 781.022 25.1839 782.053 26.1076 783.006L33.7868 790.929C43.9124 801.375 58.0417 804.246 68.9364 794.375C71.6637 791.904 74.7259 788.968 78.1493 785.479C89.8655 773.539 94.2987 764.102 95.9332 758.118Z" fill="#CAD8DF"/>
<path d="M55.1659 799.154C57.0646 797.076 56.9264 793.986 55.1186 791.861C53.1738 789.575 49.7839 788.973 47.2705 790.691C46.6119 791.142 45.9821 791.599 45.4644 792.024C45.0246 792.385 44.5562 792.808 44.0891 793.253C41.874 795.363 41.8768 798.76 43.8382 801.065C45.6404 803.184 48.7065 803.918 51.1346 802.475C51.8728 802.036 52.59 801.563 53.1752 801.087C53.8162 800.567 54.5076 799.875 55.1659 799.154Z" fill="#ECF3F5"/>
<path d="M44.704 788.413C46.6027 786.335 46.4645 783.245 44.6567 781.12C42.7119 778.834 39.3219 778.232 36.8086 779.95C36.15 780.401 35.5201 780.858 35.0025 781.283C34.5627 781.644 34.0943 782.067 33.6272 782.512C31.412 784.622 31.4149 788.019 33.3763 790.324C35.1785 792.443 38.2446 793.177 40.6727 791.733C41.4109 791.295 42.1281 790.821 42.7133 790.346C43.3543 789.826 44.0457 789.133 44.704 788.413Z" fill="#ECF3F5"/>
<path d="M34.6195 777.902C36.5182 775.824 36.38 772.734 34.5722 770.609C32.6274 768.323 29.2375 767.721 26.7242 769.439C26.0655 769.89 25.4357 770.347 24.918 770.772C24.4782 771.133 24.0098 771.556 23.5427 772.001C21.3276 774.111 21.3304 777.508 23.2919 779.813C25.0941 781.932 28.1601 782.666 30.5882 781.223C31.3264 780.784 32.0436 780.311 32.6288 779.836C33.2698 779.315 33.9612 778.623 34.6195 777.902Z" fill="#ECF3F5"/>
<path d="M217.109 763.247C217.084 758.39 220.161 754.421 223.977 751.397C232.027 745.017 242.902 743.107 251.417 749.132C256.87 752.99 263.47 758.587 270.539 766.594C279.454 776.691 283.706 784.108 285.72 789.078C287.696 793.954 285.326 798.795 281.395 802.245C280.399 803.12 279.325 803.907 278.188 804.597L268.697 810.36C256.182 817.958 241.732 817.189 233.705 804.829C231.735 801.795 229.568 798.244 227.202 794.09C218.986 779.661 217.142 769.443 217.109 763.247Z" fill="#CAD8DF"/>
<path d="M245.895 813.043C244.586 810.546 245.519 807.581 247.819 805.974C250.296 804.244 253.743 804.512 255.741 806.817C256.252 807.406 256.733 807.994 257.117 808.524C257.441 808.973 257.777 809.486 258.107 810.02C259.717 812.629 258.837 815.929 256.339 817.674C254.045 819.276 250.881 819.22 248.895 817.205C248.303 816.604 247.741 815.977 247.304 815.379C246.824 814.724 246.34 813.894 245.895 813.043Z" fill="#ECF3F5"/>
<path d="M258.805 805.248C257.497 802.751 258.429 799.786 260.73 798.178C263.206 796.448 266.654 796.717 268.652 799.021C269.162 799.61 269.643 800.198 270.027 800.729C270.352 801.177 270.688 801.691 271.017 802.225C272.627 804.834 271.747 808.133 269.249 809.878C266.956 811.481 263.791 811.424 261.806 809.409C261.214 808.808 260.651 808.181 260.214 807.584C259.734 806.928 259.251 806.098 258.805 805.248Z" fill="#ECF3F5"/>
<path d="M271.29 797.582C269.982 795.084 270.914 792.119 273.215 790.512C275.691 788.782 279.139 789.05 281.137 791.355C281.647 791.944 282.128 792.532 282.512 793.062C282.837 793.511 283.173 794.024 283.502 794.559C285.112 797.168 284.232 800.467 281.734 802.212C279.441 803.814 276.276 803.758 274.291 801.743C273.699 801.142 273.136 800.515 272.699 799.917C272.219 799.262 271.736 798.432 271.29 797.582Z" fill="#ECF3F5"/>
<path d="M162.367 704.744C161.937 697.013 167.378 686.27 181.723 685.041C207.101 681.727 216.903 690.495 223.123 697.967C229.343 705.439 239.612 727.711 235.669 744.654C232.383 758.775 220.435 776.405 207.352 789.332C189.569 806.902 175.032 798.785 168.998 796.486C156.811 791.842 150.266 789.201 154.59 781.077C158.903 772.974 166.489 765.361 172.583 749.799C178.677 734.237 162.905 714.408 162.367 704.744Z" fill="#CAD8DF"/>
<path d="M212.49 634.077C264.584 679.458 244.012 736.345 235.053 752.228C224.338 771.225 211.495 783.346 200.379 794.529C189.263 805.712 152.931 795.664 152.931 785.94C152.931 776.215 173.171 763.736 174 746.556C174.83 729.376 168.194 724.514 164.71 711.386" stroke="#A4BDC8" stroke-width="4" stroke-linecap="round"/>
<path d="M216.969 721.699C212.324 718.782 200.545 717.486 192.416 721.699" stroke="#A4BDC8" stroke-width="3" stroke-linecap="round"/>
<path d="M216.969 711.651C212.324 708.734 200.545 707.437 192.416 711.651" stroke="#A4BDC8" stroke-width="3" stroke-linecap="round"/>
<ellipse cx="6.66469" cy="6.51351" rx="6.66469" ry="6.51351" transform="matrix(0.995763 0.0919556 -0.0963136 0.995351 153.522 673.452)" fill="#303030"/>
<ellipse cx="6.66469" cy="6.51351" rx="6.66469" ry="6.51351" transform="matrix(0.995763 0.0919556 -0.0963136 0.995351 153.522 673.452)" fill="#303030"/>
<ellipse cx="6.66469" cy="6.51351" rx="6.66469" ry="6.51351" transform="matrix(0.995763 0.0919556 -0.0963136 0.995351 153.522 673.452)" fill="#303030"/>
<ellipse cx="6.66469" cy="6.51351" rx="6.66469" ry="6.51351" transform="matrix(0.995763 0.0919556 -0.0963136 0.995351 194.332 671.506)" fill="#303030"/>
<ellipse cx="6.66469" cy="6.51351" rx="6.66469" ry="6.51351" transform="matrix(0.995763 0.0919556 -0.0963136 0.995351 194.332 671.506)" fill="#303030"/>
<ellipse cx="6.66469" cy="6.51351" rx="6.66469" ry="6.51351" transform="matrix(0.995763 0.0919556 -0.0963136 0.995351 194.332 671.506)" fill="#303030"/>
<path d="M239.864 812.357C235.882 806.901 227.919 794.303 227.919 787.56" stroke="#A4BDC8" stroke-width="5" stroke-linecap="round"/>
<path d="M59.0293 802.758C65.0921 799.624 77.9911 791.849 81.0845 785.822" stroke="#A4BDC8" stroke-width="5" stroke-linecap="round"/>
<path d="M58.6978 700.041C63.0112 692.856 71.8373 674.66 72.6336 659.361" stroke="#A4BDC8" stroke-width="4" stroke-linecap="round"/>
</g>
<defs>
<clipPath id="clip0_9010_8541">
<rect width="390" height="844" fill="white"/>
</clipPath>
<clipPath id="clip1_9010_8541">
<rect width="304.323" height="33.5576" fill="white" transform="translate(37.6978 197.121)"/>
</clipPath>
<clipPath id="clip2_9010_8541">
<rect width="17.1353" height="33.5576" fill="white" transform="translate(342.021 197.121)"/>
</clipPath>
<clipPath id="clip3_9010_8541">
<path d="M359.156 197.121H373.221C374.873 197.121 375.699 197.121 376.395 197.186C383.577 197.857 389.264 203.544 389.935 210.726C390 211.422 390 212.248 390 213.9C390 215.552 390 216.378 389.935 217.074C389.264 224.255 383.577 229.943 376.395 230.614C375.699 230.679 374.873 230.679 373.221 230.679H359.156V197.121Z" fill="white"/>
</clipPath>
</defs>
</svg>
