<svg width="390" height="844" viewBox="0 0 390 844" fill="none" xmlns="http://www.w3.org/2000/svg">
<g clip-path="url(#clip0_9010_8541)">
<rect width="390" height="844" fill="#81D4F6"/>
<path d="M29 235H364V628C364 650.091 346.091 668 324 668H69C46.9086 668 29 650.091 29 628V235Z" fill="white"/>
<path d="M69.2054 271.064C63.2706 271.064 58.4595 266.253 58.4595 260.318L58.4595 187.746C58.4595 181.811 63.2706 177 69.2054 177C75.1403 177 79.9514 181.811 79.9514 187.746V260.318C79.9514 266.253 75.1403 271.064 69.2054 271.064Z" fill="#525252"/>
<path d="M120.052 271.197C114.118 271.197 109.306 266.385 109.306 260.451L109.306 187.878C109.306 181.943 114.118 177.132 120.052 177.132C125.987 177.132 130.798 181.943 130.798 187.878V260.451C130.798 266.385 125.987 271.197 120.052 271.197Z" fill="#525252"/>
<path d="M170.899 271.197C164.964 271.197 160.153 266.385 160.153 260.451V187.878C160.153 181.943 164.964 177.132 170.899 177.132C176.834 177.132 181.645 181.943 181.645 187.878V260.451C181.645 266.385 176.834 271.197 170.899 271.197Z" fill="#525252"/>
<path d="M221.746 271.197C215.811 271.197 211 266.385 211 260.451V187.878C211 181.943 215.811 177.132 221.746 177.132C227.681 177.132 232.492 181.943 232.492 187.878V260.451C232.492 266.385 227.681 271.197 221.746 271.197Z" fill="#525252"/>
<path d="M272.593 271.197C266.658 271.197 261.847 266.385 261.847 260.451V187.878C261.847 181.943 266.658 177.132 272.593 177.132C278.527 177.132 283.339 181.943 283.339 187.878V260.451C283.339 266.385 278.527 271.197 272.593 271.197Z" fill="#525252"/>
<path d="M323.439 271.197C317.504 271.197 312.693 266.385 312.693 260.451V187.878C312.693 181.943 317.504 177.132 323.439 177.132C329.374 177.132 334.185 181.943 334.185 187.878V260.451C334.185 266.385 329.374 271.197 323.439 271.197Z" fill="#525252"/>
<path d="M345.589 166.487C325.726 166.488 300.36 159.916 275.045 144.296C277.43 141.487 279.858 138.443 282.265 135.217C295.84 117.023 303.669 99.9296 299.754 97.0362C295.838 94.1434 281.659 106.547 268.084 124.741C265.547 128.142 263.211 131.505 261.114 134.743C244.601 122.227 228.555 105.599 214.552 84.1574C219.894 81.3387 225.745 77.8686 231.74 73.8932C252.147 60.359 266.499 46.1129 263.796 42.0733C261.092 38.0338 242.356 45.7311 221.948 59.2655C216.19 63.0837 210.915 66.9589 206.369 70.6453C198.005 55.7221 190.602 38.7838 184.568 19.648C192.124 18.7318 201.414 16.8447 211.299 14.0704C234.901 7.44687 252.962 -1.71095 251.641 -6.38337C250.318 -11.0556 230.114 -9.47416 206.513 -2.85069C196.58 -0.0632943 187.631 3.17668 180.693 6.33841C177.345 -6.16249 174.561 -19.5263 172.438 -33.7963C179.878 -33.5076 189.001 -33.8402 198.802 -34.8856C223.183 -37.4861 242.527 -43.5072 242.01 -48.3343C241.492 -53.1612 221.309 -54.9657 196.929 -52.3652C186.981 -51.3041 177.872 -49.6727 170.608 -47.7861C169.371 -58.7648 168.766 -68.9268 168.729 -78.3302C170.88 -78.4638 173.092 -78.6478 175.346 -78.8882C195.393 -81.0265 211.224 -86.6733 210.707 -91.5003C210.19 -96.3273 193.519 -98.5071 173.472 -96.3688C172.082 -96.2205 170.713 -96.0536 169.367 -95.873C176.374 -183.566 239.484 -193.251 279.76 -189.484L276.846 -245.077L279.187 -245.6L303.282 -190.717C414.216 -211.787 445.57 -129.223 447.38 -85.307C447.571 -83.6514 447.751 -82.0053 447.923 -80.3687C427.369 -79.3363 411.357 -75.0725 411.497 -70.4839C411.64 -65.8232 428.396 -62.5268 449.434 -62.8838C450.748 -43.3923 450.692 -25.3515 449.51 -8.68166C446.316 -9.0359 443.017 -9.35435 439.641 -9.62346C410.257 -11.9653 386.119 -9.9405 385.727 -5.10132C385.336 -0.262126 408.838 5.55966 438.222 7.90157C441.502 8.163 444.717 8.36729 447.841 8.52205C445.548 27.0054 441.817 43.6294 437.047 58.5247C430.41 55.3001 422.739 51.9688 414.467 48.7917C386.97 38.2306 363.254 33.3405 361.495 37.8694C359.736 42.3985 380.602 54.632 408.099 65.1933C416.531 68.4318 424.608 71.136 431.805 73.2C424.512 91.6248 415.595 107.016 406.014 119.685C404.403 118.565 402.74 117.445 401.03 116.334C381.973 103.95 364.361 97.2064 361.692 101.271C359.024 105.336 372.309 118.671 391.366 131.055C392.475 131.775 393.579 132.477 394.676 133.158C377.527 151.457 359.519 162.031 345.589 166.487Z" fill="#005B56"/>
<path d="M5.30844 150.05C-9.68275 137.019 -24.5147 115.417 -33.3734 87.0209C-29.7303 86.4652 -25.9012 85.7611 -21.9673 84.9053C0.213309 80.0799 17.3371 72.3161 16.2802 67.5637C15.2225 62.8112 -3.61627 62.8705 -25.7974 67.6959C-29.9434 68.5979 -33.9127 69.6027 -37.6197 70.6711C-41.8703 50.3918 -43.072 27.3158 -39.5732 1.94637C-33.6924 3.32371 -26.9998 4.54353 -19.8677 5.47594C4.41348 8.65031 24.5912 7.31425 25.2013 2.49198C25.8108 -2.33046 6.6207 -8.81319 -17.6609 -11.9876C-24.5111 -12.8832 -31.0347 -13.4194 -36.8844 -13.62C-33.4063 -30.3699 -27.8808 -48.0101 -19.8802 -66.4106C-13.5768 -62.145 -5.32758 -57.4745 3.95318 -53.0828C26.111 -42.5976 45.7502 -37.6597 47.818 -42.0532C49.8854 -46.4469 33.5995 -58.5086 11.4419 -68.9937C2.11716 -73.4062 -6.76272 -76.8324 -14.0734 -78.9981C-8.39892 -90.6292 -1.73199 -102.541 6.0277 -114.704C11.4531 -109.605 18.5564 -103.871 26.6394 -98.2293C46.7458 -84.1969 65.2957 -76.0498 68.072 -80.0323C70.8477 -84.015 56.7992 -98.6182 36.6932 -112.65C28.4894 -118.376 20.5443 -123.121 13.8244 -126.463C20.0936 -135.56 26.3043 -143.626 32.4455 -150.747C34.1563 -149.437 35.9461 -148.125 37.8051 -146.827C54.3374 -135.289 69.9903 -129.164 72.7667 -133.147C75.543 -137.129 64.3918 -149.711 47.8595 -161.249C46.713 -162.049 45.5697 -162.822 44.4356 -163.568C107.255 -225.154 161.239 -191.059 189.164 -161.793L223.438 -205.662L225.548 -204.52L207.726 -147.292C305.272 -90.4148 274.768 -7.53243 247.323 26.7988C246.381 28.1735 245.437 29.5344 244.493 30.8823C228.303 18.1767 213.422 10.8898 210.517 14.4447C207.567 18.0563 218.051 31.537 234.162 45.0696C222.366 60.6421 210.488 74.2208 198.66 86.0264C196.482 83.6636 194.201 81.259 191.829 78.8407C171.189 57.7957 151.644 43.4881 148.174 46.8832C144.703 50.2784 158.621 70.0911 179.261 91.1362C181.565 93.4855 183.857 95.7489 186.113 97.915C172.257 110.36 158.534 120.459 145.162 128.571C142.269 121.783 138.665 114.237 134.507 106.412C120.683 80.4016 105.992 61.1516 101.694 63.4156C97.3951 65.6801 105.117 88.6019 118.94 114.612C123.179 122.588 127.501 129.928 131.578 136.207C113.986 145.328 97.1593 151.094 81.6166 154.369C81.1358 152.468 80.6154 150.531 80.0537 148.57C73.7958 126.722 64.9285 110.078 60.2473 111.395C55.5663 112.712 56.8444 131.492 63.1024 153.341C63.4666 154.612 63.8402 155.866 64.2207 157.099C39.273 159.659 18.7445 155.825 5.30844 150.05Z" fill="#008B84"/>
<ellipse cx="120.563" cy="867.94" rx="37.4761" ry="88.7023" fill="#A9E4F2"/>
<ellipse cx="158.225" cy="898.831" rx="24.4248" ry="57.811" fill="#A9E4F2"/>
<ellipse cx="236.121" cy="869.405" rx="44.3797" ry="106.706" fill="#A9E4F2"/>
<ellipse cx="280.501" cy="897.294" rx="44.3797" ry="106.706" fill="#A9E4F2"/>
<ellipse cx="320.342" cy="886.381" rx="44.3797" ry="106.706" fill="#A9E4F2"/>
<ellipse cx="191.994" cy="885.775" rx="34.0413" ry="81.8481" fill="#A9E4F2"/>
<ellipse cx="61.8337" cy="36.1852" rx="61.8337" ry="36.1852" transform="matrix(0.173841 0.984774 -0.699835 0.714304 2.4502 563.215)" fill="#A9E4F2"/>
<ellipse cx="61.8337" cy="36.1852" rx="61.8337" ry="36.1852" transform="matrix(0.173841 0.984774 -0.699835 0.714304 6.58057 630.863)" fill="#A9E4F2"/>
<ellipse cx="43.5647" cy="25.4941" rx="43.5647" ry="25.4941" transform="matrix(0.173841 0.984774 -0.699835 0.714304 13.1152 767.92)" fill="#A9E4F2"/>
<ellipse cx="61.8337" cy="36.1852" rx="61.8337" ry="36.1852" transform="matrix(0.173841 0.984774 -0.699835 0.714304 18.8208 682.884)" fill="#A9E4F2"/>
<ellipse cx="47.4293" cy="27.7557" rx="47.4293" ry="27.7557" transform="matrix(0.173841 0.984774 -0.699835 0.714304 -15.5181 526.84)" fill="#A9E4F2"/>
<ellipse cx="126.997" cy="61.0905" rx="126.997" ry="61.0905" transform="matrix(0.0657259 -0.997838 0.934521 0.355908 360.644 792.666)" fill="#A9E4F2"/>
<path d="M100.431 891.662C100.431 872.155 94.466 856.365 87.0971 856.365C87.0043 856.365 86.923 856.395 86.8302 856.395C87.1899 850.774 87.3872 844.998 87.3872 839.1C87.3872 782.791 70.143 737.141 48.8719 737.141C31.883 737.141 17.4702 766.264 12.3526 806.691C9.88088 804.356 7.21187 803.004 4.42679 803.004C-8.33814 803.004 -18.6777 829.7 -18.6777 862.601C-18.6777 876.886 -16.7282 889.972 -13.4789 900.263H100.013C100.28 897.499 100.431 894.611 100.431 891.631V891.662Z" fill="#0CA46D"/>
<path d="M100.431 891.662C100.431 872.155 94.466 856.365 87.0971 856.365C87.0043 856.365 86.923 856.395 86.8302 856.395C87.1899 850.774 87.3872 844.998 87.3872 839.1C87.3872 782.791 70.143 737.141 48.8719 737.141C31.883 737.141 17.4702 766.264 12.3526 806.691C9.88088 804.356 7.21187 803.004 4.42679 803.004C-8.33814 803.004 -18.6777 829.7 -18.6777 862.601C-18.6777 876.886 -16.7282 889.972 -13.4789 900.263H100.013C100.28 897.499 100.431 894.611 100.431 891.631V891.662Z" fill="#A9E4F2"/>
<path d="M450.878 895.025C450.878 876.327 444.913 861.192 437.545 861.192C437.452 861.192 437.371 861.222 437.278 861.222C437.637 855.833 437.835 850.297 437.835 844.644C437.835 790.67 420.59 746.914 399.319 746.914C382.33 746.914 367.918 774.828 362.8 813.579C360.328 811.341 357.659 810.045 354.874 810.045C342.109 810.045 331.77 835.633 331.77 867.17C331.77 880.862 333.719 893.406 336.969 903.27H450.46C450.727 900.62 450.878 897.852 450.878 894.996V895.025Z" fill="#0CA46D"/>
<path d="M450.878 895.025C450.878 876.327 444.913 861.192 437.545 861.192C437.452 861.192 437.371 861.222 437.278 861.222C437.637 855.833 437.835 850.297 437.835 844.644C437.835 790.67 420.59 746.914 399.319 746.914C382.33 746.914 367.918 774.828 362.8 813.579C360.328 811.341 357.659 810.045 354.874 810.045C342.109 810.045 331.77 835.633 331.77 867.17C331.77 880.862 333.719 893.406 336.969 903.27H450.46C450.727 900.62 450.878 897.852 450.878 894.996V895.025Z" fill="#A9E4F2"/>
<ellipse cx="118.728" cy="-60.9829" rx="128.62" ry="137.469" transform="rotate(177 118.728 -60.9829)" fill="#00AA86"/>
<ellipse cx="-11.5961" cy="-90.1316" rx="128.62" ry="137.469" transform="rotate(177 -11.5961 -90.1316)" fill="#00AA86"/>
<ellipse cx="-126.168" cy="-70.0484" rx="128.62" ry="137.469" transform="rotate(177 -126.168 -70.0484)" fill="#00AA86"/>
<ellipse cx="245.338" cy="-88.7362" rx="98.6574" ry="105.445" transform="rotate(177 245.338 -88.7362)" fill="#00AA86"/>
<ellipse cx="381.056" cy="-34.5" rx="132.358" ry="159.5" transform="rotate(-180 381.056 -34.5)" fill="#00AA86"/>
<ellipse cx="248.039" cy="-90.0472" rx="86.2631" ry="103.953" transform="rotate(-180 248.039 -90.0472)" fill="#00AA86"/>
<path d="M-21.6157 -265.318C-14.0461 -263.193 -4.9159 -258.228 5.94117 -250.466C16.6931 -242.779 28.4932 -232.827 41.4 -221.351C66.9272 -198.653 96.822 -169.913 129.184 -143.872C161.666 -117.736 197.595 -93.4864 236.237 -79.4221C273.848 -65.7327 319.912 -53.5018 366.675 -41.2237C413.664 -28.8862 461.448 -16.4789 503.312 -2.33531C545.417 11.8899 580.206 27.4567 601.908 45.554C612.651 54.513 619.613 63.6267 622.981 72.9227C626.268 81.992 626.448 92.0737 622.167 103.835C613.707 127.078 592.858 142.297 561.095 150.626C529.255 158.975 488.151 159.859 442.786 155.533C352.199 146.895 247.848 117.828 174.2 91.022C102.502 64.926 35.8812 7.67693 -7.8141 -56.8182C-51.8156 -121.765 -70.7303 -191.145 -52.2724 -241.858C-47.5925 -254.716 -42.4681 -261.063 -37.9606 -263.973C-33.8906 -266.601 -28.8709 -267.354 -21.6157 -265.318Z" stroke="#93642D" stroke-width="21"/>
</g>
<defs>
<clipPath id="clip0_9010_8541">
<rect width="390" height="844" fill="white"/>
</clipPath>
</defs>
</svg>
