<svg width="390" height="844" viewBox="0 0 390 844" fill="none" xmlns="http://www.w3.org/2000/svg">
<g clip-path="url(#clip0_9001_5813)">
<rect width="390" height="844" fill="#E0F9FE"/>
<path d="M456 129H503V531L567 814L389.5 829L456 129Z" fill="#B6EEFF"/>
<path d="M171 141H243V885H129L155 524.16L171 141Z" fill="#B6EEFF"/>
<path d="M75.1873 574.109C65.7887 595.227 42.7324 616.47 18.3563 596.908C-6.01985 577.345 10.7689 542.732 26.4268 532.866C42.0847 523.001 72.2159 503.316 85.1565 513.702C98.097 524.087 84.5859 552.991 75.1873 574.109Z" fill="#F8EBA6"/>
<path d="M55.3672 599.417C52.6815 603.406 36.5112 609.262 20.8329 598.578C5.15468 587.894 3.90255 571.785 6.58829 567.796C9.27402 563.808 28.0089 566.983 37.8488 573.609C47.6886 580.235 58.053 595.428 55.3672 599.417Z" fill="#E6984A"/>
<path d="M-12.8284 508.205C-19.0986 530.455 -38.8652 554.788 -65.7924 538.919C-92.7196 523.05 -81.073 486.382 -66.9947 474.373C-52.9163 462.364 -25.9254 438.56 -11.6306 446.984C2.66425 455.409 -6.55825 485.955 -12.8284 508.205Z" fill="#F8EBA6"/>
<path d="M107.374 534.71C84.7616 567.891 32.6796 571.79 -8.95472 543.417C-50.589 515.044 -66.0094 465.145 -43.3972 431.963C-20.7849 398.782 31.2972 394.884 72.9314 423.257C114.566 451.629 129.986 501.529 107.374 534.71Z" fill="#F8EBA6"/>
<path d="M42.5422 537.001C33.657 550.039 9.51458 557.543 -10.6158 543.824C-30.7463 530.106 -33.2081 504.472 -24.323 491.434C-15.4379 478.396 -3.05789 462.876 29.451 485.03C61.9599 507.184 51.4273 523.963 42.5422 537.001Z" fill="#FFFDD4"/>
<path d="M-33.9751 511.154C-31.6149 517.746 -23.2987 533.38 -8.91598 543.181C5.46674 552.983 22.4024 554.557 29.0724 554.119" stroke="#824D44" stroke-width="10" stroke-linecap="round"/>
<path d="M135.84 523.678C129.509 545.911 109.677 570.189 82.7926 554.247C55.9085 538.305 67.6547 501.669 81.7657 489.698C95.8766 477.728 122.932 453.997 137.204 462.46C151.476 470.924 142.171 501.445 135.84 523.678Z" fill="#F8EBA6"/>
<path d="M78.82 528.326C79.2535 522.927 80.3994 518.706 88.7822 510.587" stroke="#824D44" stroke-width="4" stroke-linecap="round"/>
<path d="M123.349 546.497C117.062 555.722 102.784 562.382 90.1879 557.581C77.5919 552.781 72.8392 548.641 76.7934 532.783C79.3513 524.452 88.0498 526.585 102.234 529.586C116.418 532.588 129.636 537.272 123.349 546.497Z" fill="#E6984A"/>
<path d="M-52.3054 400.161C-70.1442 414.862 -84.4527 442.756 -59.0827 461.012C-33.7126 479.268 -4.84373 453.838 0.477095 436.114C5.79792 418.391 16.7127 384.097 3.24452 374.406C-10.2237 364.714 -34.4667 385.46 -52.3054 400.161Z" fill="#F8EBA6"/>
<ellipse cx="84.5142" cy="406.081" rx="109.526" ry="92.7867" transform="rotate(34.2735 84.5142 406.081)" fill="#E6984A"/>
<path d="M149.138 450.121C137.599 485.082 83.5072 484.255 47.8169 459.933C12.1267 435.611 -10.4588 385.098 19.8922 362.043C50.2431 338.988 72.2831 323.717 118.965 355.53C165.647 387.342 160.676 415.159 149.138 450.121Z" fill="#F8EBA6"/>
<path d="M152.771 427.31C144.086 426.691 144.37 415.501 144.884 408.183C145.398 400.865 146.492 392.46 155.177 393.079C163.178 393.65 172.033 400.959 172.802 410.299C173.571 419.638 161.456 427.929 152.771 427.31Z" fill="#F8EBA6"/>
<path d="M38.1678 349.283C41.9204 357.14 52.2307 352.784 58.8535 349.629C65.4764 346.474 72.8992 342.382 69.1466 334.525C65.6894 327.286 55.6474 321.718 46.6741 324.419C37.7008 327.119 34.4152 341.427 38.1678 349.283Z" fill="#F8EBA6"/>
<ellipse cx="71.518" cy="392.76" rx="5.45151" ry="5.44535" transform="rotate(34.2735 71.518 392.76)" fill="#303030"/>
<ellipse cx="99.3671" cy="411.738" rx="5.45151" ry="5.44535" transform="rotate(34.2735 99.3671 411.738)" fill="#303030"/>
<path d="M73.2607 419.42L68.9858 425.693" stroke="#824D44" stroke-width="2" stroke-linecap="round"/>
<path d="M161.975 416.226C163.654 413.99 165.032 408.186 157.11 402.862" stroke="#824D44" stroke-width="3" stroke-linecap="round"/>
<path d="M48.7754 332.929C50.7961 331.292 56.0958 329.938 61.1287 337.614" stroke="#824D44" stroke-width="3" stroke-linecap="round"/>
<ellipse cx="75.0091" cy="416.577" rx="6.69685" ry="3.23675" transform="rotate(34.2735 75.0091 416.577)" fill="#E1767C"/>
<ellipse cx="66.8853" cy="429.305" rx="9.68596" ry="7.88885" transform="rotate(34.2735 66.8853 429.305)" fill="#E1767C"/>
<ellipse cx="65.1249" cy="431.888" rx="6.70567" ry="3.27462" transform="rotate(34.2735 65.1249 431.888)" fill="#EEAEAE"/>
<path d="M64.9648 427.095C65.674 427.819 67.03 429.727 66.7808 431.575" stroke="#E67C82" stroke-width="8" stroke-linecap="round"/>
<rect x="84" y="286.017" width="31.8581" height="100" transform="rotate(-58 84 286.017)" fill="#B6EEFF"/>
<rect x="90.1157" y="336.099" width="22.187" height="57.2166" transform="rotate(-106 90.1157 336.099)" fill="#B6EEFF"/>
<path d="M123.47 176.231C120.779 178.578 116.964 177.99 112.637 172.459C112.799 170.645 112.953 168.696 113.094 166.651C113.889 155.12 113.968 144.868 113.271 143.753C112.574 142.639 111.366 151.082 110.571 162.611C110.423 164.766 110.3 166.877 110.201 168.891C107.245 164.012 104.116 156.836 100.987 146.789C101.549 144.621 102.143 142.037 102.726 139.162C104.715 129.367 105.842 119.898 105.244 118.013C104.645 116.129 102.548 122.542 100.56 132.339C99.9988 135.102 99.5098 137.84 99.1053 140.389C97.1149 133.234 95.1387 124.866 93.2223 115.137C94.193 113.744 95.3432 111.617 96.5225 108.937C99.3403 102.534 101.262 95.4036 100.815 93.0105C100.367 90.6177 97.7201 93.8685 94.9023 100.271C93.7165 102.966 92.6918 105.79 91.9332 108.335C90.7618 101.91 89.6174 94.9473 88.5104 87.4124C89.5347 86.6905 90.7504 85.4304 92.0177 83.703C95.172 79.4033 97.4476 73.8328 97.1007 71.26C96.7535 68.6874 93.9152 70.0876 90.7607 74.3875C89.473 76.1428 88.3348 78.1113 87.4587 79.9999C86.6604 74.1536 85.9966 68.6778 85.4516 63.5497C85.7344 63.2236 86.0229 62.8621 86.3135 62.4659C88.9072 58.9304 90.7278 53.9785 90.3806 51.406C90.0332 48.8336 87.6489 49.6144 85.0553 53.1499C84.8753 53.3953 84.7003 53.6483 84.5282 53.906C80.443 5.2319 88.4381 -7.5109 94.1119 -10.2153L90.5254 -40.2045L90.8129 -40.7653L97.2295 -13.6676C111.052 -38.2725 120.041 3.07047 122.807 26.8179C122.928 27.6995 123.046 28.5774 123.163 29.4508C120.438 32.4428 118.513 36.66 118.796 39.1463C119.083 41.6724 121.542 41.4913 124.373 38.8105C125.67 49.2902 126.697 59.1404 127.494 68.3755C127.041 68.5595 126.576 68.7752 126.104 69.027C121.988 71.2215 118.833 75.1786 119.058 77.8653C119.283 80.5519 122.802 80.9506 126.918 78.7562C127.377 78.5115 127.824 78.2449 128.256 77.9606C129.006 88.3152 129.455 97.8256 129.664 106.516C128.579 105.541 127.349 104.631 126.046 103.875C121.714 101.362 118.22 101.496 118.242 104.175C118.263 106.853 121.792 111.062 126.125 113.576C127.453 114.346 128.703 114.867 129.796 115.143C129.866 126.06 129.542 135.512 128.971 143.558C128.688 143.136 128.4 142.72 128.104 142.315C124.81 137.81 122.037 136.211 121.908 138.745C121.78 141.278 124.346 146.984 127.639 151.489C127.831 151.751 128.021 152.003 128.208 152.245C126.935 164.256 125.102 172.153 123.47 176.231Z" fill="#005450"/>
<ellipse cx="421.397" cy="824" rx="119.877" ry="118" fill="#A9E4F2"/>
<ellipse cx="312.851" cy="885.055" rx="57.8513" ry="56.9453" fill="#A9E4F2"/>
<circle cx="-3.03659" cy="534.016" r="88" transform="rotate(67 -3.03659 534.016)" fill="#A9E4F2"/>
<circle cx="10.1758" cy="624.007" r="88" transform="rotate(67 10.1758 624.007)" fill="#A9E4F2"/>
<circle cx="44.8523" cy="772.242" r="62" transform="rotate(67 44.8523 772.242)" fill="#A9E4F2"/>
<circle cx="49.3282" cy="693.21" r="88" transform="rotate(67 49.3282 693.21)" fill="#A9E4F2"/>
<circle cx="-49.6528" cy="458.746" r="67.5" transform="rotate(67 -49.6528 458.746)" fill="#A9E4F2"/>
<path d="M417.063 628.074C418.173 606.714 412.227 589.069 403.772 588.63C403.665 588.624 403.57 588.653 403.464 588.648C404.196 582.513 404.751 576.201 405.086 569.743C408.288 508.085 391.098 457.073 366.693 455.806C347.2 454.793 329.008 485.823 320.837 529.785C318.134 527.081 315.148 525.442 311.953 525.276C297.307 524.516 283.926 553.131 282.055 589.156C281.243 604.798 282.736 619.243 285.879 630.706L416.095 637.467C416.559 634.456 416.896 631.303 417.065 628.04L417.063 628.074Z" fill="#0CA46D"/>
<path d="M417.063 628.074C418.173 606.714 412.227 589.069 403.772 588.63C403.665 588.624 403.57 588.653 403.464 588.648C404.196 582.513 404.751 576.201 405.086 569.743C408.288 508.085 391.098 457.073 366.693 455.806C347.2 454.793 329.008 485.823 320.837 529.785C318.134 527.081 315.148 525.442 311.953 525.276C297.307 524.516 283.926 553.131 282.055 589.156C281.243 604.798 282.736 619.243 285.879 630.706L416.095 637.467C416.559 634.456 416.896 631.303 417.065 628.04L417.063 628.074Z" fill="#A9E4F2"/>
<path d="M378.13 715.602C379.193 695.128 373.21 678.201 364.755 677.762C364.648 677.756 364.553 677.783 364.447 677.778C365.166 671.899 365.707 665.849 366.029 659.659C369.097 600.558 351.8 551.619 327.394 550.352C307.902 549.339 289.778 579.047 281.703 621.173C278.994 618.575 276.005 616.997 272.81 616.831C258.164 616.071 244.846 643.473 243.053 678.005C242.274 692.998 243.798 706.849 246.965 717.844L377.181 724.605C377.638 721.719 377.969 718.698 378.131 715.57L378.13 715.602Z" fill="#0CA46D"/>
<path d="M378.13 715.602C379.193 695.128 373.21 678.201 364.755 677.762C364.648 677.756 364.553 677.783 364.447 677.778C365.166 671.899 365.707 665.849 366.029 659.659C369.097 600.558 351.8 551.619 327.394 550.352C307.902 549.339 289.778 579.047 281.703 621.173C278.994 618.575 276.005 616.997 272.81 616.831C258.164 616.071 244.846 643.473 243.053 678.005C242.274 692.998 243.798 706.849 246.965 717.844L377.181 724.605C377.638 721.719 377.969 718.698 378.131 715.57L378.13 715.602Z" fill="#A9E4F2"/>
<path d="M442.063 619.074C443.173 597.714 437.227 580.069 428.772 579.63C428.665 579.624 428.57 579.653 428.464 579.648C429.196 573.513 429.751 567.201 430.086 560.743C433.288 499.085 416.098 448.073 391.693 446.806C372.2 445.793 354.008 476.823 345.837 520.785C343.134 518.081 340.148 516.442 336.953 516.276C322.307 515.516 308.926 544.131 307.055 580.156C306.243 595.798 307.736 610.243 310.879 621.706L441.095 628.467C441.559 625.456 441.896 622.303 442.065 619.04L442.063 619.074Z" fill="#0CA46D"/>
<path d="M442.063 619.074C443.173 597.714 437.227 580.069 428.772 579.63C428.665 579.624 428.57 579.653 428.464 579.648C429.196 573.513 429.751 567.201 430.086 560.743C433.288 499.085 416.098 448.073 391.693 446.806C372.2 445.793 354.008 476.823 345.837 520.785C343.134 518.081 340.148 516.442 336.953 516.276C322.307 515.516 308.926 544.131 307.055 580.156C306.243 595.798 307.736 610.243 310.879 621.706L441.095 628.467C441.559 625.456 441.896 622.303 442.065 619.04L442.063 619.074Z" fill="#A9E4F2"/>
<path d="M403.13 706.602C404.193 686.128 398.21 669.201 389.755 668.762C389.648 668.756 389.553 668.783 389.447 668.778C390.166 662.899 390.707 656.849 391.029 650.659C394.097 591.558 376.8 542.619 352.394 541.352C332.902 540.339 314.778 570.047 306.703 612.173C303.994 609.575 301.005 607.997 297.81 607.831C283.164 607.071 269.846 634.473 268.053 669.005C267.274 683.998 268.798 697.849 271.965 708.844L402.181 715.605C402.638 712.719 402.969 709.698 403.131 706.57L403.13 706.602Z" fill="#0CA46D"/>
<path d="M403.13 706.602C404.193 686.128 398.21 669.201 389.755 668.762C389.648 668.756 389.553 668.783 389.447 668.778C390.166 662.899 390.707 656.849 391.029 650.659C394.097 591.558 376.8 542.619 352.394 541.352C332.902 540.339 314.778 570.047 306.703 612.173C303.994 609.575 301.005 607.997 297.81 607.831C283.164 607.071 269.846 634.473 268.053 669.005C267.274 683.998 268.798 697.849 271.965 708.844L402.181 715.605C402.638 712.719 402.969 709.698 403.131 706.57L403.13 706.602Z" fill="#A9E4F2"/>
<path d="M927 968C927 1133.13 349.704 1267 148.789 1267C-52.1262 1267 -215 1133.13 -215 968C-215 802.867 -52.1262 669 148.789 669C349.704 669 927 802.867 927 968Z" fill="#00886C"/>
<path d="M377.65 288.904C370.463 288.999 361.38 283.699 352.447 270.934C353.35 268.605 354.273 266.082 355.191 263.409C360.367 248.335 363.448 234.195 362.073 231.827C360.698 229.459 355.387 239.759 350.211 254.833C349.244 257.651 348.35 260.437 347.545 263.119C341.751 252.872 336.187 239.231 331.431 221.608C333.405 219.257 335.573 216.366 337.799 213.059C345.38 201.796 350.78 189.975 349.86 186.655C348.941 183.335 342.049 189.775 334.468 201.038C332.33 204.214 330.365 207.436 328.667 210.498C325.857 198.227 323.425 184.289 321.519 168.532C324.266 167.74 327.655 166.139 331.271 163.803C339.907 158.227 346.575 150.585 346.165 146.737C345.754 142.889 338.42 144.29 329.784 149.867C326.15 152.214 322.866 154.928 320.309 157.57C319.279 147.273 318.466 136.262 317.905 124.501C320.593 124.703 323.898 124.385 327.46 123.476C336.319 121.214 343.406 116.155 343.289 112.175C343.172 108.195 335.895 106.802 327.036 109.063C323.421 109.986 320.101 111.376 317.446 112.967C317.157 103.916 317.087 95.5346 317.21 87.7769C317.99 87.6565 318.793 87.4943 319.611 87.2854C326.896 85.4257 332.707 80.6924 332.59 76.7127C332.472 72.733 326.471 71.0141 319.187 72.8738C318.681 73.0027 318.184 73.1476 317.694 73.303C321.503 0.924438 344.479 -7.36594 358.997 -4.45049L358.75 -50.3011L359.605 -50.743L367.527 -5.58009C407.973 -23.4916 418.119 44.4722 418.137 80.6931C418.182 82.0584 418.223 83.4159 418.261 84.7655C410.809 85.7153 404.953 89.3086 404.938 93.0933C404.922 96.9376 410.937 99.5768 418.554 99.182C418.747 115.255 418.464 130.139 417.795 143.896C416.644 143.619 415.456 143.373 414.238 143.167C403.64 141.375 394.876 143.161 394.664 147.155C394.452 151.149 402.871 155.84 413.47 157.632C414.653 157.832 415.814 157.985 416.942 158.098C415.844 173.357 414.252 187.09 412.31 199.401C409.956 196.772 407.229 194.061 404.281 191.479C394.485 182.898 385.974 178.976 385.272 182.721C384.57 186.466 391.943 196.458 401.739 205.04C404.743 207.672 407.627 209.864 410.201 211.533C407.295 226.768 403.844 239.507 400.193 250.005C399.627 249.089 399.042 248.173 398.439 247.264C391.723 237.138 385.448 231.659 384.424 235.026C383.399 238.392 388.012 249.329 394.728 259.454C395.119 260.044 395.51 260.617 395.897 261.174C389.426 276.352 382.755 285.161 377.65 288.904Z" fill="#005B56"/>
<path d="M43.3578 303.346C33.9628 307.089 20.9423 306.504 6.53548 298.527C7.22578 295.785 7.90003 292.843 8.53603 289.757C12.1227 272.349 13.163 256.921 10.8601 255.298C8.5571 253.675 3.78259 266.471 0.196038 283.879C-0.474389 287.132 -1.05474 290.317 -1.54204 293.356C-11.3023 286.252 -21.4821 275.705 -31.4458 260.843C-29.3583 257.535 -27.1315 253.6 -24.9156 249.226C-17.3709 234.334 -12.8011 220.001 -14.7092 217.214C-16.6175 214.427 -24.2804 224.24 -31.8249 239.132C-33.953 243.333 -35.8432 247.49 -37.4193 251.355C-43.6998 240.751 -49.8401 228.322 -55.6747 213.841C-52.244 211.669 -48.1445 208.377 -43.9016 204.251C-33.7703 194.397 -26.6536 183.52 -28.0061 179.956C-29.3591 176.391 -38.6697 181.489 -48.8013 191.343C-53.065 195.489 -56.7926 199.82 -59.5818 203.708C-63.1126 194.136 -66.5106 183.754 -69.7375 172.507C-66.1738 171.341 -61.9109 169.35 -57.4382 166.65C-46.3115 159.933 -38.0992 151.373 -39.0958 147.53C-40.0925 143.688 -49.9205 146.019 -61.0472 152.736C-65.5873 155.476 -69.6414 158.525 -72.7834 161.433C-75.0786 152.706 -76.947 144.525 -78.4292 136.857C-77.4332 136.342 -76.4154 135.776 -75.387 135.155C-66.2381 129.632 -59.63 122.04 -60.6267 118.198C-61.6235 114.356 -69.8473 115.718 -78.996 121.241C-79.6307 121.624 -80.2521 122.019 -80.8607 122.421C-91.2064 49.526 -62.8648 29.7282 -43.228 25.2126L-53.2656 -19.6134L-52.2394 -20.4813L-32.2941 19.7733C16.8947 -18.3294 44.5855 43.1497 52.2824 78.6522C52.6305 79.9679 52.9725 81.2779 53.3088 82.5816C43.7481 87.2976 36.8386 93.7947 37.6198 97.5132C38.4135 101.29 46.8523 100.823 56.7475 96.5674C60.405 112.228 63.1883 126.963 65.2258 140.792C63.6602 141.104 62.0504 141.467 60.4117 141.884C46.1491 145.509 35.0476 151.71 35.6152 155.733C36.1836 159.757 48.2069 160.08 62.47 156.454C64.0626 156.049 65.6155 155.61 67.1174 155.147C68.912 170.665 69.7358 184.937 69.7997 197.993C66.1584 196.612 62.0116 195.339 57.6039 194.304C42.9531 190.866 30.9743 191.344 30.8476 195.372C30.7213 199.4 42.4958 205.453 57.147 208.891C61.6397 209.946 65.8813 210.63 69.6069 210.959C69.0273 227.371 67.2068 241.613 64.6484 253.759C63.7123 253.149 62.7512 252.548 61.7688 251.963C50.8265 245.447 41.4461 243.262 40.8164 247.083C40.1874 250.903 48.548 259.284 59.4905 265.8C60.1273 266.179 60.76 266.542 61.3848 266.892C56.1235 285.059 49.2523 297.084 43.3578 303.346Z" fill="#008B84"/>
<path d="M-76.7578 -58.3848C-71.2063 -58.9458 -63.398 -57.4993 -52.9111 -53.5947C-42.6084 -49.7587 -30.789 -43.9706 -17.5479 -36.9463C8.50338 -23.1264 40.059 -4.46749 72.6436 10.3818C105.358 25.2902 140.684 37.1553 175.5 37.1553C208.855 37.1553 248.321 32.4108 288.026 27.4971C328.045 22.5447 368.437 17.4014 404.703 16.2734C441.25 15.1368 471.861 18.1791 493.02 28.3779C503.371 33.3673 511.183 39.9407 516.477 48.3984C521.773 56.8622 525 67.9368 525 82.6562C525 140.354 474.213 179.93 400.935 205.363C328.694 230.437 239.952 239.656 175.5 239.656C113.87 239.656 46.7246 206.079 -5.32715 155.735C-57.3948 105.376 -92.4998 40.0518 -92.5 -21.3438C-92.5 -36.9549 -90.2261 -46.2648 -87.2441 -51.5264C-84.6969 -56.0207 -81.4961 -57.9058 -76.7578 -58.3848Z" stroke="#93642D" stroke-width="21"/>
<path d="M58 -85.5C124.651 -85.5 184.607 -64.7656 227.679 -31.7266C270.74 1.30454 296.5 46.2017 296.5 95C296.5 143.798 270.74 188.695 227.679 221.727C184.607 254.766 124.651 275.5 58 275.5C-8.65108 275.5 -68.6067 254.766 -111.679 221.727C-154.74 188.695 -180.5 143.798 -180.5 95C-180.5 46.2017 -154.74 1.30454 -111.679 -31.7266C-68.6067 -64.7656 -8.65108 -85.5 58 -85.5Z" stroke="#714D22" stroke-width="21"/>
<ellipse cx="287.947" cy="83.8668" rx="109.05" ry="116.553" transform="rotate(177 287.947 83.8668)" fill="#00AA86"/>
<ellipse cx="177.452" cy="59.1531" rx="109.05" ry="116.553" transform="rotate(177 177.452 59.1531)" fill="#00AA86"/>
<ellipse cx="-9.97693" cy="34.4925" rx="76.8309" ry="82.1169" transform="rotate(177 -9.97693 34.4925)" fill="#00AA86"/>
<ellipse cx="80.3126" cy="76.1805" rx="109.05" ry="116.553" transform="rotate(177 80.3126 76.1805)" fill="#00AA86"/>
<ellipse cx="395.294" cy="60.3361" rx="83.6466" ry="89.4014" transform="rotate(177 395.294 60.3361)" fill="#00AA86"/>
<path d="M123.119 817.731C147.991 820.016 152.322 877.778 157.492 901.747L160.322 901.608C163.373 839.591 189.483 825.794 196.825 819.537C235.593 786.5 230.977 766.72 225.741 761.905C204.659 746.728 181.922 786.96 174.963 809.727C170.763 763.19 181.771 737.69 187.801 730.757C202.683 713.171 227 675.89 205.212 667.458C183.424 659.026 168.42 697.572 163.642 717.899C151.275 704.916 149.031 663.307 164.954 642.836C191.901 608.192 189.598 599.573 182.714 596C163.698 583.566 139.407 620.668 129.639 640.773C140.59 606.237 144.425 548.389 115.242 551.264C81.8526 554.553 99.6149 617.998 115.427 644.315C100.23 629.481 66.7566 604.048 54.4355 620.979C39.0341 642.143 79.3326 647.618 108.475 663.89C131.789 676.908 141.664 702.6 143.688 713.82C117.946 687.339 97.6673 691.15 93.0529 694.627C69.9813 712.013 96.8267 725.237 129.025 748.764C154.783 767.586 156.547 804.489 154.209 820.587C119 768.743 75.9989 761.601 63.7061 774.09C36.3899 801.843 92.0288 814.875 123.119 817.731Z" fill="#005B56"/>
<path d="M255.902 721.657C259.71 708.284 272.263 684.297 292.009 695.333C316.693 709.13 304.93 734.439 294.502 749.856C301.12 758.551 305.076 781.607 267.96 804.275C273.424 815.336 277.016 839.855 247.675 849.445C250.341 862.266 245.619 889.916 205.403 897.95C175.393 903.944 164.96 906.636 162.635 907.636L162.625 908.132C161.991 908.12 161.844 907.976 162.635 907.636L163.652 854.741C162.096 844.414 163.498 819.753 181.555 803.723C185.048 800.935 192.294 792.676 193.342 781.94C194.652 768.521 201.42 765.378 212.17 762.42C220.77 760.054 228.415 741.835 231.163 733.022C233.773 726.875 242.376 715.996 255.902 721.657Z" fill="#9AC983"/>
<g style="mix-blend-mode:multiply">
<path fill-rule="evenodd" clip-rule="evenodd" d="M276.158 707.728C277.599 707.831 278.679 709.088 278.569 710.536L278.141 716.185C278.031 717.633 276.773 718.724 275.332 718.622C273.89 718.52 272.811 717.263 272.92 715.814L273.349 710.165C273.459 708.717 274.716 707.626 276.158 707.728ZM297.85 721.67C298.465 722.98 297.903 724.549 296.595 725.174L290.528 728.073C289.219 728.698 287.66 728.142 287.045 726.832C286.43 725.521 286.992 723.952 288.3 723.327L294.367 720.428C295.676 719.803 297.235 720.359 297.85 721.67ZM285.377 716.718C286.6 717.486 286.966 719.107 286.195 720.339L180.617 889.1C179.846 890.332 178.229 890.709 177.007 889.941C175.784 889.174 175.417 887.552 176.188 886.32L281.766 717.56C282.537 716.327 284.154 715.95 285.377 716.718ZM264.56 717.833C265.954 717.437 267.396 718.25 267.782 719.647L269.464 725.739C269.849 727.137 269.033 728.589 267.639 728.985C266.246 729.38 264.804 728.567 264.418 727.17L262.736 721.078C262.35 719.681 263.167 718.228 264.56 717.833ZM292.017 737.878C292.424 739.269 291.63 740.734 290.242 741.15L282.065 743.605C280.677 744.022 279.223 743.232 278.816 741.841C278.409 740.45 279.203 738.985 280.591 738.568L288.768 736.113C290.156 735.697 291.61 736.487 292.017 737.878ZM255.563 728.042C256.965 727.681 258.387 728.528 258.738 729.935L260.907 738.608C261.259 740.014 260.407 741.447 259.005 741.808C257.602 742.169 256.181 741.321 255.829 739.915L253.66 731.242C253.309 729.835 254.16 728.403 255.563 728.042ZM282.82 753.531C283.089 754.956 282.155 756.336 280.735 756.614L273.019 758.122C271.598 758.4 270.229 757.47 269.96 756.045C269.691 754.62 270.625 753.239 272.046 752.962L279.762 751.453C281.182 751.175 282.552 752.105 282.82 753.531ZM246.066 742.741C247.469 742.38 248.891 743.228 249.242 744.634L251.411 753.307C251.763 754.713 250.911 756.146 249.509 756.507C248.106 756.868 246.684 756.02 246.333 754.614L244.164 745.941C243.812 744.535 244.664 743.102 246.066 742.741ZM274.937 768.313C275.278 769.722 274.415 771.148 273.01 771.498L265.063 773.48C263.659 773.83 262.243 772.972 261.902 771.563C261.561 770.154 262.423 768.728 263.828 768.378L271.775 766.396C273.18 766.045 274.595 766.904 274.937 768.313ZM235.419 757.45C236.824 757.1 238.239 757.958 238.58 759.367L240.51 767.338C240.851 768.747 239.989 770.173 238.584 770.523C237.179 770.874 235.763 770.016 235.422 768.606L233.493 760.636C233.152 759.227 234.014 757.801 235.419 757.45ZM267.382 783.226C267.462 784.675 266.358 785.922 264.914 786.011L255.318 786.603C253.875 786.692 252.639 785.59 252.559 784.14C252.478 782.691 253.583 781.444 255.026 781.355L264.622 780.763C266.065 780.674 267.301 781.777 267.382 783.226ZM226.009 768.182C227.396 767.766 228.851 768.556 229.258 769.947L231.657 778.146C232.064 779.537 231.27 781.003 229.883 781.419C228.495 781.835 227.041 781.045 226.634 779.655L224.234 771.455C223.827 770.064 224.622 768.599 226.009 768.182ZM255.755 799.519C256.009 800.947 255.06 802.318 253.637 802.58L244.049 804.347C242.626 804.61 241.267 803.665 241.013 802.237C240.76 800.809 241.708 799.438 243.132 799.176L252.719 797.409C254.143 797.146 255.502 798.091 255.755 799.519ZM216.408 782.143C217.815 781.801 219.225 782.667 219.558 784.078L222.214 795.331C222.546 796.743 221.676 798.164 220.269 798.506C218.862 798.848 217.452 797.982 217.119 796.57L214.464 785.317C214.131 783.906 215.001 782.485 216.408 782.143ZM207.214 796.352C208.63 796.05 210.015 796.956 210.309 798.376L212.733 810.102C213.027 811.522 212.117 812.919 210.702 813.221C209.286 813.524 207.9 812.618 207.607 811.198L205.182 799.472C204.889 798.052 205.798 796.655 207.214 796.352ZM245.325 816.052C245.611 817.474 244.694 818.866 243.277 819.161L234.86 820.913C233.443 821.208 232.062 820.295 231.776 818.873C231.49 817.452 232.407 816.06 233.824 815.765L242.241 814.012C243.658 813.717 245.039 814.631 245.325 816.052ZM238.207 832.073C238.397 833.511 237.389 834.838 235.955 835.036L226.599 836.33C225.165 836.529 223.85 835.523 223.66 834.085C223.471 832.647 224.479 831.32 225.912 831.122L235.269 829.827C236.702 829.629 238.018 830.634 238.207 832.073ZM200.149 814.9C201.499 814.373 203.013 815.042 203.53 816.395L207.109 825.756C207.626 827.109 206.951 828.633 205.601 829.16C204.251 829.686 202.737 829.017 202.22 827.664L198.641 818.303C198.124 816.95 198.799 815.426 200.149 814.9ZM190.727 827.214C192.096 826.737 193.583 827.463 194.05 828.835L197.876 840.073C198.343 841.445 197.612 842.943 196.244 843.419C194.876 843.896 193.388 843.17 192.921 841.799L189.095 830.56C188.629 829.189 189.359 827.69 190.727 827.214ZM225.387 847.243C225.728 848.653 224.866 850.079 223.461 850.429L215.514 852.411C214.109 852.761 212.694 851.903 212.352 850.494C212.011 849.085 212.874 847.659 214.279 847.308L222.226 845.327C223.631 844.976 225.046 845.834 225.387 847.243ZM182.56 839.915C183.985 839.663 185.337 840.618 185.58 842.047L187.535 853.545C187.778 854.975 186.82 856.338 185.395 856.59C183.969 856.842 182.617 855.887 182.374 854.457L180.42 842.96C180.176 841.53 181.135 840.167 182.56 839.915ZM216.183 864.051C216.398 865.485 215.413 866.829 213.983 867.053L205.797 868.332C204.367 868.556 203.034 867.574 202.82 866.139C202.605 864.704 203.59 863.36 205.02 863.137L213.206 861.857C214.636 861.634 215.969 862.616 216.183 864.051ZM175.881 859.729C177.321 859.851 178.384 861.122 178.255 862.569C177.778 867.913 179.135 872.849 179.803 874.488C180.35 875.829 179.708 877.367 178.369 877.924C177.031 878.48 175.503 877.843 174.956 876.502C174.035 874.242 172.476 868.462 173.04 862.129C173.169 860.682 174.441 859.608 175.881 859.729ZM209.256 879.352C209.509 880.78 208.561 882.15 207.138 882.413L197.55 884.18C196.127 884.443 194.768 883.498 194.514 882.07C194.261 880.642 195.209 879.271 196.632 879.009L206.22 877.241C207.643 876.979 209.003 877.924 209.256 879.352Z" fill="#9AC983"/>
</g>
</g>
<defs>
<clipPath id="clip0_9001_5813">
<rect width="390" height="844" fill="white"/>
</clipPath>
</defs>
</svg>
