<svg width="390" height="844" viewBox="0 0 390 844" fill="none" xmlns="http://www.w3.org/2000/svg">
<g clip-path="url(#clip0_9001_5671)">
<rect width="390" height="844" fill="#E0F9FE"/>
<path d="M456 129H503V531L567 814L389.5 829L456 129Z" fill="#B6EEFF"/>
<path d="M171 141H243V885H129L155 524.16L171 141Z" fill="#B6EEFF"/>
<rect x="84" y="286.017" width="31.8581" height="100" transform="rotate(-58 84 286.017)" fill="#B6EEFF"/>
<rect x="90.1157" y="336.099" width="22.187" height="57.2166" transform="rotate(-106 90.1157 336.099)" fill="#B6EEFF"/>
<path d="M377.651 288.904C370.464 288.999 361.381 283.699 352.447 270.934C353.351 268.605 354.273 266.082 355.191 263.409C360.367 248.335 363.449 234.195 362.074 231.827C360.699 229.459 355.388 239.759 350.212 254.833C349.244 257.651 348.351 260.437 347.545 263.118C341.752 252.871 336.187 239.23 331.432 221.608C333.405 219.257 335.572 216.366 337.799 213.059C345.379 201.796 350.78 189.975 349.86 186.655C348.94 183.335 342.05 189.775 334.469 201.038C332.33 204.215 330.366 207.437 328.668 210.5C325.858 198.228 323.426 184.29 321.52 168.532C324.267 167.74 327.655 166.139 331.271 163.803C339.908 158.227 346.576 150.585 346.165 146.737C345.754 142.889 338.421 144.29 329.785 149.867C326.15 152.214 322.866 154.929 320.309 157.571C319.279 147.274 318.466 136.263 317.905 124.501C320.593 124.703 323.899 124.385 327.46 123.476C336.32 121.214 343.407 116.155 343.29 112.175C343.173 108.195 335.895 106.802 327.036 109.063C323.421 109.986 320.102 111.376 317.446 112.967C317.158 103.916 317.088 95.5345 317.211 87.7769C317.99 87.6564 318.793 87.4943 319.611 87.2854C326.896 85.4258 332.706 80.6925 332.589 76.7127C332.472 72.733 326.472 71.0142 319.187 72.8737C318.682 73.0027 318.185 73.1476 317.695 73.303C321.503 0.9244 344.479 -7.36597 358.998 -4.45052L358.75 -50.3012L359.605 -50.743L367.527 -5.58007C407.973 -23.4922 418.119 44.4721 418.137 80.6932C418.181 82.0584 418.223 83.4158 418.262 84.7654C410.81 85.7152 404.954 89.3085 404.938 93.0933C404.923 96.9376 410.937 99.5769 418.555 99.1819C418.747 115.256 418.465 130.139 417.795 143.897C416.645 143.62 415.457 143.373 414.239 143.167C403.64 141.375 394.877 143.161 394.665 147.155C394.453 151.149 402.872 155.84 413.47 157.632C414.654 157.832 415.815 157.985 416.943 158.098C415.845 173.357 414.253 187.089 412.311 199.4C409.956 196.771 407.229 194.061 404.282 191.479C394.486 182.898 385.975 178.976 385.273 182.721C384.571 186.466 391.943 196.458 401.739 205.04C404.743 207.672 407.627 209.865 410.201 211.533C407.294 226.768 403.844 239.507 400.194 250.005C399.627 249.089 399.042 248.173 398.439 247.264C391.724 237.138 385.448 231.659 384.423 235.026C383.399 238.392 388.013 249.329 394.729 259.454C395.119 260.044 395.509 260.617 395.896 261.174C389.425 276.352 382.756 285.161 377.651 288.904Z" fill="#005B56"/>
<path d="M43.358 303.346C33.963 307.089 20.9425 306.505 6.53569 298.527C7.22599 295.785 7.90024 292.844 8.53624 289.757C12.1229 272.349 13.1632 256.921 10.8603 255.298C8.5573 253.676 3.7828 266.472 0.196245 283.879C-0.474182 287.133 -1.05453 290.318 -1.54184 293.356C-11.3021 286.252 -21.4819 275.705 -31.4456 260.843C-29.3581 257.536 -27.1313 253.6 -24.9154 249.226C-17.3707 234.334 -12.8009 220.001 -14.709 217.214C-16.6173 214.427 -24.2802 224.24 -31.8247 239.132C-33.9528 243.333 -35.843 247.49 -37.4191 251.355C-43.6996 240.751 -49.8399 228.322 -55.6745 213.841C-52.2438 211.669 -48.1443 208.377 -43.9014 204.251C-33.7701 194.398 -26.6534 183.521 -28.0059 179.956C-29.3589 176.391 -38.6695 181.489 -48.8011 191.343C-53.0648 195.49 -56.7923 199.82 -59.5816 203.708C-63.1124 194.136 -66.5103 183.754 -69.7373 172.507C-66.1736 171.341 -61.9107 169.35 -57.438 166.65C-46.3113 159.933 -38.099 151.373 -39.0956 147.531C-40.0923 143.688 -49.9203 146.019 -61.047 152.736C-65.5871 155.476 -69.6412 158.525 -72.7832 161.434C-75.0784 152.706 -76.9467 144.525 -78.429 136.857C-77.4329 136.343 -76.4152 135.776 -75.3868 135.155C-66.2379 129.632 -59.6298 122.04 -60.6264 118.198C-61.6233 114.356 -69.8471 115.718 -78.9958 121.241C-79.6305 121.624 -80.2519 122.02 -80.8604 122.421C-91.2062 49.5262 -62.8646 29.7283 -43.2278 25.2128L-53.2654 -19.6133L-52.2392 -20.4812L-32.2938 19.7734C16.8949 -18.3293 44.5857 43.1498 52.2826 78.6523C52.6307 79.968 52.9727 81.2781 53.309 82.5817C43.7484 87.2977 36.8388 93.7948 37.62 97.5133C38.4137 101.29 46.8526 100.823 56.7477 96.5676C60.4052 112.228 63.1885 126.963 65.226 140.792C63.6605 141.104 62.0506 141.467 60.4119 141.884C46.1493 145.509 35.0478 151.71 35.6154 155.733C36.1838 159.757 48.2072 160.08 62.4702 156.454C64.0628 156.049 65.6157 155.61 67.1176 155.148C68.9122 170.665 69.736 184.937 69.8 197.993C66.1586 196.612 62.0118 195.339 57.6041 194.304C42.9533 190.866 30.9745 191.345 30.8478 195.372C30.7215 199.4 42.496 205.453 57.1472 208.891C61.6399 209.946 65.8815 210.63 69.6071 210.959C69.0275 227.371 67.207 241.614 64.6486 253.76C63.7125 253.149 62.7514 252.548 61.7691 251.963C50.8268 245.447 41.4463 243.262 40.8166 247.083C40.1876 250.903 48.5482 259.284 59.4907 265.8C60.1275 266.179 60.7602 266.542 61.385 266.892C56.1237 285.06 49.2526 297.084 43.358 303.346Z" fill="#008B84"/>
<path d="M123.471 176.231C120.779 178.578 116.965 177.99 112.637 172.458C112.799 170.644 112.953 168.697 113.094 166.652C113.889 155.122 113.969 144.871 113.272 143.753C112.575 142.638 111.366 151.08 110.571 162.611C110.422 164.766 110.3 166.876 110.202 168.891C107.245 164.012 104.116 156.835 100.987 146.788C101.549 144.62 102.144 142.038 102.727 139.163C104.716 129.367 105.842 119.898 105.244 118.013C104.646 116.129 102.549 122.542 100.56 132.338C99.9992 135.102 99.5097 137.841 99.1052 140.39C97.1148 133.235 95.1387 124.867 93.2222 115.138C94.193 113.745 95.3425 111.617 96.522 108.937C99.3399 102.534 101.262 95.4037 100.814 93.0105C100.367 90.6179 97.7206 93.8685 94.9028 100.271C93.7172 102.965 92.6929 105.789 91.9343 108.333C90.763 101.908 89.6178 94.9467 88.5109 87.4121C89.5351 86.6902 90.7514 85.4309 92.0185 83.7036C95.1729 79.4039 97.4483 73.8324 97.1012 71.2597C96.754 68.6872 93.9156 70.0874 90.7612 74.3873C89.4734 76.1427 88.3357 78.1118 87.4595 80.0005C86.6612 74.154 85.9962 68.6781 85.4511 63.5498C85.734 63.2236 86.0224 62.8623 86.3131 62.466C88.9068 58.9305 90.7283 53.9783 90.3811 51.4057C90.0336 48.8337 87.6493 49.6143 85.0558 53.1496C84.8758 53.395 84.7008 53.6481 84.5287 53.9058C80.4435 5.23083 88.4385 -7.51152 94.1124 -10.2156L90.5259 -40.2047L90.8134 -40.7656L97.2291 -13.6675C111.052 -38.273 120.04 3.07047 122.807 26.818C122.928 27.6995 123.046 28.5772 123.163 29.4505C120.439 32.4425 118.514 36.6597 118.796 39.1461C119.083 41.6722 121.543 41.492 124.373 38.8111C125.671 49.2905 126.698 59.1404 127.494 68.3752C127.042 68.5592 126.577 68.7749 126.104 69.0268C121.988 71.2212 118.833 75.1787 119.058 77.8654C119.282 80.552 122.801 80.9506 126.917 78.7563C127.377 78.5114 127.824 78.244 128.256 77.9594C129.006 88.3144 129.455 97.8251 129.664 106.515C128.58 105.54 127.35 104.63 126.047 103.875C121.714 101.361 118.219 101.496 118.241 104.175C118.263 106.854 121.793 111.063 126.125 113.576C127.454 114.347 128.703 114.867 129.797 115.143C129.866 126.059 129.542 135.512 128.971 143.558C128.688 143.136 128.399 142.72 128.103 142.315C124.81 137.81 122.036 136.211 121.908 138.745C121.78 141.278 124.345 146.984 127.639 151.489C127.83 151.75 128.021 152.002 128.209 152.244C126.935 164.255 125.102 172.153 123.471 176.231Z" fill="#005450"/>
<path d="M-76.7578 -58.3848C-71.2063 -58.9458 -63.398 -57.4993 -52.9111 -53.5947C-42.6084 -49.7587 -30.789 -43.9706 -17.5479 -36.9463C8.50338 -23.1264 40.059 -4.46749 72.6436 10.3818C105.358 25.2902 140.684 37.1553 175.5 37.1553C208.855 37.1553 248.321 32.4108 288.026 27.4971C328.045 22.5447 368.437 17.4014 404.703 16.2734C441.25 15.1368 471.861 18.1791 493.02 28.3779C503.371 33.3673 511.183 39.9407 516.477 48.3984C521.773 56.8622 525 67.9368 525 82.6562C525 140.354 474.213 179.93 400.935 205.363C328.694 230.437 239.952 239.656 175.5 239.656C113.87 239.656 46.7246 206.079 -5.32715 155.735C-57.3948 105.376 -92.4998 40.0518 -92.5 -21.3438C-92.5 -36.9549 -90.2261 -46.2648 -87.2441 -51.5264C-84.6969 -56.0207 -81.4961 -57.9058 -76.7578 -58.3848Z" stroke="#93642D" stroke-width="21"/>
<ellipse cx="421.397" cy="824" rx="119.877" ry="118" fill="#A9E4F2"/>
<ellipse cx="312.851" cy="885.055" rx="57.8513" ry="56.9453" fill="#A9E4F2"/>
<circle cx="-3.03659" cy="534.016" r="88" transform="rotate(67 -3.03659 534.016)" fill="#A9E4F2"/>
<circle cx="10.1758" cy="624.007" r="88" transform="rotate(67 10.1758 624.007)" fill="#A9E4F2"/>
<circle cx="44.8523" cy="772.242" r="62" transform="rotate(67 44.8523 772.242)" fill="#A9E4F2"/>
<circle cx="49.3282" cy="693.21" r="88" transform="rotate(67 49.3282 693.21)" fill="#A9E4F2"/>
<circle cx="-49.6528" cy="458.746" r="67.5" transform="rotate(67 -49.6528 458.746)" fill="#A9E4F2"/>
<path d="M417.063 628.074C418.173 606.714 412.227 589.069 403.772 588.63C403.665 588.624 403.57 588.653 403.464 588.648C404.196 582.513 404.751 576.201 405.086 569.743C408.288 508.085 391.098 457.073 366.693 455.806C347.2 454.793 329.008 485.823 320.837 529.785C318.134 527.081 315.148 525.442 311.953 525.276C297.307 524.516 283.926 553.131 282.055 589.156C281.243 604.798 282.736 619.243 285.879 630.706L416.095 637.467C416.559 634.456 416.896 631.303 417.065 628.04L417.063 628.074Z" fill="#0CA46D"/>
<path d="M417.063 628.074C418.173 606.714 412.227 589.069 403.772 588.63C403.665 588.624 403.57 588.653 403.464 588.648C404.196 582.513 404.751 576.201 405.086 569.743C408.288 508.085 391.098 457.073 366.693 455.806C347.2 454.793 329.008 485.823 320.837 529.785C318.134 527.081 315.148 525.442 311.953 525.276C297.307 524.516 283.926 553.131 282.055 589.156C281.243 604.798 282.736 619.243 285.879 630.706L416.095 637.467C416.559 634.456 416.896 631.303 417.065 628.04L417.063 628.074Z" fill="#A9E4F2"/>
<path d="M378.13 715.602C379.193 695.128 373.21 678.201 364.755 677.762C364.648 677.756 364.553 677.783 364.447 677.778C365.166 671.899 365.707 665.849 366.029 659.659C369.097 600.558 351.8 551.619 327.394 550.352C307.902 549.339 289.778 579.047 281.703 621.173C278.994 618.575 276.005 616.997 272.81 616.831C258.164 616.071 244.846 643.473 243.053 678.005C242.274 692.998 243.798 706.849 246.965 717.844L377.181 724.605C377.638 721.719 377.969 718.698 378.131 715.57L378.13 715.602Z" fill="#0CA46D"/>
<path d="M378.13 715.602C379.193 695.128 373.21 678.201 364.755 677.762C364.648 677.756 364.553 677.783 364.447 677.778C365.166 671.899 365.707 665.849 366.029 659.659C369.097 600.558 351.8 551.619 327.394 550.352C307.902 549.339 289.778 579.047 281.703 621.173C278.994 618.575 276.005 616.997 272.81 616.831C258.164 616.071 244.846 643.473 243.053 678.005C242.274 692.998 243.798 706.849 246.965 717.844L377.181 724.605C377.638 721.719 377.969 718.698 378.131 715.57L378.13 715.602Z" fill="#A9E4F2"/>
<path d="M442.063 619.074C443.173 597.714 437.227 580.069 428.772 579.63C428.665 579.624 428.57 579.653 428.464 579.648C429.196 573.513 429.751 567.201 430.086 560.743C433.288 499.085 416.098 448.073 391.693 446.806C372.2 445.793 354.008 476.823 345.837 520.785C343.134 518.081 340.148 516.442 336.953 516.276C322.307 515.516 308.926 544.131 307.055 580.156C306.243 595.798 307.736 610.243 310.879 621.706L441.095 628.467C441.559 625.456 441.896 622.303 442.065 619.04L442.063 619.074Z" fill="#0CA46D"/>
<path d="M442.063 619.074C443.173 597.714 437.227 580.069 428.772 579.63C428.665 579.624 428.57 579.653 428.464 579.648C429.196 573.513 429.751 567.201 430.086 560.743C433.288 499.085 416.098 448.073 391.693 446.806C372.2 445.793 354.008 476.823 345.837 520.785C343.134 518.081 340.148 516.442 336.953 516.276C322.307 515.516 308.926 544.131 307.055 580.156C306.243 595.798 307.736 610.243 310.879 621.706L441.095 628.467C441.559 625.456 441.896 622.303 442.065 619.04L442.063 619.074Z" fill="#A9E4F2"/>
<path d="M403.13 706.602C404.193 686.128 398.21 669.201 389.755 668.762C389.648 668.756 389.553 668.783 389.447 668.778C390.166 662.899 390.707 656.849 391.029 650.659C394.097 591.558 376.8 542.619 352.394 541.352C332.902 540.339 314.778 570.047 306.703 612.173C303.994 609.575 301.005 607.997 297.81 607.831C283.164 607.071 269.846 634.473 268.053 669.005C267.274 683.998 268.798 697.849 271.965 708.844L402.181 715.605C402.638 712.719 402.969 709.698 403.131 706.57L403.13 706.602Z" fill="#0CA46D"/>
<path d="M403.13 706.602C404.193 686.128 398.21 669.201 389.755 668.762C389.648 668.756 389.553 668.783 389.447 668.778C390.166 662.899 390.707 656.849 391.029 650.659C394.097 591.558 376.8 542.619 352.394 541.352C332.902 540.339 314.778 570.047 306.703 612.173C303.994 609.575 301.005 607.997 297.81 607.831C283.164 607.071 269.846 634.473 268.053 669.005C267.274 683.998 268.798 697.849 271.965 708.844L402.181 715.605C402.638 712.719 402.969 709.698 403.131 706.57L403.13 706.602Z" fill="#A9E4F2"/>
<path d="M927 968C927 1133.13 349.704 1267 148.789 1267C-52.1262 1267 -215 1133.13 -215 968C-215 802.867 -52.1262 669 148.789 669C349.704 669 927 802.867 927 968Z" fill="#00886C"/>
<path d="M58 -85.5C124.651 -85.5 184.607 -64.7656 227.679 -31.7266C270.74 1.30454 296.5 46.2017 296.5 95C296.5 143.798 270.74 188.695 227.679 221.727C184.607 254.766 124.651 275.5 58 275.5C-8.65108 275.5 -68.6067 254.766 -111.679 221.727C-154.74 188.695 -180.5 143.798 -180.5 95C-180.5 46.2017 -154.74 1.30454 -111.679 -31.7266C-68.6067 -64.7656 -8.65108 -85.5 58 -85.5Z" stroke="#714D22" stroke-width="21"/>
<ellipse cx="287.947" cy="83.8668" rx="109.05" ry="116.553" transform="rotate(177 287.947 83.8668)" fill="#00AA86"/>
<ellipse cx="177.452" cy="59.1531" rx="109.05" ry="116.553" transform="rotate(177 177.452 59.1531)" fill="#00AA86"/>
<ellipse cx="-9.97693" cy="34.4925" rx="76.8309" ry="82.1169" transform="rotate(177 -9.97693 34.4925)" fill="#00AA86"/>
<ellipse cx="80.3126" cy="76.1805" rx="109.05" ry="116.553" transform="rotate(177 80.3126 76.1805)" fill="#00AA86"/>
<ellipse cx="395.294" cy="60.3361" rx="83.6466" ry="89.4014" transform="rotate(177 395.294 60.3361)" fill="#00AA86"/>
<path d="M123.119 817.731C147.991 820.016 152.322 877.778 157.492 901.747L160.322 901.608C163.373 839.591 189.483 825.794 196.825 819.537C235.593 786.5 230.977 766.72 225.741 761.905C204.659 746.728 181.922 786.96 174.963 809.727C170.763 763.19 181.771 737.69 187.801 730.757C202.683 713.171 227 675.89 205.212 667.458C183.424 659.026 168.42 697.572 163.642 717.899C151.275 704.916 149.031 663.307 164.954 642.836C191.901 608.192 189.598 599.573 182.714 596C163.698 583.566 139.407 620.668 129.639 640.773C140.59 606.237 144.425 548.389 115.242 551.264C81.8526 554.553 99.6149 617.998 115.427 644.315C100.23 629.481 66.7566 604.048 54.4355 620.979C39.0341 642.143 79.3326 647.618 108.475 663.89C131.789 676.908 141.664 702.6 143.688 713.82C117.946 687.339 97.6673 691.15 93.0529 694.627C69.9813 712.013 96.8267 725.237 129.025 748.764C154.783 767.586 156.547 804.489 154.209 820.587C119 768.743 75.9989 761.601 63.7061 774.09C36.3899 801.843 92.0288 814.875 123.119 817.731Z" fill="#005B56"/>
<path d="M255.902 721.657C259.71 708.284 272.263 684.297 292.009 695.333C316.693 709.13 304.93 734.439 294.502 749.856C301.12 758.551 305.076 781.607 267.96 804.275C273.424 815.336 277.016 839.855 247.675 849.445C250.341 862.266 245.619 889.916 205.403 897.95C175.393 903.944 164.96 906.636 162.635 907.636L162.625 908.132C161.991 908.12 161.844 907.976 162.635 907.636L163.652 854.741C162.096 844.414 163.498 819.753 181.555 803.723C185.048 800.935 192.294 792.676 193.342 781.94C194.652 768.521 201.42 765.378 212.17 762.42C220.77 760.054 228.415 741.835 231.163 733.022C233.773 726.875 242.376 715.996 255.902 721.657Z" fill="#9AC983"/>
<g style="mix-blend-mode:multiply">
<path fill-rule="evenodd" clip-rule="evenodd" d="M276.158 707.728C277.599 707.831 278.679 709.088 278.569 710.536L278.141 716.185C278.031 717.633 276.773 718.724 275.332 718.622C273.89 718.52 272.811 717.263 272.92 715.814L273.349 710.165C273.459 708.717 274.716 707.626 276.158 707.728ZM297.85 721.67C298.465 722.98 297.903 724.549 296.595 725.174L290.528 728.073C289.219 728.698 287.66 728.142 287.045 726.832C286.43 725.521 286.992 723.952 288.3 723.327L294.367 720.428C295.676 719.803 297.235 720.359 297.85 721.67ZM285.377 716.718C286.6 717.486 286.966 719.107 286.195 720.339L180.617 889.1C179.846 890.332 178.229 890.709 177.007 889.941C175.784 889.174 175.417 887.552 176.188 886.32L281.766 717.56C282.537 716.327 284.154 715.95 285.377 716.718ZM264.56 717.833C265.954 717.437 267.396 718.25 267.782 719.647L269.464 725.739C269.849 727.137 269.033 728.589 267.639 728.985C266.246 729.38 264.804 728.567 264.418 727.17L262.736 721.078C262.35 719.681 263.167 718.228 264.56 717.833ZM292.017 737.878C292.424 739.269 291.63 740.734 290.242 741.15L282.065 743.605C280.677 744.022 279.223 743.232 278.816 741.841C278.409 740.45 279.203 738.985 280.591 738.568L288.768 736.113C290.156 735.697 291.61 736.487 292.017 737.878ZM255.563 728.042C256.965 727.681 258.387 728.528 258.738 729.935L260.907 738.608C261.259 740.014 260.407 741.447 259.005 741.808C257.602 742.169 256.181 741.321 255.829 739.915L253.66 731.242C253.309 729.835 254.16 728.403 255.563 728.042ZM282.82 753.531C283.089 754.956 282.155 756.336 280.735 756.614L273.019 758.122C271.598 758.4 270.229 757.47 269.96 756.045C269.691 754.62 270.625 753.239 272.046 752.962L279.762 751.453C281.182 751.175 282.552 752.105 282.82 753.531ZM246.066 742.741C247.469 742.38 248.891 743.228 249.242 744.634L251.411 753.307C251.763 754.713 250.911 756.146 249.509 756.507C248.106 756.868 246.684 756.02 246.333 754.614L244.164 745.941C243.812 744.535 244.664 743.102 246.066 742.741ZM274.937 768.313C275.278 769.722 274.415 771.148 273.01 771.498L265.063 773.48C263.659 773.83 262.243 772.972 261.902 771.563C261.561 770.154 262.423 768.728 263.828 768.378L271.775 766.396C273.18 766.045 274.595 766.904 274.937 768.313ZM235.419 757.45C236.824 757.1 238.239 757.958 238.58 759.367L240.51 767.338C240.851 768.747 239.989 770.173 238.584 770.523C237.179 770.874 235.763 770.016 235.422 768.606L233.493 760.636C233.152 759.227 234.014 757.801 235.419 757.45ZM267.382 783.226C267.462 784.675 266.358 785.922 264.914 786.011L255.318 786.603C253.875 786.692 252.639 785.59 252.559 784.14C252.478 782.691 253.583 781.444 255.026 781.355L264.622 780.763C266.065 780.674 267.301 781.777 267.382 783.226ZM226.009 768.182C227.396 767.766 228.851 768.556 229.258 769.947L231.657 778.146C232.064 779.537 231.27 781.003 229.883 781.419C228.495 781.835 227.041 781.045 226.634 779.655L224.234 771.455C223.827 770.064 224.622 768.599 226.009 768.182ZM255.755 799.519C256.009 800.947 255.06 802.318 253.637 802.58L244.049 804.347C242.626 804.61 241.267 803.665 241.013 802.237C240.76 800.809 241.708 799.438 243.132 799.176L252.719 797.409C254.143 797.146 255.502 798.091 255.755 799.519ZM216.408 782.143C217.815 781.801 219.225 782.667 219.558 784.078L222.214 795.331C222.546 796.743 221.676 798.164 220.269 798.506C218.862 798.848 217.452 797.982 217.119 796.57L214.464 785.317C214.131 783.906 215.001 782.485 216.408 782.143ZM207.214 796.352C208.63 796.05 210.015 796.956 210.309 798.376L212.733 810.102C213.027 811.522 212.117 812.919 210.702 813.221C209.286 813.524 207.9 812.618 207.607 811.198L205.182 799.472C204.889 798.052 205.798 796.655 207.214 796.352ZM245.325 816.052C245.611 817.474 244.694 818.866 243.277 819.161L234.86 820.913C233.443 821.208 232.062 820.295 231.776 818.873C231.49 817.452 232.407 816.06 233.824 815.765L242.241 814.012C243.658 813.717 245.039 814.631 245.325 816.052ZM238.207 832.073C238.397 833.511 237.389 834.838 235.955 835.036L226.599 836.33C225.165 836.529 223.85 835.523 223.66 834.085C223.471 832.647 224.479 831.32 225.912 831.122L235.269 829.827C236.702 829.629 238.018 830.634 238.207 832.073ZM200.149 814.9C201.499 814.373 203.013 815.042 203.53 816.395L207.109 825.756C207.626 827.109 206.951 828.633 205.601 829.16C204.251 829.686 202.737 829.017 202.22 827.664L198.641 818.303C198.124 816.95 198.799 815.426 200.149 814.9ZM190.727 827.214C192.096 826.737 193.583 827.463 194.05 828.835L197.876 840.073C198.343 841.445 197.612 842.943 196.244 843.419C194.876 843.896 193.388 843.17 192.921 841.799L189.095 830.56C188.629 829.189 189.359 827.69 190.727 827.214ZM225.387 847.243C225.728 848.653 224.866 850.079 223.461 850.429L215.514 852.411C214.109 852.761 212.694 851.903 212.352 850.494C212.011 849.085 212.874 847.659 214.279 847.308L222.226 845.327C223.631 844.976 225.046 845.834 225.387 847.243ZM182.56 839.915C183.985 839.663 185.337 840.618 185.58 842.047L187.535 853.545C187.778 854.975 186.82 856.338 185.395 856.59C183.969 856.842 182.617 855.887 182.374 854.457L180.42 842.96C180.176 841.53 181.135 840.167 182.56 839.915ZM216.183 864.051C216.398 865.485 215.413 866.829 213.983 867.053L205.797 868.332C204.367 868.556 203.034 867.574 202.82 866.139C202.605 864.704 203.59 863.36 205.02 863.137L213.206 861.857C214.636 861.634 215.969 862.616 216.183 864.051ZM175.881 859.729C177.321 859.851 178.384 861.122 178.255 862.569C177.778 867.913 179.135 872.849 179.803 874.488C180.35 875.829 179.708 877.367 178.369 877.924C177.031 878.48 175.503 877.843 174.956 876.502C174.035 874.242 172.476 868.462 173.04 862.129C173.169 860.682 174.441 859.608 175.881 859.729ZM209.256 879.352C209.509 880.78 208.561 882.15 207.138 882.413L197.55 884.18C196.127 884.443 194.768 883.498 194.514 882.07C194.261 880.642 195.209 879.271 196.632 879.009L206.22 877.241C207.643 876.979 209.003 877.924 209.256 879.352Z" fill="#9AC983"/>
</g>
</g>
<defs>
<clipPath id="clip0_9001_5671">
<rect width="390" height="844" fill="white"/>
</clipPath>
</defs>
</svg>
