<svg width="390" height="844" viewBox="0 0 390 844" fill="none" xmlns="http://www.w3.org/2000/svg">
<g clip-path="url(#clip0_9006_5939)">
<path d="M299.97 257.911C299.97 303.702 254.31 340.823 197.985 340.823C141.66 340.823 96 303.702 96 257.911C96 212.121 141.66 175 197.985 175C254.31 175 299.97 212.121 299.97 257.911Z" fill="#F8EBA6"/>
<path d="M245.458 301.569C245.458 319.561 227.879 342.137 200.646 342.137C173.412 342.137 155 319.561 155 301.569C155 283.576 156.666 261 200.646 261C244.625 261 245.458 283.576 245.458 301.569Z" fill="#FFFDD4"/>
<g clip-path="url(#clip1_9006_5939)">
<path d="M10 295C10 283.954 18.9543 275 30 275H341C363.091 275 381 292.909 381 315V711C381 733.091 363.091 751 341 751H30C18.9543 751 10 742.046 10 731V295Z" fill="white"/>
<rect width="8" height="658" transform="matrix(0 1 1 0 10 436)" fill="#E0F9FE" fill-opacity="0.5"/>
<rect width="8" height="658" transform="matrix(0 1 1 0 7 390)" fill="#E0F9FE" fill-opacity="0.5"/>
<rect width="8" height="658" transform="matrix(0 1 1 0 1 344)" fill="#E0F9FE" fill-opacity="0.5"/>
<rect width="8" height="658" transform="matrix(0 1 1 0 10 482)" fill="#E0F9FE" fill-opacity="0.5"/>
<rect width="8" height="658" transform="matrix(0 1 1 0 10 528)" fill="#E0F9FE" fill-opacity="0.5"/>
<rect width="8" height="658" transform="matrix(0 1 1 0 10 574)" fill="#E0F9FE" fill-opacity="0.5"/>
<rect width="8" height="653" transform="matrix(0 1 1 0 15 620)" fill="#E0F9FE" fill-opacity="0.5"/>
<rect width="8" height="653" transform="matrix(0 1 1 0 15 666)" fill="#E0F9FE" fill-opacity="0.5"/>
<rect width="8" height="653" transform="matrix(0 1 1 0 15 712)" fill="#E0F9FE" fill-opacity="0.5"/>
<rect x="41" y="275" width="8" height="783" fill="#EF5548"/>
</g>
<ellipse cx="155.623" cy="185.824" rx="14.993" ry="5.86793" fill="#FFB2A1"/>
<ellipse cx="244.915" cy="185.824" rx="14.993" ry="5.86793" fill="#FFB2A1"/>
<path d="M323.69 255.64C330.569 280.739 328.541 316.29 300.407 318.098C272.273 319.907 261.909 277.72 266.108 257.461C270.306 237.201 277.952 197.618 292.888 196.658C307.823 195.698 316.812 230.541 323.69 255.64Z" fill="#F8EBA6"/>
<path d="M326.044 285.197C326.044 297.927 317.046 313.373 302.387 316.938C287.729 320.503 280.732 319.655 274.401 302.171C271.52 292.678 280.898 289.101 295.891 282.82C310.885 276.54 326.044 272.466 326.044 285.197Z" fill="#E6984A"/>
<path d="M71.1236 260.086C65.2985 285.433 68.5294 320.879 96.037 321.597C123.544 322.314 132.167 279.757 127.358 259.675C122.548 239.593 113.695 200.335 99.0921 199.954C84.4891 199.574 76.9488 234.739 71.1236 260.086Z" fill="#F8EBA6"/>
<path d="M69.2669 289.37C69.2669 302.101 78.2647 317.547 92.9236 321.112C107.582 324.677 114.579 323.828 120.91 306.344C123.791 296.851 114.413 293.274 99.4198 286.994C84.4265 280.713 69.2669 276.639 69.2669 289.37Z" fill="#E6984A"/>
<ellipse cx="201.443" cy="160.813" rx="122.443" ry="105.813" fill="#E6984A"/>
<path d="M288.869 160.813C300.219 201.169 249.727 235.128 201.444 235.128C153.16 235.128 100.495 202.031 114.019 160.813C127.543 119.595 138.29 91.05 201.444 91.05C264.597 91.0501 277.518 120.456 288.869 160.813Z" fill="#F8EBA6"/>
<path d="M277.864 136.983C269.451 141.977 262.668 131.251 258.536 124.024C254.405 116.798 250.123 108.175 258.536 103.181C266.287 98.5795 279.07 99.7814 285.659 108.089C292.249 116.396 286.277 131.989 277.864 136.983Z" fill="#F8EBA6"/>
<path d="M122.87 137.052C131.283 142.047 138.065 131.32 142.197 124.094C146.329 116.867 150.61 108.244 142.197 103.25C134.446 98.6486 121.664 99.8504 115.074 108.158C108.484 116.465 114.456 132.058 122.87 137.052Z" fill="#F8EBA6"/>
<ellipse cx="180.73" cy="152.75" rx="6.09445" ry="6.20982" fill="#303030"/>
<ellipse cx="218.405" cy="152.75" rx="6.09445" ry="6.20982" fill="#303030"/>
<path d="M211.827 190.431C211.827 195.331 206.204 199.303 199.269 199.303C192.333 199.303 186.71 195.331 186.71 190.431C197.216 190.431 196.321 185.298 198.665 185.298C201.009 185.298 203.737 191.942 211.827 190.431Z" fill="#E1767C"/>
<path d="M199.269 180.499C199.269 186.774 195.043 191.819 186.953 190.342C178.862 188.866 180.07 180.499 180.07 180.499" stroke="#824D44" stroke-width="3" stroke-linecap="round"/>
<path d="M199.269 180.499C199.269 186.774 203.495 191.819 211.586 190.342C219.676 188.866 218.469 180.499 218.469 180.499" stroke="#824D44" stroke-width="3" stroke-linecap="round"/>
<ellipse cx="199.269" cy="176.808" rx="7.48666" ry="3.69115" fill="#E1767C"/>
<ellipse cx="199.39" cy="194.525" rx="6.88289" ry="3.199" fill="#EEAEAE"/>
<path d="M198.277 190.964C199.11 191.643 200.276 192.661 200.804 193.774" stroke="#E1767C" stroke-width="8" stroke-linecap="round"/>
<path d="M274.739 111.967C273.169 110.941 269.305 110.293 266.407 115.904" stroke="#824D44" stroke-width="4" stroke-linecap="round"/>
<path d="M127.784 109.577C129.354 108.552 133.218 107.904 136.116 113.514" stroke="#824D44" stroke-width="4" stroke-linecap="round"/>
<path d="M268.729 279.147C264.864 273.737 262.715 269.035 265.271 256.379" stroke="#824D44" stroke-width="5" stroke-linecap="round"/>
<path d="M128.26 279.807C131.818 271.072 133.187 264.515 125 254" stroke="#824D44" stroke-width="4" stroke-linecap="round"/>
<path d="M395.651 80.904C388.463 80.9993 379.381 75.6982 370.447 62.9328C371.351 60.6042 372.273 58.0816 373.191 55.4088C378.367 40.3344 381.448 26.1944 380.073 23.8266C378.698 21.459 373.388 31.7593 368.212 46.8334C367.244 49.651 366.351 52.4365 365.545 55.1181C359.752 44.871 354.186 31.2311 349.431 13.6087C351.404 11.2579 353.572 8.36658 355.799 5.05862C363.379 -6.20414 368.78 -18.0254 367.86 -21.3451C366.94 -24.6647 360.05 -18.2252 352.469 -6.96229C350.33 -3.78512 348.366 -0.5629 346.668 2.49978C343.858 -9.77167 341.426 -23.7099 339.52 -39.4678C342.267 -40.2599 345.655 -41.8614 349.271 -44.1966C357.908 -49.7734 364.576 -57.4148 364.165 -61.2631C363.754 -65.111 356.421 -63.7096 347.785 -58.133C344.15 -55.7859 340.866 -53.0719 338.309 -50.4302C337.279 -60.7267 336.466 -71.7375 335.905 -83.4991C338.593 -83.2966 341.899 -83.6149 345.46 -84.5241C354.319 -86.7857 361.407 -91.8454 361.29 -95.825C361.173 -99.8048 353.895 -101.198 345.036 -98.9366C341.421 -98.0138 338.101 -96.624 335.445 -95.0329C335.157 -104.084 335.087 -112.465 335.21 -120.223C335.99 -120.344 336.792 -120.506 337.611 -120.715C344.896 -122.574 350.706 -127.308 350.589 -131.287C350.472 -135.267 344.472 -136.986 337.187 -135.126C336.682 -134.997 336.184 -134.852 335.694 -134.697C339.502 -207.076 362.479 -215.366 376.998 -212.451L376.75 -258.301L377.605 -258.743L385.527 -213.58C425.973 -231.492 436.119 -163.528 436.137 -127.307C436.181 -125.942 436.223 -124.584 436.262 -123.235C428.81 -122.285 422.953 -118.692 422.937 -114.907C422.922 -111.062 428.937 -108.423 436.555 -108.818C436.747 -92.7442 436.465 -77.8607 435.795 -64.1028C434.645 -64.3798 433.456 -64.6267 432.238 -64.8326C421.64 -66.6244 412.877 -64.8388 412.665 -60.8448C412.453 -56.8506 420.872 -52.1602 431.47 -50.3683C432.653 -50.1683 433.814 -50.0147 434.942 -49.9019C433.844 -34.6426 432.253 -20.91 430.311 -8.59903C427.956 -11.2279 425.229 -13.9387 422.282 -16.5207C412.486 -25.1025 403.974 -29.0239 403.272 -25.2791C402.57 -21.5342 409.943 -11.5416 419.739 -2.95989C422.743 -0.328347 425.627 1.86452 428.201 3.53291C425.294 18.768 421.844 31.5073 418.194 42.0049C417.627 41.0888 417.041 40.173 416.438 39.2639C409.723 29.1385 403.448 23.6591 402.423 27.0255C401.399 30.3923 406.013 41.3291 412.729 51.4542C413.12 52.0436 413.509 52.6168 413.896 53.1738C407.426 68.352 400.756 77.1612 395.651 80.904Z" fill="#005B56"/>
<path d="M61.358 95.3459C51.963 99.0895 38.9425 98.5046 24.5357 90.5272C25.226 87.7851 25.9002 84.8435 26.5362 81.7567C30.1229 64.349 31.1632 48.9208 28.8603 47.2977C26.5573 45.6755 21.7828 58.4715 18.1962 75.8787C17.5258 79.1326 16.9455 82.3176 16.4582 85.3559C6.69795 78.2518 -3.48192 67.7051 -13.4456 52.8427C-11.3581 49.5356 -9.13128 45.6001 -6.91537 41.2262C0.629341 26.3338 5.19913 12.0013 3.29104 9.21391C1.38268 6.42736 -6.28021 16.2403 -13.8247 31.1321C-15.9528 35.3327 -17.843 39.4897 -19.4191 43.3548C-25.6996 32.7509 -31.8399 20.322 -37.6745 5.84085C-34.2438 3.66924 -30.1443 0.377372 -25.9014 -3.74907C-15.7701 -13.6024 -8.65338 -24.4794 -10.0059 -28.0442C-11.3589 -31.6086 -20.6695 -26.5107 -30.8011 -16.6572C-35.0648 -12.5104 -38.7924 -8.18012 -41.5816 -4.29204C-45.1124 -13.8639 -48.5103 -24.2462 -51.7373 -35.4928C-48.1736 -36.6592 -43.9107 -38.65 -39.438 -41.35C-28.3113 -48.0669 -20.099 -56.6271 -21.0956 -60.4694C-22.0923 -64.3116 -31.9203 -61.9811 -43.047 -55.2643C-47.5871 -52.5235 -51.6412 -49.4751 -54.7832 -46.5664C-57.0784 -55.2942 -58.9467 -63.4751 -60.429 -71.1432C-59.4329 -71.6574 -58.4152 -72.2238 -57.3868 -72.8446C-48.2379 -78.3676 -41.6298 -85.96 -42.6264 -89.8022C-43.6233 -93.6442 -51.8471 -92.2816 -60.9958 -86.7588C-61.6305 -86.3757 -62.2519 -85.9805 -62.8604 -85.5793C-73.2062 -158.474 -44.8646 -178.272 -25.2278 -182.787L-35.2654 -227.613L-34.2392 -228.481L-14.2938 -188.227C34.8949 -226.329 62.5857 -164.85 70.2826 -129.348C70.6307 -128.032 70.9727 -126.722 71.309 -125.418C61.7484 -120.702 54.8388 -114.205 55.62 -110.487C56.4137 -106.71 64.8526 -107.177 74.7477 -111.432C78.4052 -95.7716 81.1885 -81.0366 83.226 -67.2083C81.6605 -66.8956 80.0506 -66.5329 78.4119 -66.1163C64.1493 -62.4906 53.0478 -56.2902 53.6154 -52.2667C54.1838 -48.2432 66.2072 -47.9202 80.4702 -51.5459C82.0628 -51.9508 83.6157 -52.3901 85.1176 -52.8525C86.9122 -37.3346 87.736 -23.0629 87.8 -10.0067C84.1586 -11.388 80.0118 -12.6613 75.6041 -13.6957C60.9533 -17.1338 48.9745 -16.6555 48.8478 -12.6277C48.7215 -8.59964 60.496 -2.54675 75.1472 0.89149C79.6399 1.94581 83.8815 2.63034 87.6071 2.9587C87.0275 19.3714 85.207 33.6136 82.6486 45.7596C81.7125 45.1493 80.7514 44.5482 79.7691 43.9632C68.8268 37.4473 59.4463 35.2624 58.8166 39.0827C58.1876 42.9035 66.5482 51.2837 77.4907 57.7999C78.1275 58.1791 78.7602 58.5423 79.385 58.8918C74.1237 77.0596 67.2526 89.0838 61.358 95.3459Z" fill="#008B84"/>
<path d="M-58.7578 -266.385C-53.2063 -266.946 -45.398 -265.499 -34.9111 -261.595C-24.6084 -257.759 -12.789 -251.971 0.452148 -244.946C26.5034 -231.126 58.059 -212.467 90.6436 -197.618C123.358 -182.71 158.684 -170.845 193.5 -170.845C226.855 -170.845 266.321 -175.589 306.026 -180.503C346.045 -185.455 386.437 -190.599 422.703 -191.727C459.25 -192.863 489.861 -189.821 511.02 -179.622C521.371 -174.633 529.183 -168.059 534.477 -159.602C539.773 -151.138 543 -140.063 543 -125.344C543 -67.6464 492.213 -28.0704 418.935 -2.63672C346.694 22.4366 257.952 31.6562 193.5 31.6562C131.87 31.6562 64.7246 -1.92086 12.6729 -52.2646C-39.3948 -102.624 -74.4998 -167.948 -74.5 -229.344C-74.5 -244.955 -72.2261 -254.265 -69.2441 -259.526C-66.6969 -264.021 -63.4961 -265.906 -58.7578 -266.385Z" stroke="#93642D" stroke-width="21"/>
<path d="M76 -293.5C142.651 -293.5 202.607 -272.766 245.679 -239.727C288.74 -206.695 314.5 -161.798 314.5 -113C314.5 -64.2017 288.74 -19.3045 245.679 13.7266C202.607 46.7656 142.651 67.5 76 67.5C9.34892 67.5 -50.6067 46.7656 -93.6787 13.7266C-136.74 -19.3045 -162.5 -64.2017 -162.5 -113C-162.5 -161.798 -136.74 -206.695 -93.6787 -239.727C-50.6067 -272.766 9.34892 -293.5 76 -293.5Z" stroke="#714D22" stroke-width="21"/>
<path d="M395.651 80.904C388.464 80.9993 379.381 75.6988 370.447 62.9338C371.351 60.6048 372.274 58.082 373.192 55.4087C378.368 40.3349 381.449 26.1951 380.074 23.8266C378.699 21.4588 373.388 31.7592 368.212 46.8334C367.244 49.6511 366.351 52.4365 365.545 55.1181C359.752 44.8709 354.187 31.2304 349.432 13.6077C351.405 11.257 353.573 8.36616 355.8 5.05857C363.38 -6.20419 368.78 -18.0255 367.86 -21.3451C366.94 -24.6647 360.05 -18.2252 352.469 -6.96229C350.33 -3.78537 348.366 -0.563653 346.668 2.4988C343.858 -9.77241 341.426 -23.7103 339.52 -39.4678C342.267 -40.2599 345.655 -41.8614 349.271 -44.1966C357.908 -49.7734 364.576 -57.4148 364.165 -61.2631C363.754 -65.111 356.421 -63.7097 347.785 -58.133C344.151 -55.786 340.867 -53.0718 338.31 -50.4303C337.28 -60.7268 336.467 -71.7375 335.906 -83.4992C338.594 -83.2967 341.899 -83.615 345.46 -84.5241C354.32 -86.7857 361.407 -91.8454 361.29 -95.825C361.173 -99.8048 353.895 -101.198 345.036 -98.9366C341.421 -98.0138 338.102 -96.6238 335.446 -95.0329C335.158 -104.084 335.088 -112.465 335.211 -120.223C335.99 -120.344 336.793 -120.506 337.611 -120.715C344.896 -122.574 350.706 -127.308 350.589 -131.287C350.472 -135.267 344.472 -136.986 337.187 -135.126C336.682 -134.997 336.185 -134.852 335.695 -134.697C339.503 -207.076 362.479 -215.366 376.998 -212.451L376.75 -258.301L377.605 -258.743L385.527 -213.58C425.973 -231.492 436.12 -163.528 436.138 -127.307C436.182 -125.942 436.223 -124.584 436.262 -123.235C428.81 -122.285 422.954 -118.692 422.938 -114.907C422.923 -111.062 428.937 -108.423 436.555 -108.818C436.747 -92.7446 436.465 -77.8614 435.795 -64.1037C434.645 -64.3807 433.456 -64.6268 432.239 -64.8327C421.64 -66.6245 412.877 -64.8389 412.665 -60.8448C412.453 -56.8507 420.872 -52.1602 431.47 -50.3683C432.654 -50.1682 433.815 -50.0147 434.943 -49.902C433.845 -34.643 432.253 -20.9108 430.311 -8.60001C427.956 -11.2287 425.229 -13.9389 422.282 -16.5207C412.486 -25.1023 403.975 -29.0237 403.273 -25.2791C402.571 -21.5343 409.943 -11.5416 419.739 -2.95989C422.743 -0.32818 425.628 1.86443 428.202 3.53286C425.295 18.7681 421.844 31.5072 418.194 42.0049C417.627 41.0889 417.042 40.1728 416.439 39.2638C409.724 29.1384 403.449 23.659 402.424 27.0255C401.4 30.392 406.013 41.3289 412.729 51.4542C413.119 52.0435 413.509 52.6168 413.896 53.1738C407.425 68.3521 400.756 77.1613 395.651 80.904Z" fill="#005B56"/>
<path d="M61.358 95.3459C51.963 99.0895 38.9425 98.5046 24.5357 90.5272C25.226 87.7851 25.9002 84.8435 26.5362 81.7567C30.1229 64.349 31.1632 48.9208 28.8603 47.2977C26.5573 45.6755 21.7828 58.4715 18.1962 75.8787C17.5258 79.1326 16.9455 82.3176 16.4582 85.3559C6.69795 78.2518 -3.48192 67.7051 -13.4456 52.8427C-11.3581 49.5356 -9.13128 45.6001 -6.91537 41.2262C0.629341 26.3338 5.19913 12.0013 3.29104 9.21391C1.38268 6.42736 -6.28021 16.2403 -13.8247 31.1321C-15.9528 35.3327 -17.843 39.4897 -19.4191 43.3548C-25.6996 32.7509 -31.8399 20.322 -37.6745 5.84085C-34.2438 3.66924 -30.1443 0.377372 -25.9014 -3.74907C-15.7701 -13.6024 -8.65338 -24.4794 -10.0059 -28.0442C-11.3589 -31.6086 -20.6695 -26.5107 -30.8011 -16.6572C-35.0648 -12.5104 -38.7924 -8.18012 -41.5816 -4.29204C-45.1124 -13.8639 -48.5103 -24.2462 -51.7373 -35.4928C-48.1736 -36.6592 -43.9107 -38.65 -39.438 -41.35C-28.3113 -48.0669 -20.099 -56.6271 -21.0956 -60.4694C-22.0923 -64.3116 -31.9203 -61.9811 -43.047 -55.2643C-47.5871 -52.5235 -51.6412 -49.4751 -54.7832 -46.5664C-57.0784 -55.2942 -58.9467 -63.4751 -60.429 -71.1432C-59.4329 -71.6574 -58.4152 -72.2238 -57.3868 -72.8446C-48.2379 -78.3676 -41.6298 -85.96 -42.6264 -89.8022C-43.6233 -93.6442 -51.8471 -92.2816 -60.9958 -86.7588C-61.6305 -86.3757 -62.2519 -85.9805 -62.8604 -85.5793C-73.2062 -158.474 -44.8646 -178.272 -25.2278 -182.787L-35.2654 -227.613L-34.2392 -228.481L-14.2938 -188.227C34.8949 -226.329 62.5857 -164.85 70.2826 -129.348C70.6307 -128.032 70.9727 -126.722 71.309 -125.418C61.7484 -120.702 54.8388 -114.205 55.62 -110.487C56.4137 -106.71 64.8526 -107.177 74.7477 -111.432C78.4052 -95.7716 81.1885 -81.0366 83.226 -67.2083C81.6605 -66.8956 80.0506 -66.5329 78.4119 -66.1163C64.1493 -62.4906 53.0478 -56.2902 53.6154 -52.2667C54.1838 -48.2432 66.2072 -47.9202 80.4702 -51.5459C82.0628 -51.9508 83.6157 -52.3901 85.1176 -52.8525C86.9122 -37.3346 87.736 -23.0629 87.8 -10.0067C84.1586 -11.388 80.0118 -12.6613 75.6041 -13.6957C60.9533 -17.1338 48.9745 -16.6555 48.8478 -12.6277C48.7215 -8.59964 60.496 -2.54675 75.1472 0.89149C79.6399 1.94581 83.8815 2.63034 87.6071 2.9587C87.0275 19.3714 85.207 33.6136 82.6486 45.7596C81.7125 45.1493 80.7514 44.5482 79.7691 43.9632C68.8268 37.4473 59.4463 35.2624 58.8166 39.0827C58.1876 42.9035 66.5482 51.2837 77.4907 57.7999C78.1275 58.1791 78.7602 58.5423 79.385 58.8918C74.1237 77.0596 67.2526 89.0838 61.358 95.3459Z" fill="#008B84"/>
<path d="M-58.7578 -266.385C-53.2063 -266.946 -45.398 -265.499 -34.9111 -261.595C-24.6084 -257.759 -12.789 -251.971 0.452148 -244.946C26.5034 -231.126 58.059 -212.467 90.6436 -197.618C123.358 -182.71 158.684 -170.845 193.5 -170.845C226.855 -170.845 266.321 -175.589 306.026 -180.503C346.045 -185.455 386.437 -190.599 422.703 -191.727C459.25 -192.863 489.861 -189.821 511.02 -179.622C521.371 -174.633 529.183 -168.059 534.477 -159.602C539.773 -151.138 543 -140.063 543 -125.344C543 -67.6464 492.213 -28.0704 418.935 -2.63672C346.694 22.4366 257.952 31.6562 193.5 31.6562C131.87 31.6562 64.7246 -1.92086 12.6729 -52.2646C-39.3948 -102.624 -74.4998 -167.948 -74.5 -229.344C-74.5 -244.955 -72.2261 -254.265 -69.2441 -259.526C-66.6969 -264.021 -63.4961 -265.906 -58.7578 -266.385Z" stroke="#93642D" stroke-width="21"/>
<path d="M76 -293.5C142.651 -293.5 202.607 -272.766 245.679 -239.727C288.74 -206.695 314.5 -161.798 314.5 -113C314.5 -64.2017 288.74 -19.3045 245.679 13.7266C202.607 46.7656 142.651 67.5 76 67.5C9.34892 67.5 -50.6067 46.7656 -93.6787 13.7266C-136.74 -19.3045 -162.5 -64.2017 -162.5 -113C-162.5 -161.798 -136.74 -206.695 -93.6787 -239.727C-50.6067 -272.766 9.34892 -293.5 76 -293.5Z" stroke="#714D22" stroke-width="21"/>
<path d="M351.104 840.77C344.302 843.8 338.136 843.659 337.332 840.455C336.528 837.251 341.39 832.197 348.192 829.168C354.994 826.138 361.16 826.279 361.964 829.483C362.768 832.687 357.906 837.74 351.104 840.77ZM450.842 829.511C443.076 831.741 436.232 830.914 435.555 827.663C434.878 824.413 440.624 819.971 448.389 817.741C456.155 815.511 462.998 816.338 463.676 819.588C464.353 822.838 458.607 827.281 450.842 829.511ZM365.048 868.489C356.776 872.174 349.418 872.564 348.614 869.361C347.81 866.157 353.864 860.572 362.137 856.887C370.409 853.202 377.767 852.812 378.571 856.016C379.375 859.22 373.321 864.805 365.048 868.489ZM375.761 900.409C368.281 906.737 361.352 909.404 360.284 906.368C359.216 903.332 364.414 895.742 371.893 889.414C379.373 883.087 386.302 880.419 387.37 883.455C388.438 886.491 383.241 894.082 375.761 900.409ZM473.53 870.916C474.014 874.2 465.754 877.478 455.079 878.238C444.404 878.997 435.358 876.95 434.873 873.666C434.389 870.381 442.649 867.103 453.324 866.344C463.999 865.584 473.046 867.631 473.53 870.916ZM471.926 922.283C471.888 925.467 462.885 924.063 451.818 919.147C440.751 914.231 431.811 907.664 431.849 904.479C431.888 901.295 440.889 902.698 451.956 907.614C463.023 912.53 471.964 919.098 471.926 922.283ZM390.677 939.004C385.214 949.724 379.59 956.387 378.115 953.886C376.641 951.384 379.874 940.667 385.337 929.947C390.8 919.227 396.424 912.565 397.899 915.065C399.373 917.567 396.14 928.284 390.677 939.004ZM416.407 976.218C413.957 989.527 410.548 998.992 408.793 997.359C407.038 995.725 407.602 983.611 410.053 970.302C412.503 956.992 415.913 947.527 417.667 949.16C419.422 950.795 418.858 962.909 416.407 976.218ZM470.215 971.755C469.796 974.7 462.709 971.566 454.388 964.754C446.066 957.942 439.66 950.033 440.079 947.088C440.498 944.143 447.583 947.278 455.905 954.089C464.226 960.901 470.633 968.81 470.215 971.755Z" fill="#005B56"/>
<path d="M118.367 1073.73C109.828 1078.73 96.9928 1080.98 81.5222 1077.51C81.7223 1075.15 81.872 1072.62 81.9593 1069.98C82.4515 1055.11 80.7965 1042.38 78.2632 1041.54C75.73 1040.71 73.2777 1052.08 72.7855 1066.95C72.6935 1069.73 72.6768 1072.44 72.7266 1075.01C61.9512 1071.28 50.1692 1064.85 37.8509 1054.87C39.3196 1051.76 40.8156 1048.1 42.2251 1044.09C47.0238 1030.43 49.0097 1017.85 46.6609 1015.99C44.312 1014.12 38.5175 1023.68 33.7188 1037.34C32.3652 1041.19 31.2362 1044.96 30.3644 1048.42C22.3856 1041.13 14.2277 1032.33 6.01349 1021.8C8.9925 1019.33 12.4317 1015.8 15.8664 1011.57C24.0679 1001.46 29.143 991.146 27.2024 988.537C25.2613 985.929 17.0398 992.009 8.83869 1002.12C5.3872 1006.37 2.49212 1010.66 0.437867 1014.4C-4.67333 1007.37 -9.79476 999.659 -14.8989 991.209C-11.6158 989.518 -7.79113 987.013 -3.88472 983.889C5.83271 976.117 12.381 967.458 10.7416 964.549C9.10132 961.64 -0.107158 965.582 -9.82511 973.355C-13.7904 976.526 -17.227 979.846 -19.7959 982.862C-23.5523 976.261 -26.7969 970.015 -29.5748 964.104C-28.6896 963.478 -27.7925 962.806 -26.8942 962.088C-18.9037 955.697 -13.7555 948.157 -15.3957 945.249C-17.036 942.34 -24.8433 945.162 -32.8337 951.553C-33.388 951.996 -33.9271 952.447 -34.4528 952.899C-57.1974 895.925 -32.91 873.946 -14.4883 866.182L-32.0694 831.913L-31.2159 830.995L-4.73758 859.487C36.7666 818.305 74.497 862.396 88.1739 889.59C88.7424 890.585 89.3027 891.577 89.8574 892.564C81.3249 898.386 75.6932 905.099 77.1012 907.953C78.5317 910.851 86.7039 908.71 95.6437 903.191C101.933 915.132 107.207 926.505 111.595 937.297C110.118 937.878 108.607 938.508 107.076 939.188C93.7559 945.108 83.973 952.457 85.2259 955.602C86.4794 958.747 98.2937 956.497 111.614 950.578C113.101 949.917 114.542 949.237 115.93 948.548C120.374 960.763 123.653 972.168 125.977 982.747C122.177 982.386 117.901 982.219 113.412 982.3C98.4878 982.57 86.8548 985.46 87.429 988.754C88.0039 992.048 100.568 994.5 115.491 994.229C120.068 994.147 124.334 993.816 128.034 993.304C130.31 1006.74 130.998 1018.67 130.6 1029.06C129.578 1028.76 128.534 1028.48 127.472 1028.21C115.642 1025.2 106.09 1025.39 106.136 1028.62C106.183 1031.85 115.812 1036.91 127.642 1039.91C128.33 1040.08 129.011 1040.24 129.682 1040.4C127.684 1056.23 123.047 1067.42 118.367 1073.73Z" fill="#008B84"/>
<path d="M-61.5596 807.162C-55.8307 805.428 -47.6342 805.003 -36.667 805.984C-25.8479 806.952 -13.2332 809.19 0.934346 812.124C28.8585 817.906 62.8792 826.438 97.2817 831.675C131.837 836.935 168.18 839.138 201.86 831.946C234.351 825.009 272.017 812.955 310.023 800.669C348.275 788.304 386.971 775.668 422.339 767.156C457.967 758.582 488.755 754.585 511.529 758.494C522.731 760.417 531.395 764.158 537.756 769.671C544.009 775.09 548.752 782.836 551.163 794.125C555.912 816.369 548.329 837.851 530.412 858.88C512.36 880.068 484.519 899.855 451.224 917.644C384.732 953.17 299.35 979.235 236.19 992.722C175.296 1005.72 103.536 992.311 44.0698 962.419C-15.6927 932.379 -60.4033 887.108 -70.7392 838.702C-73.3717 826.374 -72.6751 819.039 -70.9418 814.811C-69.4758 811.234 -66.8184 808.755 -61.5596 807.162Z" stroke="#93642D" stroke-width="21"/>
<path d="M65.7032 756.98C131.296 742.974 193.813 747.335 241.726 765.168C289.778 783.053 321.711 813.796 329.838 851.855C337.964 889.913 321.372 931.018 284.816 966.969C248.365 1002.82 193.081 1032.33 127.489 1046.34C61.8963 1060.34 -0.621162 1055.98 -48.5343 1038.15C-96.5859 1020.26 -128.52 989.52 -136.646 951.462C-144.773 913.404 -128.18 872.299 -91.6243 836.348C-55.1735 800.5 0.110699 770.986 65.7032 756.98Z" stroke="#714D22" stroke-width="21"/>
<path d="M123.08 855.407C130.496 879.258 78.7968 905.381 58.6356 919.337L59.8481 921.898C118.304 900.964 141.049 919.799 149.641 924.185C195.008 947.344 211.511 935.504 213.954 928.823C219.899 903.535 174.027 897.941 150.331 900.233C191.71 878.529 219.481 878.931 228.195 881.846C250.14 888.857 293.892 897.041 293.336 873.685C292.781 850.329 251.428 851.233 230.82 854.604C238.076 838.208 275.653 820.198 300.662 827.067C342.985 838.691 350.064 833.262 350.729 825.534C354.931 803.207 311.355 794.978 289.041 793.655C325.139 790.543 380.045 771.929 366.212 746.073C350.385 716.49 298.581 757.197 280.327 781.883C288.209 762.164 298.882 721.502 278.523 716.605C253.074 710.483 263.451 749.806 259.581 782.958C256.486 809.48 236.535 828.443 226.946 834.609C241.548 800.688 230.261 783.416 225.281 780.485C200.385 765.831 198.451 795.694 189.05 834.448C181.529 865.451 148.116 881.214 132.349 885.221C166.755 832.84 156.883 790.382 140.638 783.81C104.539 769.206 113.811 825.594 123.08 855.407Z" fill="#005B56"/>
</g>
<defs>
<clipPath id="clip0_9006_5939">
<rect width="390" height="844" fill="white"/>
</clipPath>
<clipPath id="clip1_9006_5939">
<path d="M10 295C10 283.954 18.9543 275 30 275H341C363.091 275 381 292.909 381 315V711C381 733.091 363.091 751 341 751H30C18.9543 751 10 742.046 10 731V295Z" fill="white"/>
</clipPath>
</defs>
</svg>
