<svg width="390" height="844" viewBox="0 0 390 844" fill="none" xmlns="http://www.w3.org/2000/svg">
<g clip-path="url(#clip0_9010_8721)">
<g filter="url(#filter0_f_9010_8721)">
<ellipse cx="717.5" cy="614.5" rx="1132.5" ry="490.5" fill="#C5EEFF" fill-opacity="0.48"/>
</g>
<path d="M114.15 207.256C121.835 193.855 141.165 193.855 148.85 207.256L241.199 368.301C248.845 381.634 239.219 398.25 223.849 398.25H39.1509C23.7811 398.25 14.1554 381.634 21.8011 368.301L114.15 207.256Z" fill="#12A7FA"/>
<path d="M-9.84985 181.256C-2.16506 167.855 17.165 167.855 24.8498 181.256L117.199 342.301C124.845 355.634 115.219 372.25 99.849 372.25H-84.8491C-100.219 372.25 -109.845 355.634 -102.199 342.301L-9.84985 181.256Z" fill="#55BEF9"/>
<ellipse cx="216.5" cy="683.5" rx="1132.5" ry="373.5" fill="#A9E25F"/>
<path d="M226.711 249.989V358.749V371.608V435.883H358.705V371.608V358.749V249.989H226.711Z" fill="#0074AD"/>
<path d="M41.3335 362.745V371.608V435.883H173.337V371.608V362.745V249.989H41.3335V362.745Z" fill="#0074AD"/>
<g opacity="0.8">
<path d="M226.71 249.989V358.749V371.608V435.883H358.704V371.608V358.749V249.989H226.71Z" fill="white"/>
<path d="M41.3333 362.745V371.608V435.883H173.337V371.608V362.745V249.989H41.3333V362.745Z" fill="white"/>
</g>
<path d="M200.218 253.375H364.039L339.595 224.797H200.218V253.375Z" fill="#0074AD"/>
<path d="M200.015 253.375H36L60.4438 224.797H200.015V253.375Z" fill="#0074AD"/>
<path d="M231.939 377.835H364.039V371.129H231.939V377.835Z" fill="#263238"/>
<path opacity="0.5" d="M231.939 377.835H364.039V371.129H231.939V377.835Z" fill="white"/>
<path d="M168.1 371.129H36V377.835H168.1V371.129Z" fill="#263238"/>
<path opacity="0.5" d="M168.1 371.129H36V377.835H168.1V371.129Z" fill="white"/>
<path d="M231.939 315.971H364.039V309.265H231.939V315.971Z" fill="#263238"/>
<g opacity="0.5">
<path d="M231.939 315.971H364.039V309.265H231.939V315.971Z" fill="white"/>
</g>
<path d="M168.1 309.265H36V315.971H168.1V309.265Z" fill="#263238"/>
<path opacity="0.5" d="M168.1 309.265H36V315.971H168.1V309.265Z" fill="white"/>
<path d="M200.218 185.949L159.11 215.118V322.63V328.792V435.677H241.334V328.792V322.63V215.118L200.218 185.949Z" fill="#0074AD"/>
<path opacity="0.7" d="M200.218 185.949L159.11 215.118V322.63V328.792V435.677H241.334V328.792V322.63V215.118L200.218 185.949Z" fill="white"/>
<path d="M155.031 219.957C154.365 218.869 154.128 217.547 154.371 216.275C154.614 215.004 155.317 213.884 156.329 213.157L200.245 182L244.143 213.195C245.153 213.923 245.854 215.043 246.097 216.314C246.339 217.585 246.104 218.906 245.441 219.995C245.118 220.53 244.697 220.992 244.205 221.354C243.712 221.715 243.156 221.968 242.57 222.099C241.984 222.23 241.379 222.236 240.791 222.116C240.203 221.996 239.643 221.753 239.144 221.402L200.218 193.78L161.292 221.402C160.792 221.747 160.233 221.984 159.647 222.098C159.061 222.213 158.46 222.203 157.877 222.068C157.295 221.934 156.743 221.678 156.255 221.316C155.766 220.953 155.35 220.492 155.031 219.957Z" fill="#0074AD"/>
<path d="M244.885 325.819H155.552V332.525H244.885V325.819Z" fill="#0074AD"/>
<path opacity="0.3" d="M244.885 325.819H155.552V332.525H244.885V325.819Z" fill="white"/>
<path d="M200.413 237.815C209.221 237.815 216.361 230.105 216.361 220.595C216.361 211.085 209.221 203.375 200.413 203.375C191.604 203.375 184.464 211.085 184.464 220.595C184.464 230.105 191.604 237.815 200.413 237.815Z" fill="#0074AD"/>
<path opacity="0.9" d="M200.412 234.607C207.577 234.607 213.385 228.334 213.385 220.595C213.385 212.856 207.577 206.583 200.412 206.583C193.248 206.583 187.44 212.856 187.44 220.595C187.44 228.334 193.248 234.607 200.412 234.607Z" fill="white"/>
<path opacity="0.3" d="M210.914 406.97C210.955 405.414 210.703 403.865 210.171 402.415C209.639 400.965 208.839 399.643 207.818 398.527C206.796 397.411 205.574 396.524 204.225 395.918C202.875 395.312 201.424 395 199.959 395C198.494 395 197.043 395.312 195.693 395.918C194.344 396.524 193.122 397.411 192.101 398.527C191.079 399.643 190.279 400.965 189.747 402.415C189.215 403.865 188.963 405.414 189.004 406.97V436.158H210.914V406.97Z" fill="black"/>
<path d="M76.7466 333H55V354.463H76.7466V333Z" fill="white"/>
<path d="M56.9746 334.949V350.113L72.3392 334.949H56.9746Z" fill="#65CBE0"/>
<path d="M74.7659 341.241L63.3506 352.514H74.7659V352.508V341.241Z" fill="#D0E8F6"/>
<path d="M74.7655 334.949H72.3392L56.9746 350.113V352.514H59.2783L74.7655 337.223V334.949Z" fill="#D0E8F6"/>
<path d="M110.747 333H89V354.463H110.747V333Z" fill="white"/>
<path d="M90.9746 334.949V350.113L106.339 334.949H90.9746Z" fill="#65CBE0"/>
<path d="M108.766 341.241L97.3506 352.514H108.766V352.508V341.241Z" fill="#D0E8F6"/>
<path d="M108.766 334.949H106.339L90.9746 350.113V352.514H93.2783L108.766 337.223V334.949Z" fill="#D0E8F6"/>
<path d="M144.747 333H123V354.463H144.747V333Z" fill="white"/>
<path d="M124.975 334.949V350.113L140.339 334.949H124.975Z" fill="#65CBE0"/>
<path d="M142.766 341.241L131.351 352.514H142.766V352.508V341.241Z" fill="#D0E8F6"/>
<path d="M142.766 334.949H140.339L124.975 350.113V352.514H127.278L142.766 337.223V334.949Z" fill="#D0E8F6"/>
<path d="M76.7466 395H55V416.463H76.7466V395Z" fill="white"/>
<path d="M56.9746 396.949V412.113L72.3392 396.949H56.9746Z" fill="#65CBE0"/>
<path d="M74.7659 403.241L63.3506 414.514H74.7659V414.508V403.241Z" fill="#D0E8F6"/>
<path d="M74.7655 396.949H72.3392L56.9746 412.113V414.514H59.2783L74.7655 399.223V396.949Z" fill="#D0E8F6"/>
<path d="M110.747 395H89V416.463H110.747V395Z" fill="white"/>
<path d="M90.9746 396.949V412.113L106.339 396.949H90.9746Z" fill="#65CBE0"/>
<path d="M108.766 403.241L97.3506 414.514H108.766V414.508V403.241Z" fill="#D0E8F6"/>
<path d="M108.766 396.949H106.339L90.9746 412.113V414.514H93.2783L108.766 399.223V396.949Z" fill="#D0E8F6"/>
<path d="M144.747 395H123V416.463H144.747V395Z" fill="white"/>
<path d="M124.975 396.949V412.113L140.339 396.949H124.975Z" fill="#65CBE0"/>
<path d="M142.766 403.241L131.351 414.514H142.766V414.508V403.241Z" fill="#D0E8F6"/>
<path d="M142.766 396.949H140.339L124.975 412.113V414.514H127.278L142.766 399.223V396.949Z" fill="#D0E8F6"/>
<path d="M76.7466 270H55V291.463H76.7466V270Z" fill="white"/>
<path d="M56.9746 271.949V287.113L72.3392 271.949H56.9746Z" fill="#65CBE0"/>
<path d="M74.7659 278.241L63.3506 289.514H74.7659V289.508V278.241Z" fill="#D0E8F6"/>
<path d="M74.7655 271.949H72.3392L56.9746 287.113V289.514H59.2783L74.7655 274.223V271.949Z" fill="#D0E8F6"/>
<path d="M110.747 270H89V291.463H110.747V270Z" fill="white"/>
<path d="M90.9746 271.949V287.113L106.339 271.949H90.9746Z" fill="#65CBE0"/>
<path d="M108.766 278.241L97.3506 289.514H108.766V289.508V278.241Z" fill="#D0E8F6"/>
<path d="M108.766 271.949H106.339L90.9746 287.113V289.514H93.2783L108.766 274.223V271.949Z" fill="#D0E8F6"/>
<path d="M144.747 270H123V291.463H144.747V270Z" fill="white"/>
<path d="M124.975 271.949V287.113L140.339 271.949H124.975Z" fill="#65CBE0"/>
<path d="M142.766 278.241L131.351 289.514H142.766V289.508V278.241Z" fill="#D0E8F6"/>
<path d="M142.766 271.949H140.339L124.975 287.113V289.514H127.278L142.766 274.223V271.949Z" fill="#D0E8F6"/>
<path d="M278.747 395H257V416.463H278.747V395Z" fill="white"/>
<path d="M258.975 396.949V412.113L274.339 396.949H258.975Z" fill="#65CBE0"/>
<path d="M276.766 403.241L265.351 414.514H276.766V414.508V403.241Z" fill="#D0E8F6"/>
<path d="M276.766 396.949H274.339L258.975 412.113V414.514H261.278L276.766 399.223V396.949Z" fill="#D0E8F6"/>
<path d="M312.747 395H291V416.463H312.747V395Z" fill="white"/>
<path d="M292.975 396.949V412.113L308.339 396.949H292.975Z" fill="#65CBE0"/>
<path d="M310.766 403.241L299.351 414.514H310.766V414.508V403.241Z" fill="#D0E8F6"/>
<path d="M310.766 396.949H308.339L292.975 412.113V414.514H295.278L310.766 399.223V396.949Z" fill="#D0E8F6"/>
<path d="M346.747 395H325V416.463H346.747V395Z" fill="white"/>
<path d="M326.975 396.949V412.113L342.339 396.949H326.975Z" fill="#65CBE0"/>
<path d="M344.766 403.241L333.351 414.514H344.766V414.508V403.241Z" fill="#D0E8F6"/>
<path d="M344.766 396.949H342.339L326.975 412.113V414.514H329.278L344.766 399.223V396.949Z" fill="#D0E8F6"/>
<path d="M278.747 333H257V354.463H278.747V333Z" fill="white"/>
<path d="M258.975 334.949V350.113L274.339 334.949H258.975Z" fill="#65CBE0"/>
<path d="M276.766 341.241L265.351 352.514H276.766V352.508V341.241Z" fill="#D0E8F6"/>
<path d="M276.766 334.949H274.339L258.975 350.113V352.514H261.278L276.766 337.223V334.949Z" fill="#D0E8F6"/>
<path d="M312.747 333H291V354.463H312.747V333Z" fill="white"/>
<path d="M292.975 334.949V350.113L308.339 334.949H292.975Z" fill="#65CBE0"/>
<path d="M310.766 341.241L299.351 352.514H310.766V352.508V341.241Z" fill="#D0E8F6"/>
<path d="M310.766 334.949H308.339L292.975 350.113V352.514H295.278L310.766 337.223V334.949Z" fill="#D0E8F6"/>
<path d="M346.747 333H325V354.463H346.747V333Z" fill="white"/>
<path d="M326.975 334.949V350.113L342.339 334.949H326.975Z" fill="#65CBE0"/>
<path d="M344.766 341.241L333.351 352.514H344.766V352.508V341.241Z" fill="#D0E8F6"/>
<path d="M344.766 334.949H342.339L326.975 350.113V352.514H329.278L344.766 337.223V334.949Z" fill="#D0E8F6"/>
<path d="M277.747 270H256V291.463H277.747V270Z" fill="white"/>
<path d="M257.975 271.949V287.113L273.339 271.949H257.975Z" fill="#65CBE0"/>
<path d="M275.766 278.241L264.351 289.514H275.766V289.508V278.241Z" fill="#D0E8F6"/>
<path d="M275.766 271.949H273.339L257.975 287.113V289.514H260.278L275.766 274.223V271.949Z" fill="#D0E8F6"/>
<path d="M311.747 270H290V291.463H311.747V270Z" fill="white"/>
<path d="M291.975 271.949V287.113L307.339 271.949H291.975Z" fill="#65CBE0"/>
<path d="M309.766 278.241L298.351 289.514H309.766V289.508V278.241Z" fill="#D0E8F6"/>
<path d="M309.766 271.949H307.339L291.975 287.113V289.514H294.278L309.766 274.223V271.949Z" fill="#D0E8F6"/>
<path d="M345.747 270H324V291.463H345.747V270Z" fill="white"/>
<path d="M325.975 271.949V287.113L341.339 271.949H325.975Z" fill="#65CBE0"/>
<path d="M343.766 278.241L332.351 289.514H343.766V289.508V278.241Z" fill="#D0E8F6"/>
<path d="M343.766 271.949H341.339L325.975 287.113V289.514H328.278L343.766 274.223V271.949Z" fill="#D0E8F6"/>
<rect x="147.505" y="425.132" width="12.2434" height="21.2943" fill="#CA914E"/>
<ellipse cx="153.626" cy="410.889" rx="25.6257" ry="24.8895" fill="#0CA46D"/>
<ellipse cx="153.789" cy="410.646" rx="16.9749" ry="16.4853" fill="#109B69"/>
<rect x="340.542" y="435.265" width="17.9167" height="31.1616" fill="#CA914E"/>
<ellipse cx="349.5" cy="414.423" rx="37.5" ry="36.4226" fill="#0CA46D"/>
<ellipse cx="349.739" cy="414.067" rx="24.8407" ry="24.1241" fill="#109B69"/>
<path d="M72 438.994C72 434.453 68.7453 430.769 64.7241 430.769C64.6769 430.769 64.6296 430.775 64.5771 430.78C64.7766 429.469 64.8816 428.127 64.8816 426.751C64.8816 413.635 55.4692 403 43.8624 403C34.5917 403 26.7278 409.79 23.9351 419.201C22.5859 418.656 21.1318 418.343 19.6094 418.343C12.6433 418.343 7 424.562 7 432.231C7 435.558 8.06566 438.611 9.83476 441H71.7638C71.9055 440.358 71.9895 439.684 71.9895 438.988L72 438.994Z" fill="#82C241"/>
<path d="M96.3053 525.804C96.3053 520.823 92.1797 516.792 87.0829 516.792C87.0187 516.792 86.9625 516.8 86.8983 516.8C87.1472 515.365 87.2836 513.89 87.2836 512.384C87.2836 498.007 75.3563 486.352 60.6439 486.352C48.8932 486.352 38.9244 493.788 35.3848 504.109C33.6751 503.513 31.8291 503.168 29.9027 503.168C21.0737 503.168 13.9221 509.984 13.9221 518.384C13.9221 522.031 15.2705 525.373 17.5179 528H96.0164C96.201 527.294 96.3053 526.557 96.3053 525.796V525.804Z" fill="#0CA46D"/>
<path d="M96.3053 525.804C96.3053 520.823 92.1797 516.792 87.0829 516.792C87.0187 516.792 86.9625 516.8 86.8983 516.8C87.1472 515.365 87.2836 513.89 87.2836 512.384C87.2836 498.007 75.3563 486.352 60.6439 486.352C48.8932 486.352 38.9244 493.788 35.3848 504.109C33.6751 503.513 31.8291 503.168 29.9027 503.168C21.0737 503.168 13.9221 509.984 13.9221 518.384C13.9221 522.031 15.2705 525.373 17.5179 528H96.0164C96.201 527.294 96.3053 526.557 96.3053 525.796V525.804Z" fill="#0CA46D"/>
<rect x="47.3181" y="430.645" width="20.913" height="95.7878" fill="#93642D"/>
<rect x="47.374" y="395.229" width="20.913" height="95.7878" fill="#714D22"/>
<rect x="20.6631" y="393.175" width="75.6851" height="73.5341" rx="36.767" fill="#0CA46D"/>
<rect x="24.4736" y="346.349" width="69.262" height="67.2935" rx="33.6468" fill="#109B69"/>
<rect x="29.5525" y="310" width="58.5752" height="56.9104" rx="28.4552" fill="#0CA46D"/>
<path d="M96.0337 425.965C96.2111 427.429 96.3042 428.92 96.3042 430.433C96.3042 450.738 79.8434 467.2 59.5376 467.2H57.3862C37.0805 467.2 20.6196 450.738 20.6196 430.433C20.6196 428.92 20.7117 427.429 20.8892 425.965C23.0937 444.164 38.5928 458.265 57.3862 458.265H59.5376C78.3311 458.265 93.8291 444.164 96.0337 425.965Z" fill="#109B69"/>
<rect x="3.03076" y="442.915" width="24.1428" height="83.8171" fill="#93642D"/>
<rect x="3.09546" y="411.925" width="24.1428" height="83.8171" fill="#714D22"/>
<path d="M67.3338 445.822C67.3338 467.751 43.1947 485.528 13.4176 485.528C-16.3595 485.528 -40.4985 467.751 -40.4985 445.822C-40.4985 423.894 -16.3595 379.647 13.4176 379.647C43.1947 379.647 67.3338 423.894 67.3338 445.822Z" fill="#0CA46D"/>
<path d="M65.6992 436.516C66.4412 439.888 66.832 443.036 66.832 445.823C66.832 467.751 42.693 485.528 12.916 485.528C-16.8609 485.528 -40.9999 467.751 -41 445.823C-41 443.036 -40.6092 439.888 -39.8672 436.516C-34.7708 454.543 -13.0753 468.087 12.916 468.087C38.9074 468.087 60.6028 454.543 65.6992 436.516Z" fill="#109B69"/>
<path d="M58.5108 394.985C58.5108 412.796 38.5201 427.235 13.8603 427.235C-10.7995 427.235 -30.7903 412.796 -30.7903 394.985C-30.7903 377.174 -10.7996 341.236 13.8603 341.236C38.5201 341.236 58.5108 377.174 58.5108 394.985Z" fill="#0CA46D"/>
<path d="M174 524.295C174 517.369 168.231 511.763 161.104 511.763C161.014 511.763 160.935 511.774 160.846 511.774C161.194 509.778 161.384 507.728 161.384 505.633C161.384 485.641 144.706 469.433 124.132 469.433C107.7 469.433 93.7602 479.773 88.8104 494.126C86.4197 493.297 83.8382 492.818 81.1445 492.818C68.7981 492.818 58.7976 502.296 58.7976 513.977C58.7976 519.049 60.6832 523.695 63.8259 527.349H173.596C173.854 526.368 174 525.342 174 524.284V524.295Z" fill="#0CA46D"/>
<path d="M174 524.295C174 517.369 168.231 511.763 161.104 511.763C161.014 511.763 160.935 511.774 160.846 511.774C161.194 509.778 161.384 507.728 161.384 505.633C161.384 485.641 144.706 469.433 124.132 469.433C107.7 469.433 93.7602 479.773 88.8104 494.126C86.4197 493.297 83.8382 492.818 81.1445 492.818C68.7981 492.818 58.7976 502.296 58.7976 513.977C58.7976 519.049 60.6832 523.695 63.8259 527.349H173.596C173.854 526.368 174 525.342 174 524.284V524.295Z" fill="#82C241"/>
<path d="M87.8953 122.485L78.9708 124C76.882 110.332 74.8566 94.9469 72.8944 77.8449C72.8311 77.9123 72.7995 77.9796 72.7995 78.0469C72.7362 78.2489 72.7046 78.3836 72.7046 78.4509C71.8817 81.8848 71.0272 85.6553 70.1411 89.7624L68.2423 98.4481C67.6726 101.007 67.2612 102.892 67.008 104.104C67.008 104.239 66.8181 105.046 66.4384 106.528C66.1219 107.942 65.9003 108.985 65.7738 109.659L57.0391 110.063L55.425 105.013L54.6655 102.488L53.906 99.862L52.3869 94.8122L50.0133 86.2276C49.95 87.1702 49.8867 88.4158 49.8234 89.9644C49.2538 104.508 48.6841 114.91 48.1145 121.172L39 120.263C39.5697 114.001 40.1393 103.969 40.709 90.1664C41.2786 76.2963 41.9432 65.6581 42.7028 58.2518L51.6273 57.5448C53.3996 64.2779 55.2668 71.1792 57.2289 78.2489L60.1722 88.5505L60.6469 90.2674L61.2165 87.5405C62.1659 83.4334 63.0521 79.5955 63.8749 76.027C64.8876 71.7852 65.9003 67.9474 66.9131 64.5135C68.1157 60.2044 69.3499 56.3665 70.6158 53L79.4455 54.2119C82.2937 81.2788 85.1104 104.037 87.8953 122.485Z" fill="black" fill-opacity="0.5"/>
<path d="M105.52 84.5107C105.646 92.6577 105.994 101.815 106.564 111.982L97.4497 112.486C96.88 102.185 96.5319 92.927 96.4053 84.7127L105.52 84.5107ZM104.475 77.744C103.526 78.8212 102.355 79.3936 100.963 79.4609C99.57 79.5282 98.3674 79.0569 97.3547 78.0469C96.342 76.9697 95.804 75.6904 95.7407 74.2091C95.6774 72.7278 96.1205 71.4486 97.0699 70.3713C98.0826 69.294 99.2852 68.7217 100.678 68.6543C101.627 68.6543 102.482 68.89 103.241 69.3613C104.064 69.7653 104.697 70.3713 105.14 71.1792C105.646 71.9872 105.9 72.8962 105.9 73.9061C105.963 75.3874 105.488 76.6667 104.475 77.744Z" fill="black" fill-opacity="0.5"/>
<path d="M143.144 95.3172C143.271 98.2124 143.429 104.609 143.619 114.506L134.505 114.708C134.315 105.013 134.157 98.7511 134.03 95.9232C133.903 94.1053 133.777 92.5903 133.65 91.3784C133.65 91.1764 133.587 90.4021 133.46 89.0555L133.365 87.9445L133.175 86.9346C132.986 85.588 132.732 84.4433 132.416 83.5007C132.036 82.6927 131.625 82.1204 131.182 81.7838C131.118 81.7165 131.023 81.6155 130.897 81.4808C130.834 81.4808 130.707 81.5145 130.517 81.5818C130.327 81.5818 130.106 81.6491 129.852 81.7838C129.726 81.8511 129.599 81.9184 129.473 81.9858C129.409 82.0531 129.314 82.1541 129.188 82.2888C128.682 82.8947 128.238 83.7027 127.859 84.7127C127.669 85.2513 127.479 85.8573 127.289 86.5306L126.719 88.7525C124.947 95.4855 123.934 101.377 123.681 106.427H123.586C123.586 108.312 123.555 110.063 123.491 111.679L114.377 111.376C114.567 105.248 114.662 91.816 114.662 71.0782H123.776C123.776 72.2229 123.776 73.3675 123.776 74.5121C123.776 74.5121 123.808 74.4784 123.871 74.4111C123.934 74.3438 123.966 74.3101 123.966 74.3101C124.409 73.9061 124.915 73.5358 125.485 73.1991C126.624 72.5932 127.795 72.1892 128.998 71.9872C130.454 71.7179 131.815 71.7515 133.081 72.0882C133.777 72.2902 134.441 72.5595 135.074 72.8962C135.517 73.1655 136.055 73.5358 136.688 74.0071C137.574 74.6804 138.429 75.5894 139.252 76.734C139.821 77.6766 140.328 78.6866 140.771 79.7639C141.404 81.4471 141.879 83.366 142.195 85.5206L142.29 86.1266L142.385 86.8336L142.48 88.0455C142.67 89.3921 142.765 90.2001 142.765 90.4694C142.891 91.816 143.018 93.432 143.144 95.3172Z" fill="black" fill-opacity="0.5"/>
<path d="M173.21 56.2319L182.324 56.8378C181.628 67.2067 181.059 76.8013 180.615 85.6216C180.046 96.5292 179.666 106.056 179.476 114.203L170.362 114.001C170.362 113.665 170.362 113.227 170.362 112.688C170.362 112.083 170.362 111.712 170.362 111.578C170.045 111.645 169.76 111.712 169.507 111.78C169.381 111.847 169.127 111.914 168.748 111.982C168.305 112.049 168.02 112.083 167.893 112.083C167.324 112.083 166.849 112.083 166.469 112.083C165.646 112.083 164.728 111.982 163.716 111.78C161.943 111.308 160.266 110.568 158.684 109.558C157.291 108.548 155.994 107.302 154.791 105.821C154.538 105.417 154.285 105.046 154.032 104.71C153.589 103.969 153.335 103.565 153.272 103.498C152.956 102.825 152.734 102.387 152.607 102.185C152.418 101.646 152.259 101.209 152.133 100.872C151.563 99.0541 151.278 97.1688 151.278 95.2162C151.278 93.331 151.595 91.4794 152.228 89.6614L152.418 88.9545L152.702 88.3485C152.766 88.0792 152.956 87.6415 153.272 87.0356C153.335 86.9009 153.557 86.4969 153.937 85.8236C154 85.689 154.127 85.487 154.316 85.2176L154.791 84.6117C155.93 83.0631 157.418 81.8174 159.253 80.8748C160.899 79.9995 162.64 79.4609 164.475 79.2589C166.944 78.9222 169.381 79.2926 171.786 80.3698C172.229 72.6268 172.704 64.5808 173.21 56.2319ZM170.836 98.4481C170.9 96.8321 170.995 95.0816 171.121 93.1963C170.995 92.4557 170.805 91.8834 170.552 91.4794C170.298 90.8734 169.919 90.3684 169.412 89.9644C168.21 89.0218 166.88 88.6515 165.425 88.8535C163.842 89.0555 162.64 89.6951 161.817 90.7724C161.817 90.8397 161.785 90.9071 161.722 90.9744C161.659 91.0417 161.595 91.1091 161.532 91.1764C161.532 91.1764 161.5 91.2437 161.437 91.3784C161.374 91.513 161.311 91.614 161.247 91.6814C161.121 91.9507 161.057 92.119 161.057 92.1863L160.867 92.4893L160.773 92.7923C160.519 93.6003 160.393 94.4419 160.393 95.3172C160.393 96.1252 160.519 96.8995 160.773 97.6401C160.773 97.7748 160.836 97.9431 160.962 98.1451C160.962 98.2124 160.994 98.3134 161.057 98.4481C161.121 98.5827 161.152 98.6501 161.152 98.6501C161.216 98.7174 161.279 98.8184 161.342 98.9531C161.405 99.0204 161.437 99.0877 161.437 99.155C161.564 99.2897 161.69 99.458 161.817 99.66C162.956 101.074 164.254 101.949 165.71 102.286C166.089 102.353 166.406 102.387 166.659 102.387C166.722 102.387 166.88 102.387 167.134 102.387H167.513C168.02 102.185 168.526 101.882 169.033 101.478C169.602 101.007 170.045 100.468 170.362 99.862C170.615 99.3907 170.773 98.9194 170.836 98.4481Z" fill="black" fill-opacity="0.5"/>
<path d="M213.483 103.599V104.104C213.673 105.383 213.641 106.696 213.388 108.043C213.135 109.457 212.628 110.736 211.869 111.881C210.413 114.102 208.451 115.617 205.982 116.425C204.906 116.762 203.767 116.93 202.564 116.93C201.425 116.93 200.286 116.796 199.146 116.526C196.931 115.853 195.001 114.574 193.355 112.688C192.026 111.005 191.013 109.053 190.317 106.831L199.051 104.003C199.305 104.878 199.684 105.585 200.191 106.124C200.57 106.662 201.045 106.999 201.615 107.134C201.931 107.201 202.216 107.235 202.469 107.235C202.786 107.235 203.071 107.201 203.324 107.134C203.767 106.999 204.115 106.763 204.368 106.427C204.431 106.359 204.463 106.225 204.463 106.023C204.526 105.821 204.526 105.619 204.463 105.417V105.215C204.4 105.08 204.368 104.979 204.368 104.912C204.368 104.844 204.337 104.811 204.273 104.811C204.273 104.811 204.273 104.777 204.273 104.71C204.21 104.642 204.178 104.609 204.178 104.609C204.178 104.541 204.147 104.508 204.083 104.508C204.083 104.44 204.083 104.407 204.083 104.407L203.988 104.306C203.925 104.306 203.893 104.306 203.893 104.306C203.767 104.104 203.419 103.801 202.849 103.397C202.406 103.128 201.9 102.825 201.33 102.488L199.336 101.377C198.513 100.838 197.754 100.333 197.058 99.862L195.918 98.8521C195.539 98.5154 195.19 98.1788 194.874 97.8421C194.178 97.1688 193.513 96.3945 192.88 95.5192C192.31 94.5766 191.836 93.6003 191.456 92.5903C191.013 91.513 190.696 90.4358 190.507 89.3585C190.317 88.0792 190.253 86.9009 190.317 85.8236C190.443 84.7463 190.665 83.6017 190.981 82.3898C191.741 79.8985 193.102 77.8786 195.064 76.33C196.963 74.7814 199.146 73.9734 201.615 73.9061C204.02 73.8388 206.235 74.4448 208.261 75.724L208.925 76.229C209.305 76.4983 209.558 76.6667 209.685 76.734C209.938 77.0033 210.16 77.239 210.35 77.441C210.539 77.5756 210.761 77.8113 211.014 78.1479C211.71 78.9559 212.312 79.8985 212.818 80.9758C213.704 82.7937 214.305 84.78 214.622 86.9346L205.602 88.3485C205.413 87.2712 205.128 86.2949 204.748 85.4196C204.558 85.083 204.368 84.78 204.178 84.5107C204.052 84.4433 203.988 84.4097 203.988 84.4097C203.988 84.3423 203.988 84.3087 203.988 84.3087C203.988 84.3087 203.957 84.275 203.893 84.2077C203.83 84.2077 203.799 84.2077 203.799 84.2077C203.735 84.1403 203.672 84.1067 203.609 84.1067C203.102 83.77 202.533 83.6017 201.9 83.6017C201.33 83.6017 200.887 83.77 200.57 84.1067C200.127 84.4433 199.811 84.9146 199.621 85.5206C199.494 85.9246 199.431 86.2613 199.431 86.5306C199.431 86.7999 199.463 87.1702 199.526 87.6415C199.589 87.9782 199.684 88.3485 199.811 88.7525C200.001 89.1565 200.222 89.5268 200.476 89.8634C200.729 90.3348 201.014 90.7051 201.33 90.9744C201.457 91.1091 201.615 91.2774 201.805 91.4794L202.09 91.7824L202.374 91.9844C202.754 92.2537 203.229 92.5567 203.799 92.8933L205.697 93.9033C206.457 94.3746 207.153 94.8459 207.786 95.3172C208.862 96.0578 209.685 96.6975 210.255 97.2361C210.381 97.4381 210.476 97.5391 210.539 97.5391L210.824 97.9431C211.141 98.3471 211.331 98.5827 211.394 98.6501C211.837 99.3234 212.185 99.8957 212.438 100.367C212.628 100.704 212.881 101.343 213.198 102.286L213.388 103.195L213.483 103.599Z" fill="black" fill-opacity="0.5"/>
<path d="M245.463 98.9531C245.59 104.138 245.59 109.255 245.463 114.304L236.349 113.9C236.349 113.766 236.349 113.496 236.349 113.092C236.349 112.688 236.349 112.486 236.349 112.486C236.032 112.554 235.811 112.587 235.684 112.587C235.051 112.722 234.387 112.823 233.691 112.89C233.058 112.958 232.709 112.991 232.646 112.991C232.077 112.991 231.697 112.958 231.507 112.89C228.342 112.554 225.684 111.14 223.532 108.649C222.392 107.369 221.57 105.922 221.063 104.306C220.557 102.623 220.399 100.939 220.588 99.256C220.715 97.6401 221.158 96.0915 221.918 94.6102C222.234 93.9369 222.646 93.23 223.152 92.4893C223.658 91.8834 224.196 91.311 224.766 90.7724C226.981 88.6852 229.608 87.5405 232.646 87.3385C233.722 87.2712 234.798 87.3049 235.874 87.4395C235.748 86.2949 235.653 85.3523 235.589 84.6117C235.463 83.5344 235.273 82.5917 235.02 81.7838C234.767 80.9758 234.45 80.2688 234.07 79.6629C233.754 79.1916 233.469 78.8886 233.216 78.7539C232.836 78.5519 232.488 78.4846 232.171 78.5519C232.045 78.5519 231.918 78.5856 231.792 78.6529C231.665 78.7202 231.539 78.7876 231.412 78.8549C231.222 79.0569 231.095 79.2252 231.032 79.3599H230.937C230.937 79.3599 230.906 79.4272 230.842 79.5619L230.652 79.9659L230.273 80.5718C230.083 80.9085 229.956 81.1441 229.893 81.2788C229.83 81.4135 229.798 81.6828 229.798 82.0868C229.735 82.6927 229.671 83.8037 229.608 85.4196L220.494 85.2176C220.557 83.2651 220.62 81.8848 220.683 81.0768C220.81 79.9322 221 78.9559 221.253 78.1479C221.506 77.34 221.918 76.4647 222.487 75.522C222.614 75.2527 222.804 74.9161 223.057 74.5121L223.342 74.1081L223.437 73.9061L223.627 73.6031C224.196 72.7952 224.893 72.0209 225.715 71.2802C227.361 69.8663 229.26 69.0583 231.412 68.8563C233.437 68.6543 235.399 69.0583 237.298 70.0683C238.184 70.5396 239.007 71.1792 239.767 71.9872C240.4 72.5932 241.001 73.3338 241.571 74.2091C242.457 75.5557 243.153 77.1043 243.659 78.8549C244.103 80.2015 244.419 81.6828 244.609 83.2987C244.735 84.376 244.862 85.7563 244.989 87.4395C245.052 88.8535 245.115 90.1328 245.179 91.2774C245.305 93.5666 245.4 95.9905 245.463 98.5491C245.463 98.5491 245.463 98.6164 245.463 98.7511C245.527 98.8184 245.558 98.8521 245.558 98.8521H245.463V98.9531ZM235.21 102.589C235.526 102.387 235.811 102.118 236.064 101.781C236.191 101.579 236.317 101.343 236.444 101.074C236.381 99.7947 236.349 99.155 236.349 99.155C236.286 98.4817 236.032 97.9768 235.589 97.6401C235.336 97.3708 235.02 97.2025 234.64 97.1351C234.197 97.0005 233.754 96.9668 233.311 97.0341C232.298 97.1015 231.444 97.4381 230.747 98.0441C230.114 98.5827 229.735 99.3234 229.608 100.266C229.608 100.603 229.64 100.939 229.703 101.276C229.83 101.545 229.988 101.815 230.178 102.084C230.811 102.825 231.539 103.229 232.361 103.296C232.361 103.296 232.393 103.296 232.456 103.296C232.52 103.296 232.583 103.296 232.646 103.296C232.646 103.296 232.678 103.296 232.741 103.296C232.868 103.296 232.963 103.296 233.026 103.296C233.279 103.229 233.564 103.161 233.88 103.094C234.323 103.027 234.767 102.858 235.21 102.589Z" fill="black" fill-opacity="0.5"/>
<path d="M276.049 83.1977L276.239 92.8933L267.124 93.0953C267.314 100.232 267.726 107.201 268.359 114.001L259.244 114.91C258.611 107.841 258.2 100.67 258.01 93.3983L253.643 93.4993L253.453 83.8037L257.82 83.7027C257.82 80.6728 257.852 77.8786 257.915 75.3201C257.978 72.7615 258.042 71.0109 258.105 70.0683C258.231 67.8464 258.58 65.8601 259.149 64.1095C259.529 63.0322 260.004 61.9886 260.573 60.9787C261.206 59.9014 261.934 58.9251 262.757 58.0498C263.706 57.0398 264.751 56.2655 265.89 55.7269C267.219 55.1209 268.612 54.8179 270.068 54.8179C271.333 54.8179 272.631 55.0872 273.96 55.6259C275.036 56.0972 276.049 56.7368 276.998 57.5448C277.884 58.2854 278.707 59.1271 279.467 60.0697C279.847 60.6083 280.163 61.0797 280.416 61.4836C280.48 61.6183 280.606 61.8876 280.796 62.2916L280.986 62.6956L281.176 62.9986C281.619 64.0085 281.999 64.9512 282.315 65.8265C282.632 66.8364 282.885 67.88 283.075 68.9573C283.265 70.3039 283.391 72.1892 283.454 74.6131L274.34 74.7141C274.277 72.8288 274.182 71.4822 274.055 70.6743C273.865 69.597 273.517 68.486 273.011 67.3414L272.821 66.9374C272.694 66.8027 272.631 66.7018 272.631 66.6344C272.568 66.5671 272.473 66.3988 272.346 66.1294C272.03 65.7928 271.713 65.4898 271.397 65.2205C270.89 64.7492 270.416 64.5135 269.973 64.5135C269.846 64.5135 269.719 64.5472 269.593 64.6145C269.403 64.6818 269.213 64.8165 269.023 65.0185C268.517 65.5571 268.105 66.3314 267.789 67.3414C267.472 68.284 267.283 69.4623 267.219 70.8762C267.156 71.6169 267.093 73.1655 267.029 75.522C266.966 77.9459 266.934 80.5718 266.934 83.3997L276.049 83.1977Z" fill="black" fill-opacity="0.5"/>
<path d="M312.776 98.9531C312.903 104.138 312.903 109.255 312.776 114.304L303.662 113.9C303.662 113.766 303.662 113.496 303.662 113.092C303.662 112.688 303.662 112.486 303.662 112.486C303.345 112.554 303.124 112.587 302.997 112.587C302.364 112.722 301.699 112.823 301.003 112.89C300.37 112.958 300.022 112.991 299.959 112.991C299.389 112.991 299.009 112.958 298.82 112.89C295.655 112.554 292.996 111.14 290.844 108.649C289.705 107.369 288.882 105.922 288.376 104.306C287.87 102.623 287.711 100.939 287.901 99.256C288.028 97.6401 288.471 96.0915 289.23 94.6102C289.547 93.9369 289.958 93.23 290.465 92.4893C290.971 91.8834 291.509 91.311 292.079 90.7724C294.294 88.6852 296.921 87.5405 299.959 87.3385C301.035 87.2712 302.111 87.3049 303.187 87.4395C303.06 86.2949 302.965 85.3523 302.902 84.6117C302.775 83.5344 302.586 82.5917 302.332 81.7838C302.079 80.9758 301.763 80.2688 301.383 79.6629C301.067 79.1916 300.782 78.8886 300.528 78.7539C300.149 78.5519 299.801 78.4846 299.484 78.5519C299.358 78.5519 299.231 78.5856 299.104 78.6529C298.978 78.7202 298.851 78.7876 298.725 78.8549C298.535 79.0569 298.408 79.2252 298.345 79.3599H298.25C298.25 79.3599 298.218 79.4272 298.155 79.5619L297.965 79.9659L297.585 80.5718C297.395 80.9085 297.269 81.1441 297.206 81.2788C297.142 81.4135 297.111 81.6828 297.111 82.0868C297.047 82.6927 296.984 83.8037 296.921 85.4196L287.806 85.2176C287.87 83.2651 287.933 81.8848 287.996 81.0768C288.123 79.9322 288.313 78.9559 288.566 78.1479C288.819 77.34 289.23 76.4647 289.8 75.522C289.927 75.2527 290.116 74.9161 290.37 74.5121L290.654 74.1081L290.749 73.9061L290.939 73.6031C291.509 72.7952 292.205 72.0209 293.028 71.2802C294.674 69.8663 296.573 69.0583 298.725 68.8563C300.75 68.6543 302.712 69.0583 304.611 70.0683C305.497 70.5396 306.32 71.1792 307.08 71.9872C307.712 72.5932 308.314 73.3338 308.883 74.2091C309.77 75.5557 310.466 77.1043 310.972 78.8549C311.415 80.2015 311.732 81.6828 311.922 83.2987C312.048 84.376 312.175 85.7563 312.301 87.4395C312.365 88.8535 312.428 90.1328 312.491 91.2774C312.618 93.5666 312.713 95.9905 312.776 98.5491C312.776 98.5491 312.776 98.6164 312.776 98.7511C312.839 98.8184 312.871 98.8521 312.871 98.8521H312.776V98.9531ZM302.522 102.589C302.839 102.387 303.124 102.118 303.377 101.781C303.503 101.579 303.63 101.343 303.757 101.074C303.693 99.7947 303.662 99.155 303.662 99.155C303.598 98.4817 303.345 97.9768 302.902 97.6401C302.649 97.3708 302.332 97.2025 301.953 97.1351C301.51 97.0005 301.067 96.9668 300.623 97.0341C299.611 97.1015 298.756 97.4381 298.06 98.0441C297.427 98.5827 297.047 99.3234 296.921 100.266C296.921 100.603 296.952 100.939 297.016 101.276C297.142 101.545 297.3 101.815 297.49 102.084C298.123 102.825 298.851 103.229 299.674 103.296C299.674 103.296 299.706 103.296 299.769 103.296C299.832 103.296 299.896 103.296 299.959 103.296C299.959 103.296 299.99 103.296 300.054 103.296C300.18 103.296 300.275 103.296 300.339 103.296C300.592 103.229 300.877 103.161 301.193 103.094C301.636 103.027 302.079 102.858 302.522 102.589Z" fill="black" fill-opacity="0.5"/>
<path d="M343.077 75.0171L343.552 84.7127C341.779 84.8473 340.102 85.2176 338.52 85.8236C337.76 86.1603 337.032 86.5642 336.336 87.0356C336.019 87.2376 335.671 87.4732 335.292 87.7425L334.912 88.1465L334.437 88.5505C333.171 89.7624 332.222 91.1091 331.589 92.5903C330.956 94.0716 330.639 95.6539 330.639 97.3371H330.544C330.734 103.06 330.956 108.278 331.209 112.991L322.095 113.496C321.462 100.906 321.019 88.2812 320.765 75.623L329.88 75.4211C329.88 75.9597 329.88 76.8013 329.88 77.9459C329.943 79.0906 329.975 79.7302 329.975 79.8649C330.544 79.3936 331.051 79.0232 331.494 78.7539C332.696 78.0133 333.931 77.3736 335.197 76.835C337.665 75.825 340.292 75.2191 343.077 75.0171Z" fill="black" fill-opacity="0.5"/>
<path d="M360.956 84.5107C361.082 92.6577 361.43 101.815 362 111.982L352.886 112.486C352.316 102.185 351.968 92.927 351.841 84.7127L360.956 84.5107ZM359.911 77.744C358.962 78.8212 357.791 79.3936 356.398 79.4609C355.006 79.5282 353.803 79.0569 352.791 78.0469C351.778 76.9697 351.24 75.6904 351.177 74.2091C351.113 72.7278 351.556 71.4486 352.506 70.3713C353.518 69.294 354.721 68.7217 356.114 68.6543C357.063 68.6543 357.917 68.89 358.677 69.3613C359.5 69.7653 360.133 70.3713 360.576 71.1792C361.082 71.9872 361.335 72.8962 361.335 73.9061C361.399 75.3874 360.924 76.6667 359.911 77.744Z" fill="black" fill-opacity="0.5"/>
<path d="M88.7853 636.903C93.0781 637.569 107.405 643.088 107.405 643.088L86.2777 709.374C86.2777 709.374 74.0916 707.088 70.512 705.788C67.7619 704.79 66.1236 704.274 63.7517 702.597C60.3558 700.194 58.7682 699.004 56.354 695.195C54.6442 692.497 53.6544 690.65 52.3191 687.76C50.3963 683.599 50.2758 680.839 50.1216 676.283C49.9331 670.712 50.485 667.448 52.3483 662.175C53.9996 657.502 55.4593 654.991 58.4637 650.999C61.4089 647.087 63.2483 644.832 67.3728 642.096C71.0266 639.672 73.4127 638.612 77.7128 637.587C81.92 636.584 84.5069 636.24 88.7853 636.903Z" fill="#FFD6C2"/>
<path d="M82.7293 662.242C82.7293 662.242 85.5145 662.761 87.2438 663.288C89.298 663.914 92.3488 665.308 92.3488 665.308L92.4372 666.898C92.4636 667.374 91.8772 667.631 91.5487 667.287C91.5036 667.24 91.4496 667.202 91.3898 667.175L89.5267 666.342C87.9534 665.698 86.3288 665.18 84.6686 664.796L84.2897 664.708L83.1263 664.555C81.1041 664.288 79.0603 664.198 77.0178 664.285L76.1902 664.403C75.2479 664.537 74.3284 664.807 73.4607 665.203L72.9895 665.418C72.5475 665.62 72.1323 665.876 71.7536 666.181L71.2346 666.598C70.8826 666.882 70.4703 667.081 70.0301 667.18C69.8638 667.218 69.6942 667.244 69.525 667.23C69.3382 667.215 69.0948 667.17 68.9594 667.047C68.6908 666.802 68.7396 666.513 68.7456 666.155C68.765 665.018 70.0099 664.317 71.0134 663.751L71.0255 663.745C71.2116 663.64 71.4011 663.538 71.5846 663.447C73.0291 662.728 73.9121 662.466 75.3594 662.217C76.7461 661.979 77.738 661.804 78.9377 661.784C80.4569 661.758 82.7293 662.242 82.7293 662.242Z" fill="#A36441"/>
<path d="M296.59 636.63C292.318 637.409 278.152 643.306 278.152 643.306L301.143 709.007C301.143 709.007 313.26 706.399 316.802 705.005C319.523 703.934 321.146 703.376 323.469 701.636C326.796 699.144 328.35 697.912 330.655 694.041C332.288 691.298 333.226 689.426 334.479 686.502C336.283 682.292 336.326 679.529 336.351 674.971C336.382 669.397 335.739 666.149 333.727 660.927C331.944 656.299 330.414 653.828 327.298 649.918C324.244 646.084 322.341 643.879 318.141 641.254C314.42 638.928 312.005 637.931 307.678 637.02C303.444 636.129 300.848 635.853 296.59 636.63Z" fill="#FFD6C2"/>
<path d="M303.36 661.799C303.36 661.799 300.591 662.392 298.877 662.964C296.841 663.644 293.831 665.118 293.831 665.118L293.788 666.711C293.775 667.187 294.368 667.428 294.687 667.076C294.731 667.028 294.784 666.988 294.843 666.96L296.681 666.078C298.236 665.392 299.845 664.832 301.494 664.403L301.87 664.305L303.029 664.121C305.043 663.802 307.083 663.657 309.127 663.69L309.958 663.786C310.904 663.895 311.831 664.14 312.709 664.513L313.186 664.716C313.634 664.906 314.056 665.151 314.443 665.445L314.974 665.849C315.334 666.123 315.752 666.311 316.194 666.399C316.362 666.432 316.532 666.454 316.701 666.435C316.887 666.415 317.129 666.364 317.261 666.237C317.522 665.985 317.466 665.697 317.449 665.34C317.398 664.204 316.133 663.536 315.114 662.997L315.102 662.991C314.913 662.891 314.721 662.794 314.535 662.708C313.071 662.028 312.181 661.789 310.727 661.579C309.334 661.377 308.338 661.229 307.138 661.241C305.618 661.255 303.36 661.799 303.36 661.799Z" fill="#A36441"/>
<path d="M109.754 631.272C109.754 631.272 119.432 617.012 128.164 610.504C138.524 602.785 146.101 600.438 158.804 597.593C168.516 595.418 187.253 594.485 197.21 594.089C206.051 593.737 229.557 595.36 238.104 597.6C250.036 600.728 255.121 603.153 264.908 610.517C272.783 616.442 284.805 631.289 284.805 631.289C295.53 647.13 291.812 663.859 291.812 663.859C291.812 663.859 295.352 665.128 298.522 667.492C304.735 672.124 303.185 671.152 306.339 676.817C310.571 684.417 312.262 694.798 309.779 702.573C306.836 711.792 309.058 707.019 303.297 715.064C297.018 723.83 297.515 727.778 289.862 734.096C277.393 744.389 261.882 753.298 261.882 753.298L232.871 766.459L192.806 766.455L149.371 766.451C149.371 766.451 129.758 757.874 115.221 745.573C103.711 735.834 100.62 727.406 89.1792 715.4C84.4471 710.433 83.3804 703.815 82.2532 696.635C81.3199 690.691 81.7005 687.129 83.5709 681.236C86.0219 673.513 86.7549 671.022 91.3009 666.497C95.7204 662.097 100.453 661.662 100.453 661.662C100.453 661.662 99.2019 646.769 102.981 641.285C105.741 637.279 109.754 631.272 109.754 631.272Z" fill="#CD9272"/>
<path d="M120.477 648.5C122.828 643.781 125.532 641.768 129.032 637.612C131.5 634.681 135.55 630.236 135.55 630.236H253.285C253.285 630.236 256.782 632.784 258.989 634.45C262.378 637.01 264.743 638.081 267.544 641.124C269.63 643.391 270.579 644.835 272.025 647.446C273.759 650.578 274.492 652.474 275.284 655.876C275.882 658.445 276.109 659.929 276.099 662.55C276.083 666.586 275.66 668.942 274.062 672.736C272.701 675.967 269.173 680.463 269.173 680.463L273.655 687.488C273.655 687.488 275.382 690.409 276.099 692.405C277.412 696.059 277.379 698.333 277.323 702.128L277.321 702.24C277.27 705.693 276.948 707.645 276.099 711.021C275.395 713.82 275.21 715.515 273.655 718.046C271.494 721.56 269.04 722.864 265.507 725.422C261.722 728.162 259.328 729.476 254.915 731.393C248.939 733.988 245.157 734.729 238.619 735.959C234.53 736.728 232.214 736.963 228.027 737.364C220.694 738.066 217.561 737.799 209.288 738.066C204.992 738.205 199.681 738.203 196.659 738.066C188.918 737.715 185.055 737.825 177.104 737.364C172.648 737.105 170.137 737.079 165.697 736.661C158.963 736.028 148.587 734.203 148.587 734.203C148.587 734.203 143.751 733.354 140.847 732.446C137.97 731.547 133.921 729.637 133.921 729.637C133.921 729.637 129.731 727.758 127.403 726.124C123.453 723.351 121.474 721.296 119.255 717.343C117.388 714.019 116.975 711.871 116.403 708.211C115.681 703.587 115.913 700.87 116.811 696.269C118.08 689.762 123.736 680.463 123.736 680.463C123.736 680.463 120.523 675.486 119.255 672.033C117.747 667.927 117.148 665.451 117.218 661.145C117.3 656.087 118.162 653.148 120.477 648.5Z" fill="#FFD6C2"/>
<ellipse cx="173.418" cy="663.263" rx="6.52574" ry="6.32115" fill="#372C28"/>
<path d="M196.231 667.447C195.574 667.447 195.074 667.004 194.599 667.052C193.946 667.118 193.728 667.403 193.376 667.842C193.157 668.114 193.061 668.299 192.968 668.632C192.843 669.077 192.967 669.811 192.968 669.817C192.968 669.817 193.173 670.324 193.375 670.608C193.632 670.966 193.821 671.149 194.191 671.398C194.484 671.594 194.68 671.657 195.007 671.793C195.334 671.929 196.175 672.184 196.99 672.184C197.347 672.184 198.678 671.793 198.678 671.793C198.678 671.793 199.474 671.259 199.901 670.608C200.337 669.944 200.523 669.391 200.309 668.632C200.158 668.096 199.954 667.779 199.493 667.447C198.967 667.067 198.519 667.052 197.862 667.052C197.205 667.052 196.887 667.447 196.231 667.447Z" fill="#372C28"/>
<path d="M148.032 671.502C146.845 671.978 146.252 672.402 145.177 673.082C143.47 674.164 142.381 674.707 141.098 676.243C140.067 677.478 139.059 679.799 139.059 679.799C139.059 679.799 138.34 681.935 138.243 683.354C138.201 683.97 138.243 684.935 138.243 684.935V686.91C138.243 687.546 138.651 688.49 138.651 688.49C138.651 688.49 139.127 689.464 139.467 690.07C139.91 690.861 140.118 691.338 140.69 692.046C141.246 692.733 142.322 693.626 142.322 693.626L142.825 693.991C143.574 694.536 144.391 694.981 145.254 695.315C145.746 695.506 146.251 695.659 146.764 695.782C147.041 695.848 147.353 695.925 147.624 695.996L147.636 696C148.551 696.241 149.12 696.392 150.071 696.392C151.027 696.392 151.564 696.441 152.518 696.392C153.801 696.326 154.546 696.338 155.781 695.997C156.606 695.769 157.821 695.206 157.821 695.206C157.821 695.206 159.487 694.509 160.268 694.021C161.419 693.302 161.707 692.945 162.715 692.046C163.046 691.75 163.212 691.564 163.531 691.256L164.754 690.07C164.754 690.07 165.584 689.161 165.978 688.49C166.402 687.768 166.496 687.294 166.793 686.515C167.142 685.599 167.609 684.144 167.609 684.144C167.609 684.144 167.998 682.605 167.998 681.666C167.998 680.728 167.8 680.311 167.609 679.404C167.438 678.589 167.123 678.08 166.775 677.32C166.341 676.374 166.191 675.9 165.57 675.058C164.915 674.17 164.78 673.808 163.938 673.082C163.177 672.425 162.388 671.973 161.491 671.502C160.606 671.037 159.044 670.712 159.044 670.712C159.044 670.712 158.061 670.419 157.413 670.317C156.155 670.118 155.422 670.241 154.15 670.317C152.868 670.394 152.144 670.458 150.887 670.712C149.752 670.941 149.103 671.072 148.032 671.502Z" fill="#FFB9A8"/>
<path d="M245.508 671.502C246.695 671.978 247.289 672.402 248.363 673.082C250.07 674.164 251.159 674.707 252.442 676.243C253.473 677.478 254.481 679.799 254.481 679.799C254.481 679.799 255.2 681.935 255.297 683.354C255.339 683.97 255.297 684.935 255.297 684.935V686.91C255.297 687.546 254.889 688.49 254.889 688.49C254.889 688.49 254.413 689.464 254.073 690.07C253.631 690.861 253.423 691.338 252.85 692.046C252.294 692.733 251.218 693.626 251.218 693.626L250.716 693.991C249.966 694.536 249.15 694.981 248.286 695.315C247.794 695.506 247.289 695.659 246.777 695.782C246.499 695.848 246.188 695.925 245.916 695.996L245.904 696C244.989 696.241 244.42 696.392 243.469 696.392C242.513 696.392 241.976 696.441 241.022 696.392C239.74 696.326 238.994 696.338 237.759 695.997C236.934 695.769 235.72 695.206 235.72 695.206C235.72 695.206 234.053 694.509 233.273 694.021C232.121 693.302 231.833 692.945 230.825 692.046C230.494 691.75 230.328 691.564 230.01 691.256L228.786 690.07C228.786 690.07 227.956 689.161 227.563 688.49C227.139 687.768 227.044 687.294 226.747 686.515C226.398 685.599 225.931 684.144 225.931 684.144C225.931 684.144 225.542 682.605 225.542 681.666C225.542 680.728 225.741 680.311 225.931 679.404C226.102 678.589 226.418 678.08 226.766 677.32C227.199 676.374 227.349 675.9 227.97 675.058C228.625 674.17 228.761 673.808 229.602 673.082C230.364 672.425 231.153 671.973 232.049 671.502C232.934 671.037 234.496 670.712 234.496 670.712C234.496 670.712 235.479 670.419 236.128 670.317C237.385 670.118 238.119 670.241 239.391 670.317C240.672 670.394 241.396 670.458 242.653 670.712C243.789 670.941 244.437 671.072 245.508 671.502Z" fill="#FFB9A8"/>
<path d="M187.817 685.282C187.817 685.282 189.214 686.072 190.303 686.631C192.423 687.721 193.986 687.995 196.382 687.981C198.671 687.966 199.838 687.855 201.909 686.901C203.1 686.353 204.948 685.282 204.948 685.282" stroke="#E1767C" stroke-width="10" stroke-linecap="round"/>
<ellipse cx="218.514" cy="663.566" rx="6.52574" ry="6.32115" fill="#372C28"/>
<path d="M92.5083 619.238C92.5083 619.238 100.74 612.152 106.839 608.745C108.449 607.846 111.407 606.953 111.407 606.953C111.407 606.953 115.626 605.114 118.244 604.392C121.737 603.428 124.035 603.289 127.928 602.48C136.328 600.735 149.696 599.405 149.696 599.405C149.696 599.405 159.422 598.43 165.674 598.074C172.369 597.693 176.133 597.62 182.84 597.581C190.327 597.538 194.539 597.461 202.026 597.566C207.125 597.637 209.976 597.848 215.067 598.093C223.022 598.474 235.425 599.311 235.425 599.311L253.304 601.219L265.869 603.309C265.869 603.309 274.613 604.424 280.046 605.859C282.432 606.489 283.785 606.82 286.091 607.685C290.21 609.229 292.249 610.694 296.074 612.833C303.006 616.708 306.988 618.863 313.155 623.804C316.377 626.385 317.975 628.065 321.016 630.844C323.643 633.244 327.689 637.045 327.689 637.045C327.689 637.045 331.545 641.315 333.495 644.397L334.259 645.614L335.023 646.831L335.787 648.048C335.787 648.048 335.908 648.568 335.753 648.838C335.644 649.029 335.329 649.216 335.329 649.216C334.742 649.606 333.958 648.661 333.325 648.344C331.222 647.29 328.113 646.156 328.113 646.156L317.28 641.765C317.28 641.765 313.129 640.656 310.404 640.3C306.139 639.744 299.401 639.856 299.401 639.856C299.401 639.856 291.654 639.704 286.734 640.135C283.499 640.418 281.708 640.46 278.533 640.99C275.601 641.479 274.058 641.756 271.13 642.272C267.008 642.999 260.467 643.423 260.467 643.423L243.216 645.889L224.318 648.684L214.079 649.457L203.858 649.835L191.632 649.341C191.632 649.341 184.685 648.949 180.239 648.485C171.516 647.575 166.638 646.811 157.895 646C148.217 645.103 133.088 643.812 133.088 643.812L128.605 643.63C123.308 643.416 120.396 643.386 115.141 643.482C107.573 643.62 103.553 643.636 95.9029 644.682C92.6861 645.121 90.4867 645.427 87.2773 645.915C83.2656 646.525 80.9891 647.028 76.9877 647.871C74.0803 648.485 72.3236 648.898 69.5507 649.943C68.5549 650.319 68.2953 650.684 67.4796 650.651C67.0295 650.632 66.5317 650.066 66.2906 649.812C65.9005 649.4 66.2161 648.594 66.3756 647.838C66.6185 646.687 67.7171 645.124 67.7171 645.124C67.7171 645.124 69.49 642.249 70.7736 640.503C72.7511 637.813 74.1073 636.484 76.3602 634.006C78.1529 632.035 81.0637 629.056 81.0637 629.056L87.4313 623.382L92.5083 619.238Z" fill="#DDB987"/>
<path d="M125.357 562.451C121.703 566.068 119.646 568.163 116.765 572.384C115.695 573.951 115.147 574.891 114.215 576.487L114.133 576.628C113.782 577.228 113.25 578.174 113.25 578.174C113.25 578.174 112.688 579.104 112.367 579.719C111.98 580.461 111.818 580.902 111.467 581.66L110.567 583.601C110.215 584.359 109.989 584.772 109.667 585.542C109.477 585.994 109.387 586.253 109.208 586.709C108.85 587.621 108.605 588.118 108.291 589.045C108.086 589.649 107.816 590.607 107.816 590.607L108.223 590.624L265.758 591.454L276.555 591.89C276.555 591.89 275.939 589.348 275.304 587.804C274.644 586.202 274.179 585.342 273.436 583.775C272.158 581.078 271.147 579.489 269.65 576.9C268.42 574.771 266.611 571.636 266.611 571.636C266.611 571.636 264.776 569.115 263.521 567.557C261.787 565.406 261.13 564.286 259.26 562.245C257.764 560.613 254.947 558.116 254.947 558.116L249.836 553.56C249.836 553.56 246.251 550.522 243.911 548.971C241.853 547.608 240.523 546.752 238.342 545.583C236.472 544.581 235.849 544.366 233.944 543.428C232.099 542.519 231.071 541.979 229.139 541.257C227.327 540.58 226.023 540.433 224.3 539.875C222.246 539.21 221.076 538.763 219.071 538.082C216.977 537.371 213.841 536.289 213.841 536.289L209.409 534.924C209.409 534.924 206.941 534.687 205.351 534.365C204.249 534.141 203.618 534.075 202.512 533.935C201.552 533.813 200.478 533.772 200.478 533.772C200.478 533.772 200.079 532.985 199.714 532.555L199.324 532.144L198.933 531.733C198.933 531.733 198.634 531.439 198.543 531.322C198.37 531.097 197.745 530.894 197.745 530.894L196.947 530.466C196.635 530.299 196.505 530.053 196.149 530.039C195.334 530.006 194.502 530.367 194.502 530.367C194 530.408 193.737 530.551 193.262 530.713C192.591 530.942 192.217 531.181 191.595 531.517C190.704 531.998 190.175 532.448 189.489 533.014C188.542 533.795 187.367 534.905 187.367 534.905L182.443 535.497L175.04 536.779L165.141 539.147L153.102 543.801C153.102 543.801 143.028 548.61 137.209 552.649C132.261 556.082 129.613 558.236 125.357 562.451Z" fill="#DDB987"/>
<path d="M107.826 590.772C108.056 589.947 108.006 589.347 108.295 588.964C109.161 587.812 111.351 587.389 113.337 586.592C116.526 585.312 118.357 584.681 121.663 583.727C126.576 582.308 129.454 581.954 134.492 581.043C137.547 580.491 139.267 580.217 142.339 579.759C146.994 579.066 149.618 578.758 154.297 578.241C157.671 577.869 159.561 577.632 162.946 577.39C166.79 577.116 168.954 577.081 172.806 576.988C175.85 576.915 177.558 576.864 180.602 576.903C184.122 576.948 186.091 577.125 189.609 577.267L197.796 577.598L202.709 577.796L210.897 578.127L216.219 578.342C218.298 578.426 219.494 578.477 221.541 578.557C225.118 578.697 225.213 578.787 227.665 579.205C231.321 579.827 233.344 580.193 237.029 580.784C238.616 581.038 239.486 581.126 241.106 581.349C243.574 581.688 244.591 581.917 246.803 582.379C249.841 583.014 254.513 584.292 254.513 584.292L258.163 585.24L264.252 586.687C265.838 587.063 266.745 587.208 268.312 587.651C270.402 588.243 274.013 589.333 274.013 589.333L276.034 589.81L277.494 593.824C277.494 593.824 278.315 595.523 278.595 596.472C278.874 597.421 279.081 597.94 279.31 598.902C279.716 600.603 279.735 601.596 279.94 603.33C280.069 604.427 280.229 606.144 280.229 606.144C280.229 606.144 277.25 605.562 275.351 605.146C272.963 604.623 271.645 604.563 269.244 604.099C265.933 603.458 264.039 603.023 260.698 602.553C256.396 601.947 254.005 601.47 249.696 600.908L249.535 600.886C247.725 600.65 246.661 600.511 244.801 600.309C240.981 599.895 238.824 599.807 234.993 599.513C229.886 599.121 221.909 598.584 221.909 598.584L212.903 598.22L201.013 598.14L195.281 597.908L187.912 597.61L182.573 597.795L176.824 597.963L170.666 598.114L163.263 598.616L155.859 599.117L147.619 599.985L140.199 600.886L131.942 602.153L124.095 603.437L116.64 605.137L113.722 606.22L111.641 606.936L109.559 607.652L107.036 608.717L105.765 609.423L105.517 606.288L105.586 604.69L105.689 602.293C105.689 602.293 105.709 601.318 105.758 600.695C105.868 599.285 106.055 598.505 106.322 597.115C106.502 596.182 106.635 595.664 106.835 594.735C107.035 593.805 107.102 593.273 107.348 592.354C107.514 591.731 107.652 591.394 107.826 590.772Z" fill="#D29C46"/>
<path d="M211.738 543.382L204.774 538.295C204.774 538.295 204.11 537.816 204.009 537.481C203.907 537.146 204.445 537.099 204.445 537.099C204.445 537.099 204.701 537.102 204.865 537.116C205.538 537.174 206.525 537.582 206.525 537.582C206.525 537.582 208.33 538.299 209.41 538.897C211.338 539.963 212.54 540.615 214.323 541.89C216.505 543.45 217.618 544.37 219.604 546.096C221.747 547.957 224.851 551.099 224.851 551.099L230.483 556.916C232.683 559.188 234.043 560.598 236.098 563.131C237.74 565.157 238.639 566.316 240.069 568.482C241.401 570.498 243.202 573.799 243.202 573.799C243.202 573.799 244.058 575.483 244.34 576.64C244.602 577.713 244.639 579.447 244.639 579.447L243.767 579.807C243.767 579.807 243.328 579.791 242.509 579.756C242.011 579.736 241.251 579.706 240.831 579.689C240.32 579.668 239.606 579.243 239.606 579.243C239.606 579.243 239.109 576.734 238.519 575.207C237.734 573.174 236.937 572.176 235.789 570.305C234.367 567.989 233.482 566.734 231.835 564.556C229.529 561.507 225.433 557.111 225.433 557.111L220.622 551.726C220.622 551.726 218.243 549.128 216.6 547.571C214.785 545.852 211.738 543.382 211.738 543.382Z" fill="#F2D4A5"/>
<ellipse cx="4.4862" cy="4.34604" rx="4.4862" ry="4.34604" transform="matrix(0.999185 0.0403751 -0.0430262 0.999074 126.753 567.962)" fill="#F7DBAD"/>
<ellipse cx="2.85486" cy="2.76566" rx="2.85486" ry="2.76566" transform="matrix(0.999185 0.0403751 -0.0430262 0.999074 128.314 569.606)" fill="#DDB987"/>
<ellipse cx="5.30188" cy="5.13623" rx="5.30188" ry="5.13623" transform="matrix(0.999185 0.0403751 -0.0430262 0.999074 248.663 561.817)" fill="#F7DBAD"/>
<ellipse cx="3.53458" cy="3.42415" rx="3.53458" ry="3.42415" transform="matrix(0.999185 0.0403751 -0.0430262 0.999074 250.355 563.599)" fill="#DDB987"/>
<ellipse cx="4.89404" cy="4.74113" rx="4.89404" ry="4.74113" transform="matrix(0.999185 0.0403751 -0.0430262 0.999074 189.306 556.255)" fill="#F7DBAD"/>
<ellipse cx="3.26269" cy="3.16076" rx="3.26269" ry="3.16076" transform="matrix(0.999185 0.0403751 -0.0430262 0.999074 190.867 557.9)" fill="#DDB987"/>
<path d="M122.198 869.922C108.899 865.964 90.2831 855.876 90.2831 855.876C90.2831 855.876 88.1178 834.548 89.1734 820.936C90.5613 803.039 96.6311 775.408 96.6311 775.408L113.207 731.156C113.207 731.156 148.172 738.185 161.287 739.253C177.866 740.603 190.161 740.604 206.326 740.605C228.158 740.606 228.158 740.606 248.386 737.487L249.154 737.369C263.049 735.227 277.062 731.164 277.062 731.164C277.062 731.164 299.924 790.953 302.735 820.946C303.985 834.28 302.996 855.194 302.996 855.194C302.996 855.194 297.227 858.918 293.103 861.38C285.016 866.209 279.505 867.918 270.276 870.779L269.817 870.922C258.976 874.284 252.434 875.133 241.035 876.833C230.846 878.352 225.041 878.849 214.714 879.464C201.162 880.272 193.478 880.471 179.926 879.709C167.002 878.983 159.812 878.125 147.094 875.863C137.299 874.121 131.617 872.725 122.198 869.922Z" fill="#CD9272"/>
<path d="M119.096 854.996C117.187 860.106 116.212 867.924 116.212 867.924C116.212 867.924 123.287 870.341 127.67 871.512C134.291 873.281 137.788 874.271 144.598 875.469C150.811 876.563 154.248 877.611 160.523 878.211C165.741 878.709 168.712 879.019 173.951 879.339C180.17 879.718 183.642 880.354 189.863 880.449C194.714 880.523 197.439 880.283 202.286 880.094C208.711 879.843 213.772 879.942 220.173 879.419C225.637 878.972 228.118 878.547 233.582 878.1C239.767 877.595 244.009 876.803 249.964 875.538C254.899 874.489 258.546 874.364 263.364 872.996C270.39 871.002 277.742 868.409 277.742 868.409C277.742 868.409 277.251 863.729 277.206 863.253C276.666 857.549 274.927 854.691 272.629 849.423C270.784 845.194 269.788 842.764 267.082 838.861C264.875 835.678 263.378 834 260.563 831.16C257.558 828.129 255.584 826.604 252.139 823.943L252.059 823.881C249.058 821.563 247.413 820.2 244.064 818.229C239.55 815.573 236.614 814.565 231.596 812.609C227.595 811.05 225.343 810.145 221.132 809.014C214.734 807.295 210.93 806.69 204.213 806.28C199.569 805.996 192.286 806.364 192.286 806.364C192.286 806.364 183.699 806.646 178.379 807.686C171.679 808.996 168.156 810.531 162.019 813.103C155.49 815.839 151.907 817.616 146.177 821.37C140.915 824.817 137.949 826.875 133.827 831.243C129.828 835.481 127.417 838.351 124.474 843.134C121.691 847.655 120.906 850.155 119.096 854.996Z" fill="#FFD6C2"/>
<path d="M49.6003 757.702C46.6382 763.56 44.0794 766.65 42.8244 773.176C42.2644 776.088 42.1188 780.779 42.1188 780.779C42.1188 780.779 43.1062 787.855 45.3373 791.896C47.0543 795.007 48.3186 796.732 51.0594 799.131C54.6391 802.264 61.9011 804.825 61.9011 804.825C61.9011 804.825 70.5623 805.422 76.0156 805.002C82.7122 804.486 86.8119 804.488 92.7315 801.806C98.8623 799.029 105.852 791.168 105.852 791.168L120.79 773.077C120.79 773.077 132.063 759.465 138.489 750.273L143.373 743.269L145.844 738.849L148.032 733.902L148.685 727.995C148.685 727.995 149.325 720.008 147.082 715.42C145.815 712.829 144.079 709.033 140.486 706.453L140.477 706.446C137.935 704.621 136.057 703.273 132.861 702.003C128.783 700.382 126.681 699.143 122.195 698.63C116.922 698.028 113.476 699.678 108.619 701.258C103.058 703.068 98.6376 705.279 93.0506 709.018C84.961 714.433 74.1467 726.199 74.1467 726.199L62.0273 740.636C62.0273 740.636 53.3149 750.356 49.6003 757.702Z" fill="#CD9272"/>
<path d="M102.541 703.612L104.675 702.701L109.237 705.802L130.45 724.19L140.044 729.804L145.844 738.849L144.719 741.142L143.373 743.269L142.996 743.301C142.996 743.301 142.336 742.999 141.738 742.673C141.171 742.363 140.556 742.101 140.04 741.715C139.524 741.328 138.223 740.42 137.397 739.736C136.73 739.185 135.027 737.882 134.47 737.232C133.879 736.542 133.619 736.101 133.177 735.324C132.504 734.138 131.851 732.136 131.851 732.136L131.185 729.443C131.185 729.443 129.857 729.265 129.017 729.074C128.176 728.883 126.188 728.21 126.188 728.21C126.188 728.21 124.189 727.244 123.011 726.459C121.486 725.444 120.672 724.777 119.423 723.46C118.818 722.822 118.528 722.425 117.974 721.749C117.485 721.151 117.109 720.477 116.682 719.841C115.868 718.626 115.199 716.849 115.199 716.849L114.44 714.714L112.208 713.983L110.133 713.057C110.133 713.057 109.072 712.515 108.435 712.099C107.443 711.452 106.012 710.285 106.012 710.285C105.168 709.551 104.279 708.048 104.279 708.048C104.279 708.048 103.761 707.324 103.491 706.831C103.198 706.297 103.042 705.987 102.859 705.418C102.638 704.727 102.541 703.612 102.541 703.612Z" fill="#A36441"/>
<path d="M106.193 706.972C105.223 705.309 104.675 702.701 104.675 702.701L111.83 699.906C111.83 699.906 116.707 698.485 119.994 698.492C121.657 698.496 122.524 698.528 124.267 698.869C127.81 699.563 130.082 700.317 133.414 701.955C137.107 703.769 139.343 704.77 142.254 707.631C145.425 710.748 146.652 713.168 147.962 717.234C148.986 720.413 149.049 725.572 149.049 725.572L148.56 731.476C148.56 731.476 147.918 734.864 147.033 736.917C146.255 738.724 144.719 741.142 144.719 741.142C144.719 741.142 143.69 741.107 143.148 740.906C141.623 740.34 140.813 739.68 139.53 738.825C138.393 738.068 137.834 737.504 136.9 736.562L136.824 736.486C136.131 735.787 135.787 735.328 135.155 734.609C134.141 733.458 134.074 732.394 133.764 731.06C133.455 729.726 133.568 727.778 133.568 727.778C133.568 727.778 131.727 727.659 130.646 727.472C129.188 727.22 128.905 727.143 127.441 726.64C125.409 725.943 122.502 723.57 122.502 723.57C122.502 723.57 119.929 721.265 118.723 719.487C117.93 718.318 117.536 717.486 117.02 716.331C116.452 715.061 115.913 713.308 115.913 713.308C115.913 713.308 113.335 712.606 111.826 711.816C109.243 710.465 107.352 708.963 106.193 706.972Z" fill="#F9C5AC"/>
<path d="M129.307 760.017C134.604 753.398 142.176 742.564 142.176 742.564L143.372 743.269L138.331 750.469C138.331 750.469 133.922 756.719 130.942 760.614C128.381 763.96 126.885 765.792 124.208 769.054C121.591 772.243 117.41 777.133 117.41 777.133C117.41 777.133 112.254 783.209 109.047 787.176C107.628 788.93 105.445 791.69 105.445 791.69C105.445 791.69 104.204 793.061 103.345 793.881C102.478 794.709 101.931 795.116 101.026 795.907C100.12 796.698 99.6547 797.173 98.7058 797.932C97.7569 798.691 96.1658 799.793 96.1658 799.793C96.1658 799.793 94.1686 801.248 92.7155 801.913C91.3126 802.555 90.6237 802.836 89.1378 803.311C88.2195 803.604 87.5218 803.71 86.5634 803.892C85.7015 804.056 84.1457 804.277 84.1457 804.277L88.1295 801.929C88.1295 801.929 89.9925 801.108 91.4868 800.366C92.9453 799.643 95.3141 798.215 95.3141 798.215C95.3141 798.215 98.1004 796.325 99.704 794.917C101.419 793.412 102.464 792.61 103.967 790.897C105.458 789.198 106.194 788.105 107.621 786.317L115.712 776.175C115.712 776.175 124.218 766.376 129.307 760.017Z" fill="#A36441"/>
<path d="M340.796 743.055C344.805 748.296 347.9 750.884 350.356 757.082C351.452 759.847 352.474 764.436 352.474 764.436C352.474 764.436 352.827 771.567 351.39 775.934C350.283 779.294 349.363 781.212 347.117 784.053C344.183 787.764 337.521 791.557 337.521 791.557C337.521 791.557 329.115 793.666 323.673 794.21C316.991 794.879 312.96 795.601 306.636 794.004C300.087 792.35 291.742 785.847 291.742 785.847L273.665 770.68C273.665 770.68 260.031 759.274 251.99 751.363L245.876 745.333L242.618 741.42L239.541 736.94L237.792 731.245C237.792 731.245 235.668 723.502 237.015 718.597C237.775 715.826 238.773 711.788 241.823 708.62L241.83 708.612C243.988 706.371 245.583 704.715 248.488 702.904C252.195 700.594 254.03 699.006 258.346 697.714C263.419 696.195 267.117 697.213 272.189 697.914C277.996 698.717 282.758 700.115 288.952 702.811C297.921 706.714 310.759 716.386 310.759 716.386L325.38 728.455C325.38 728.455 335.768 736.483 340.796 743.055Z" fill="#CD9272"/>
<path d="M278.606 699.161L276.337 698.64L272.432 702.491L255.012 724.3L246.629 731.506L242.618 741.42L244.154 743.477L245.875 745.333L246.252 745.298C246.252 745.298 246.845 744.885 247.371 744.459C247.871 744.055 248.427 743.689 248.862 743.219C249.298 742.748 250.406 741.626 251.091 740.809C251.643 740.15 253.074 738.569 253.501 737.832C253.953 737.05 254.126 736.57 254.415 735.728C254.855 734.444 255.122 732.36 255.122 732.36L255.273 729.595C255.273 729.595 256.546 729.187 257.336 728.851C258.127 728.516 259.957 727.505 259.957 727.505C259.957 727.505 261.741 726.203 262.753 725.225C264.063 723.959 264.738 723.16 265.72 721.646C266.195 720.912 266.406 720.471 266.824 719.708C267.193 719.034 267.437 718.306 267.738 717.604C268.311 716.267 268.636 714.402 268.636 714.402L268.983 712.169L271.041 711.059L272.908 709.783C272.908 709.783 273.851 709.064 274.399 708.543C275.253 707.732 276.442 706.333 276.442 706.333C277.135 705.463 277.728 703.828 277.728 703.828C277.728 703.828 278.101 703.026 278.275 702.493C278.463 701.916 278.558 701.585 278.631 700.992C278.72 700.274 278.606 699.161 278.606 699.161Z" fill="#A36441"/>
<path d="M275.644 703.107C276.285 701.301 276.337 698.64 276.337 698.64L268.777 697.148C268.777 697.148 263.715 696.607 260.484 697.192C258.848 697.488 258.002 697.671 256.352 698.313C252.998 699.618 250.904 700.758 247.934 702.954C244.642 705.387 242.63 706.764 240.304 710.089C237.769 713.712 237.015 716.307 236.488 720.535C236.076 723.841 236.98 728.926 236.98 728.926L238.566 734.647C238.566 734.647 239.832 737.865 241.086 739.729C242.19 741.369 244.153 743.477 244.153 743.477C244.153 743.477 245.158 743.263 245.654 742.969C247.048 742.145 247.721 741.353 248.822 740.288C249.798 739.343 250.243 738.69 250.985 737.6L251.046 737.511C251.596 736.703 251.848 736.19 252.336 735.373C253.117 734.063 252.984 733.005 253.039 731.639C253.094 730.272 252.617 728.377 252.617 728.377C252.617 728.377 254.405 727.936 255.433 727.562C256.82 727.058 257.084 726.932 258.43 726.181C260.297 725.138 262.712 722.294 262.712 722.294C262.712 722.294 264.811 719.576 265.664 717.615C266.225 716.326 266.457 715.439 266.748 714.212C267.068 712.864 267.271 711.045 267.271 711.045C267.271 711.045 269.674 709.902 271.01 708.86C273.298 707.077 274.876 705.268 275.644 703.107Z" fill="#F9C5AC"/>
<path d="M262.843 759.332C256.394 753.754 246.92 744.429 246.92 744.429L245.876 745.333L252.181 751.528C252.181 751.528 257.687 756.9 261.347 760.206C264.492 763.048 266.306 764.586 269.549 767.324C272.72 770.001 277.747 774.076 277.747 774.076C277.747 774.076 283.955 779.144 287.852 782.482C289.575 783.958 292.239 786.289 292.239 786.289C292.239 786.289 293.716 787.419 294.714 788.075C295.722 788.737 296.335 789.041 297.374 789.659C298.413 790.278 298.96 790.665 300.035 791.244C301.11 791.824 302.881 792.628 302.881 792.628C302.881 792.628 305.118 793.708 306.671 794.107C308.171 794.491 308.901 794.646 310.451 794.853C311.409 794.98 312.115 794.961 313.092 794.972C313.97 794.982 315.541 794.926 315.541 794.926L311.184 793.317C311.184 793.317 309.198 792.837 307.59 792.37C306.02 791.914 303.423 790.926 303.423 790.926C303.423 790.926 300.329 789.557 298.489 788.454C296.52 787.275 295.342 786.67 293.544 785.25C291.759 783.84 290.831 782.896 289.093 781.387L279.238 772.835C279.238 772.835 269.038 764.692 262.843 759.332Z" fill="#A36441"/>
</g>
<defs>
<filter id="filter0_f_9010_8721" x="-515" y="24" width="2465" height="1181" filterUnits="userSpaceOnUse" color-interpolation-filters="sRGB">
<feFlood flood-opacity="0" result="BackgroundImageFix"/>
<feBlend mode="normal" in="SourceGraphic" in2="BackgroundImageFix" result="shape"/>
<feGaussianBlur stdDeviation="50" result="effect1_foregroundBlur_9010_8721"/>
</filter>
<clipPath id="clip0_9010_8721">
<rect width="390" height="844" fill="white"/>
</clipPath>
</defs>
</svg>
